G04 #@! TF.GenerationSoftware,KiCad,Pcbnew,(5.1.5-0-10_14)*
G04 #@! TF.CreationDate,2020-02-15T13:23:39+01:00*
G04 #@! TF.ProjectId,EDS_ALARM,4544535f-414c-4415-924d-2e6b69636164,rev?*
G04 #@! TF.SameCoordinates,Original*
G04 #@! TF.FileFunction,Other,User*
%FSLAX46Y46*%
G04 Gerber Fmt 4.6, Leading zero omitted, Abs format (unit mm)*
G04 Created by KiCad (PCBNEW (5.1.5-0-10_14)) date 2020-02-15 13:23:39*
%MOMM*%
%LPD*%
G04 APERTURE LIST*
%ADD10C,0.050000*%
%ADD11C,0.120000*%
%ADD12C,0.100000*%
G04 APERTURE END LIST*
D10*
X183189000Y-93665000D02*
X186889000Y-93665000D01*
X183189000Y-95565000D02*
X183189000Y-93665000D01*
X186889000Y-95565000D02*
X183189000Y-95565000D01*
X186889000Y-93665000D02*
X186889000Y-95565000D01*
D11*
X195690000Y-75820000D02*
X195690000Y-91820000D01*
X195690000Y-91820000D02*
X177690000Y-91820000D01*
X177690000Y-91820000D02*
X177690000Y-75820000D01*
X177690000Y-75820000D02*
X195690000Y-75820000D01*
D10*
X186370000Y-104965000D02*
X184470000Y-104965000D01*
X184470000Y-104965000D02*
X184470000Y-101265000D01*
X184470000Y-101265000D02*
X186370000Y-101265000D01*
X186370000Y-101265000D02*
X186370000Y-104965000D01*
X195720000Y-101820000D02*
X194670000Y-101820000D01*
X195720000Y-103920000D02*
X195720000Y-101820000D01*
X194670000Y-103920000D02*
X195720000Y-103920000D01*
X194670000Y-101820000D02*
X194670000Y-101120000D01*
X194670000Y-104620000D02*
X194670000Y-103920000D01*
X194670000Y-104620000D02*
X193520000Y-105770000D01*
X194670000Y-101120000D02*
X193520000Y-99970000D01*
X193520000Y-105770000D02*
X188870000Y-105770000D01*
X193520000Y-99970000D02*
X188870000Y-99970000D01*
X188870000Y-101820000D02*
X188870000Y-99970000D01*
X187820000Y-101820000D02*
X188870000Y-101820000D01*
X187820000Y-103920000D02*
X187820000Y-101820000D01*
X188870000Y-103920000D02*
X187820000Y-103920000D01*
X188870000Y-105770000D02*
X188870000Y-103920000D01*
X199070000Y-99750000D02*
X199070000Y-103450000D01*
X197170000Y-99750000D02*
X199070000Y-99750000D01*
X197170000Y-103450000D02*
X197170000Y-99750000D01*
X199070000Y-103450000D02*
X197170000Y-103450000D01*
X181040000Y-98700000D02*
X181040000Y-100550000D01*
X181040000Y-100550000D02*
X182090000Y-100550000D01*
X182090000Y-100550000D02*
X182090000Y-102650000D01*
X182090000Y-102650000D02*
X181040000Y-102650000D01*
X181040000Y-102650000D02*
X181040000Y-104500000D01*
X176390000Y-104500000D02*
X181040000Y-104500000D01*
X176390000Y-98700000D02*
X181040000Y-98700000D01*
X175240000Y-103350000D02*
X176390000Y-104500000D01*
X175240000Y-99850000D02*
X176390000Y-98700000D01*
X175240000Y-99850000D02*
X175240000Y-100550000D01*
X175240000Y-102650000D02*
X175240000Y-103350000D01*
X175240000Y-100550000D02*
X174190000Y-100550000D01*
X174190000Y-100550000D02*
X174190000Y-102650000D01*
X174190000Y-102650000D02*
X175240000Y-102650000D01*
X178380000Y-105730000D02*
X178380000Y-107630000D01*
X178380000Y-107630000D02*
X174680000Y-107630000D01*
X174680000Y-107630000D02*
X174680000Y-105730000D01*
X174680000Y-105730000D02*
X178380000Y-105730000D01*
X175840000Y-81600000D02*
X175840000Y-83500000D01*
X175840000Y-83500000D02*
X172140000Y-83500000D01*
X172140000Y-83500000D02*
X172140000Y-81600000D01*
X172140000Y-81600000D02*
X175840000Y-81600000D01*
X172140000Y-77790000D02*
X175840000Y-77790000D01*
X172140000Y-79690000D02*
X172140000Y-77790000D01*
X175840000Y-79690000D02*
X172140000Y-79690000D01*
X175840000Y-77790000D02*
X175840000Y-79690000D01*
X175840000Y-85410000D02*
X175840000Y-87310000D01*
X175840000Y-87310000D02*
X172140000Y-87310000D01*
X172140000Y-87310000D02*
X172140000Y-85410000D01*
X172140000Y-85410000D02*
X175840000Y-85410000D01*
X172140000Y-89220000D02*
X175840000Y-89220000D01*
X172140000Y-91120000D02*
X172140000Y-89220000D01*
X175840000Y-91120000D02*
X172140000Y-91120000D01*
X175840000Y-89220000D02*
X175840000Y-91120000D01*
X175840000Y-93030000D02*
X175840000Y-94930000D01*
X175840000Y-94930000D02*
X172140000Y-94930000D01*
X172140000Y-94930000D02*
X172140000Y-93030000D01*
X172140000Y-93030000D02*
X175840000Y-93030000D01*
X197170000Y-85425000D02*
X197170000Y-81725000D01*
X199070000Y-85425000D02*
X197170000Y-85425000D01*
X199070000Y-81725000D02*
X199070000Y-85425000D01*
X197170000Y-81725000D02*
X199070000Y-81725000D01*
X226395000Y-89220000D02*
X226395000Y-91120000D01*
X226395000Y-91120000D02*
X222695000Y-91120000D01*
X222695000Y-91120000D02*
X222695000Y-89220000D01*
X222695000Y-89220000D02*
X226395000Y-89220000D01*
X197785000Y-93030000D02*
X201485000Y-93030000D01*
X197785000Y-94930000D02*
X197785000Y-93030000D01*
X201485000Y-94930000D02*
X197785000Y-94930000D01*
X201485000Y-93030000D02*
X201485000Y-94930000D01*
X199070000Y-88320000D02*
X199070000Y-92020000D01*
X197170000Y-88320000D02*
X199070000Y-88320000D01*
X197170000Y-92020000D02*
X197170000Y-88320000D01*
X199070000Y-92020000D02*
X197170000Y-92020000D01*
X202880000Y-92020000D02*
X200980000Y-92020000D01*
X200980000Y-92020000D02*
X200980000Y-88320000D01*
X200980000Y-88320000D02*
X202880000Y-88320000D01*
X202880000Y-88320000D02*
X202880000Y-92020000D01*
X204510000Y-88940000D02*
X204510000Y-93940000D01*
X204510000Y-93940000D02*
X209510000Y-93940000D01*
X209510000Y-93940000D02*
X209510000Y-88940000D01*
X209510000Y-88940000D02*
X204510000Y-88940000D01*
X175840000Y-73980000D02*
X175840000Y-75880000D01*
X175840000Y-75880000D02*
X172140000Y-75880000D01*
X172140000Y-75880000D02*
X172140000Y-73980000D01*
X172140000Y-73980000D02*
X175840000Y-73980000D01*
X179040000Y-105480000D02*
X179040000Y-114280000D01*
X186240000Y-105480000D02*
X179040000Y-105480000D01*
X186240000Y-114280000D02*
X186240000Y-105480000D01*
X179040000Y-114280000D02*
X186240000Y-114280000D01*
X186719000Y-99375000D02*
X183359000Y-99375000D01*
X186719000Y-97475000D02*
X186719000Y-99375000D01*
X183359000Y-97475000D02*
X186719000Y-97475000D01*
X183359000Y-99375000D02*
X183359000Y-97475000D01*
X189709000Y-99375000D02*
X189709000Y-97475000D01*
X189709000Y-97475000D02*
X193069000Y-97475000D01*
X193069000Y-97475000D02*
X193069000Y-99375000D01*
X193069000Y-99375000D02*
X189709000Y-99375000D01*
X227900000Y-77670000D02*
X221100000Y-77670000D01*
X221100000Y-87770000D02*
X227900000Y-87770000D01*
X227900000Y-87770000D02*
X227900000Y-77670000D01*
X221100000Y-87770000D02*
X221100000Y-77670000D01*
D12*
X199610000Y-115560000D02*
X210810000Y-115560000D01*
X210810000Y-115560000D02*
X210810000Y-104360000D01*
X210810000Y-104360000D02*
X199610000Y-104360000D01*
X199610000Y-104360000D02*
X199610000Y-115560000D01*
D10*
X231460000Y-102460000D02*
X233360000Y-102460000D01*
X233360000Y-102460000D02*
X233360000Y-105820000D01*
X233360000Y-105820000D02*
X231460000Y-105820000D01*
X231460000Y-105820000D02*
X231460000Y-102460000D01*
X229340000Y-78210000D02*
X232890000Y-78210000D01*
X232890000Y-78210000D02*
X232890000Y-91910000D01*
X232890000Y-91910000D02*
X229340000Y-91910000D01*
X229340000Y-91910000D02*
X229340000Y-78210000D01*
X175790000Y-116100000D02*
X172240000Y-116100000D01*
X172240000Y-116100000D02*
X172240000Y-110000000D01*
X172240000Y-110000000D02*
X175790000Y-110000000D01*
X175790000Y-110000000D02*
X175790000Y-116100000D01*
X193239000Y-93665000D02*
X193239000Y-95565000D01*
X193239000Y-95565000D02*
X189539000Y-95565000D01*
X189539000Y-95565000D02*
X189539000Y-93665000D01*
X189539000Y-93665000D02*
X193239000Y-93665000D01*
X214295000Y-89220000D02*
X217995000Y-89220000D01*
X214295000Y-91120000D02*
X214295000Y-89220000D01*
X217995000Y-91120000D02*
X214295000Y-91120000D01*
X217995000Y-89220000D02*
X217995000Y-91120000D01*
X231460000Y-107125000D02*
X233360000Y-107125000D01*
X233360000Y-107125000D02*
X233360000Y-110825000D01*
X233360000Y-110825000D02*
X231460000Y-110825000D01*
X231460000Y-110825000D02*
X231460000Y-107125000D01*
X219010000Y-77627000D02*
X212210000Y-77627000D01*
X212210000Y-87727000D02*
X219010000Y-87727000D01*
X219010000Y-87727000D02*
X219010000Y-77627000D01*
X212210000Y-87727000D02*
X212210000Y-77627000D01*
X188100000Y-108110000D02*
X188100000Y-116300000D01*
X188100000Y-116300000D02*
X197990000Y-116300000D01*
X197990000Y-116300000D02*
X197990000Y-108110000D01*
X197990000Y-108110000D02*
X188100000Y-108110000D01*
M02*
