G04 #@! TF.GenerationSoftware,KiCad,Pcbnew,(5.1.5-0-10_14)*
G04 #@! TF.CreationDate,2020-02-15T13:23:39+01:00*
G04 #@! TF.ProjectId,EDS_ALARM,4544535f-414c-4415-924d-2e6b69636164,rev?*
G04 #@! TF.SameCoordinates,Original*
G04 #@! TF.FileFunction,Soldermask,Bot*
G04 #@! TF.FilePolarity,Negative*
%FSLAX46Y46*%
G04 Gerber Fmt 4.6, Leading zero omitted, Abs format (unit mm)*
G04 Created by KiCad (PCBNEW (5.1.5-0-10_14)) date 2020-02-15 13:23:39*
%MOMM*%
%LPD*%
G04 APERTURE LIST*
%ADD10C,0.100000*%
G04 APERTURE END LIST*
D10*
G36*
X174891000Y-115201000D02*
G01*
X173089000Y-115201000D01*
X173089000Y-113399000D01*
X174891000Y-113399000D01*
X174891000Y-115201000D01*
G37*
G36*
X189287716Y-112458058D02*
G01*
X189405719Y-112493854D01*
X189514467Y-112551980D01*
X189570675Y-112598109D01*
X189609790Y-112630210D01*
X189667369Y-112700371D01*
X189688020Y-112725533D01*
X189746146Y-112834280D01*
X189781942Y-112952283D01*
X189791000Y-113044253D01*
X189791000Y-113755747D01*
X189781942Y-113847717D01*
X189746146Y-113965720D01*
X189688020Y-114074468D01*
X189609790Y-114169790D01*
X189514468Y-114248020D01*
X189405720Y-114306146D01*
X189287717Y-114341942D01*
X189165000Y-114354028D01*
X189042284Y-114341942D01*
X188924281Y-114306146D01*
X188815533Y-114248020D01*
X188720211Y-114169790D01*
X188641983Y-114074469D01*
X188583853Y-113965718D01*
X188548058Y-113847717D01*
X188539000Y-113755747D01*
X188539000Y-113044254D01*
X188548058Y-112952284D01*
X188583854Y-112834281D01*
X188641980Y-112725533D01*
X188694942Y-112661000D01*
X188720210Y-112630210D01*
X188815531Y-112551982D01*
X188815533Y-112551980D01*
X188924280Y-112493854D01*
X189042283Y-112458058D01*
X189165000Y-112445972D01*
X189287716Y-112458058D01*
G37*
G36*
X197037716Y-112458058D02*
G01*
X197155719Y-112493854D01*
X197264467Y-112551980D01*
X197320675Y-112598109D01*
X197359790Y-112630210D01*
X197417369Y-112700371D01*
X197438020Y-112725533D01*
X197496146Y-112834280D01*
X197531942Y-112952283D01*
X197541000Y-113044253D01*
X197541000Y-113755747D01*
X197531942Y-113847717D01*
X197496146Y-113965720D01*
X197438020Y-114074468D01*
X197359790Y-114169790D01*
X197264468Y-114248020D01*
X197155720Y-114306146D01*
X197037717Y-114341942D01*
X196915000Y-114354028D01*
X196792284Y-114341942D01*
X196674281Y-114306146D01*
X196565533Y-114248020D01*
X196470211Y-114169790D01*
X196391983Y-114074469D01*
X196333853Y-113965718D01*
X196298058Y-113847717D01*
X196289000Y-113755747D01*
X196289000Y-113044254D01*
X196298058Y-112952284D01*
X196333854Y-112834281D01*
X196391980Y-112725533D01*
X196444942Y-112661000D01*
X196470210Y-112630210D01*
X196565531Y-112551982D01*
X196565533Y-112551980D01*
X196674280Y-112493854D01*
X196792283Y-112458058D01*
X196915000Y-112445972D01*
X197037716Y-112458058D01*
G37*
G36*
X174100426Y-110863313D02*
G01*
X174252812Y-110893624D01*
X174416784Y-110961544D01*
X174564354Y-111060147D01*
X174689853Y-111185646D01*
X174788456Y-111333216D01*
X174856376Y-111497188D01*
X174891000Y-111671259D01*
X174891000Y-111848741D01*
X174856376Y-112022812D01*
X174788456Y-112186784D01*
X174689853Y-112334354D01*
X174564354Y-112459853D01*
X174416784Y-112558456D01*
X174252812Y-112626376D01*
X174100426Y-112656687D01*
X174078742Y-112661000D01*
X173901258Y-112661000D01*
X173879574Y-112656687D01*
X173727188Y-112626376D01*
X173563216Y-112558456D01*
X173415646Y-112459853D01*
X173290147Y-112334354D01*
X173191544Y-112186784D01*
X173123624Y-112022812D01*
X173089000Y-111848741D01*
X173089000Y-111671259D01*
X173123624Y-111497188D01*
X173191544Y-111333216D01*
X173290147Y-111185646D01*
X173415646Y-111060147D01*
X173563216Y-110961544D01*
X173727188Y-110893624D01*
X173879574Y-110863313D01*
X173901258Y-110859000D01*
X174078742Y-110859000D01*
X174100426Y-110863313D01*
G37*
G36*
X207214472Y-111085938D02*
G01*
X207342047Y-111138781D01*
X207342048Y-111138782D01*
X207456862Y-111215498D01*
X207554502Y-111313138D01*
X207567919Y-111333218D01*
X207631219Y-111427953D01*
X207684062Y-111555528D01*
X207711000Y-111690956D01*
X207711000Y-111829044D01*
X207684062Y-111964472D01*
X207631219Y-112092047D01*
X207631218Y-112092048D01*
X207554502Y-112206862D01*
X207456862Y-112304502D01*
X207412188Y-112334352D01*
X207342047Y-112381219D01*
X207214472Y-112434062D01*
X207079044Y-112461000D01*
X206940956Y-112461000D01*
X206805528Y-112434062D01*
X206677953Y-112381219D01*
X206607812Y-112334352D01*
X206563138Y-112304502D01*
X206465498Y-112206862D01*
X206388782Y-112092048D01*
X206388781Y-112092047D01*
X206335938Y-111964472D01*
X206309000Y-111829044D01*
X206309000Y-111690956D01*
X206335938Y-111555528D01*
X206388781Y-111427953D01*
X206452081Y-111333218D01*
X206465498Y-111313138D01*
X206563138Y-111215498D01*
X206677952Y-111138782D01*
X206677953Y-111138781D01*
X206805528Y-111085938D01*
X206940956Y-111059000D01*
X207079044Y-111059000D01*
X207214472Y-111085938D01*
G37*
G36*
X203614472Y-111085938D02*
G01*
X203742047Y-111138781D01*
X203742048Y-111138782D01*
X203856862Y-111215498D01*
X203954502Y-111313138D01*
X203967919Y-111333218D01*
X204031219Y-111427953D01*
X204084062Y-111555528D01*
X204111000Y-111690956D01*
X204111000Y-111829044D01*
X204084062Y-111964472D01*
X204031219Y-112092047D01*
X204031218Y-112092048D01*
X203954502Y-112206862D01*
X203856862Y-112304502D01*
X203812188Y-112334352D01*
X203742047Y-112381219D01*
X203614472Y-112434062D01*
X203479044Y-112461000D01*
X203340956Y-112461000D01*
X203205528Y-112434062D01*
X203077953Y-112381219D01*
X203007812Y-112334352D01*
X202963138Y-112304502D01*
X202865498Y-112206862D01*
X202788782Y-112092048D01*
X202788781Y-112092047D01*
X202735938Y-111964472D01*
X202709000Y-111829044D01*
X202709000Y-111690956D01*
X202735938Y-111555528D01*
X202788781Y-111427953D01*
X202852081Y-111333218D01*
X202865498Y-111313138D01*
X202963138Y-111215498D01*
X203077952Y-111138782D01*
X203077953Y-111138781D01*
X203205528Y-111085938D01*
X203340956Y-111059000D01*
X203479044Y-111059000D01*
X203614472Y-111085938D01*
G37*
G36*
X195671550Y-110216331D02*
G01*
X195671553Y-110216332D01*
X195671552Y-110216332D01*
X195753629Y-110250329D01*
X195827496Y-110299686D01*
X195890314Y-110362504D01*
X195939671Y-110436371D01*
X195967836Y-110504367D01*
X195973669Y-110518450D01*
X195991000Y-110605579D01*
X195991000Y-110694421D01*
X195973669Y-110781550D01*
X195973668Y-110781552D01*
X195939671Y-110863629D01*
X195890314Y-110937496D01*
X195827496Y-111000314D01*
X195753629Y-111049671D01*
X195685633Y-111077836D01*
X195671550Y-111083669D01*
X195584421Y-111101000D01*
X195495579Y-111101000D01*
X195408450Y-111083669D01*
X195394367Y-111077836D01*
X195326371Y-111049671D01*
X195252504Y-111000314D01*
X195189686Y-110937496D01*
X195140329Y-110863629D01*
X195106332Y-110781552D01*
X195106331Y-110781550D01*
X195089000Y-110694421D01*
X195089000Y-110605579D01*
X195106331Y-110518450D01*
X195112164Y-110504367D01*
X195140329Y-110436371D01*
X195189686Y-110362504D01*
X195252504Y-110299686D01*
X195326371Y-110250329D01*
X195408448Y-110216332D01*
X195408447Y-110216332D01*
X195408450Y-110216331D01*
X195495579Y-110199000D01*
X195584421Y-110199000D01*
X195671550Y-110216331D01*
G37*
G36*
X190671550Y-110216331D02*
G01*
X190671553Y-110216332D01*
X190671552Y-110216332D01*
X190753629Y-110250329D01*
X190827496Y-110299686D01*
X190890314Y-110362504D01*
X190939671Y-110436371D01*
X190967836Y-110504367D01*
X190973669Y-110518450D01*
X190991000Y-110605579D01*
X190991000Y-110694421D01*
X190973669Y-110781550D01*
X190973668Y-110781552D01*
X190939671Y-110863629D01*
X190890314Y-110937496D01*
X190827496Y-111000314D01*
X190753629Y-111049671D01*
X190685633Y-111077836D01*
X190671550Y-111083669D01*
X190584421Y-111101000D01*
X190495579Y-111101000D01*
X190408450Y-111083669D01*
X190394367Y-111077836D01*
X190326371Y-111049671D01*
X190252504Y-111000314D01*
X190189686Y-110937496D01*
X190140329Y-110863629D01*
X190106332Y-110781552D01*
X190106331Y-110781550D01*
X190089000Y-110694421D01*
X190089000Y-110605579D01*
X190106331Y-110518450D01*
X190112164Y-110504367D01*
X190140329Y-110436371D01*
X190189686Y-110362504D01*
X190252504Y-110299686D01*
X190326371Y-110250329D01*
X190408448Y-110216332D01*
X190408447Y-110216332D01*
X190408450Y-110216331D01*
X190495579Y-110199000D01*
X190584421Y-110199000D01*
X190671550Y-110216331D01*
G37*
G36*
X196917121Y-108560228D02*
G01*
X197003336Y-108586382D01*
X197063398Y-108604601D01*
X197095896Y-108621972D01*
X197198206Y-108676656D01*
X197316369Y-108773631D01*
X197413344Y-108891793D01*
X197468028Y-108994103D01*
X197485399Y-109026601D01*
X197485399Y-109026602D01*
X197529772Y-109172878D01*
X197541000Y-109286882D01*
X197541000Y-109913118D01*
X197529772Y-110027122D01*
X197503618Y-110113337D01*
X197485399Y-110173399D01*
X197485398Y-110173400D01*
X197413344Y-110308207D01*
X197316369Y-110426369D01*
X197198207Y-110523344D01*
X197095897Y-110578028D01*
X197063399Y-110595399D01*
X197003337Y-110613618D01*
X196917122Y-110639772D01*
X196765000Y-110654754D01*
X196612879Y-110639772D01*
X196526664Y-110613618D01*
X196466602Y-110595399D01*
X196434104Y-110578028D01*
X196331794Y-110523344D01*
X196213632Y-110426369D01*
X196116657Y-110308206D01*
X196044602Y-110173400D01*
X196044601Y-110173399D01*
X196026382Y-110113337D01*
X196000228Y-110027122D01*
X195989000Y-109913118D01*
X195989000Y-109286883D01*
X196000228Y-109172879D01*
X196026382Y-109086664D01*
X196044601Y-109026602D01*
X196061972Y-108994104D01*
X196116656Y-108891794D01*
X196213631Y-108773631D01*
X196331793Y-108676656D01*
X196434103Y-108621972D01*
X196466601Y-108604601D01*
X196526663Y-108586382D01*
X196612878Y-108560228D01*
X196765000Y-108545246D01*
X196917121Y-108560228D01*
G37*
G36*
X189467121Y-108560228D02*
G01*
X189553336Y-108586382D01*
X189613398Y-108604601D01*
X189645896Y-108621972D01*
X189748206Y-108676656D01*
X189866369Y-108773631D01*
X189963344Y-108891793D01*
X190018028Y-108994103D01*
X190035399Y-109026601D01*
X190035399Y-109026602D01*
X190079772Y-109172878D01*
X190091000Y-109286882D01*
X190091000Y-109913118D01*
X190079772Y-110027122D01*
X190053618Y-110113337D01*
X190035399Y-110173399D01*
X190035398Y-110173400D01*
X189963344Y-110308207D01*
X189866369Y-110426369D01*
X189748207Y-110523344D01*
X189645897Y-110578028D01*
X189613399Y-110595399D01*
X189553337Y-110613618D01*
X189467122Y-110639772D01*
X189315000Y-110654754D01*
X189162879Y-110639772D01*
X189076664Y-110613618D01*
X189016602Y-110595399D01*
X188984104Y-110578028D01*
X188881794Y-110523344D01*
X188763632Y-110426369D01*
X188666657Y-110308206D01*
X188594602Y-110173400D01*
X188594601Y-110173399D01*
X188576382Y-110113337D01*
X188550228Y-110027122D01*
X188539000Y-109913118D01*
X188539000Y-109286883D01*
X188550228Y-109172879D01*
X188576382Y-109086664D01*
X188594601Y-109026602D01*
X188611972Y-108994104D01*
X188666656Y-108891794D01*
X188763631Y-108773631D01*
X188881793Y-108676656D01*
X188984103Y-108621972D01*
X189016601Y-108604601D01*
X189076663Y-108586382D01*
X189162878Y-108560228D01*
X189315000Y-108545246D01*
X189467121Y-108560228D01*
G37*
G36*
X203614472Y-107485938D02*
G01*
X203742047Y-107538781D01*
X203742048Y-107538782D01*
X203856862Y-107615498D01*
X203954502Y-107713138D01*
X203954503Y-107713140D01*
X204031219Y-107827953D01*
X204084062Y-107955528D01*
X204111000Y-108090956D01*
X204111000Y-108229044D01*
X204084062Y-108364472D01*
X204031219Y-108492047D01*
X204031218Y-108492048D01*
X203954502Y-108606862D01*
X203856862Y-108704502D01*
X203799064Y-108743121D01*
X203742047Y-108781219D01*
X203614472Y-108834062D01*
X203479044Y-108861000D01*
X203340956Y-108861000D01*
X203205528Y-108834062D01*
X203077953Y-108781219D01*
X203020936Y-108743121D01*
X202963138Y-108704502D01*
X202865498Y-108606862D01*
X202788782Y-108492048D01*
X202788781Y-108492047D01*
X202735938Y-108364472D01*
X202709000Y-108229044D01*
X202709000Y-108090956D01*
X202735938Y-107955528D01*
X202788781Y-107827953D01*
X202865497Y-107713140D01*
X202865498Y-107713138D01*
X202963138Y-107615498D01*
X203077952Y-107538782D01*
X203077953Y-107538781D01*
X203205528Y-107485938D01*
X203340956Y-107459000D01*
X203479044Y-107459000D01*
X203614472Y-107485938D01*
G37*
G36*
X207214472Y-107485938D02*
G01*
X207342047Y-107538781D01*
X207342048Y-107538782D01*
X207456862Y-107615498D01*
X207554502Y-107713138D01*
X207554503Y-107713140D01*
X207631219Y-107827953D01*
X207684062Y-107955528D01*
X207711000Y-108090956D01*
X207711000Y-108229044D01*
X207684062Y-108364472D01*
X207631219Y-108492047D01*
X207631218Y-108492048D01*
X207554502Y-108606862D01*
X207456862Y-108704502D01*
X207399064Y-108743121D01*
X207342047Y-108781219D01*
X207214472Y-108834062D01*
X207079044Y-108861000D01*
X206940956Y-108861000D01*
X206805528Y-108834062D01*
X206677953Y-108781219D01*
X206620936Y-108743121D01*
X206563138Y-108704502D01*
X206465498Y-108606862D01*
X206388782Y-108492048D01*
X206388781Y-108492047D01*
X206335938Y-108364472D01*
X206309000Y-108229044D01*
X206309000Y-108090956D01*
X206335938Y-107955528D01*
X206388781Y-107827953D01*
X206465497Y-107713140D01*
X206465498Y-107713138D01*
X206563138Y-107615498D01*
X206677952Y-107538782D01*
X206677953Y-107538781D01*
X206805528Y-107485938D01*
X206940956Y-107459000D01*
X207079044Y-107459000D01*
X207214472Y-107485938D01*
G37*
G36*
X231250426Y-89273313D02*
G01*
X231402812Y-89303624D01*
X231566784Y-89371544D01*
X231714354Y-89470147D01*
X231839853Y-89595646D01*
X231938456Y-89743216D01*
X232006376Y-89907188D01*
X232041000Y-90081259D01*
X232041000Y-90258741D01*
X232006376Y-90432812D01*
X231938456Y-90596784D01*
X231839853Y-90744354D01*
X231714354Y-90869853D01*
X231566784Y-90968456D01*
X231402812Y-91036376D01*
X231250426Y-91066687D01*
X231228742Y-91071000D01*
X231051258Y-91071000D01*
X231029574Y-91066687D01*
X230877188Y-91036376D01*
X230713216Y-90968456D01*
X230565646Y-90869853D01*
X230440147Y-90744354D01*
X230341544Y-90596784D01*
X230273624Y-90432812D01*
X230239000Y-90258741D01*
X230239000Y-90081259D01*
X230273624Y-89907188D01*
X230341544Y-89743216D01*
X230440147Y-89595646D01*
X230565646Y-89470147D01*
X230713216Y-89371544D01*
X230877188Y-89303624D01*
X231029574Y-89273313D01*
X231051258Y-89269000D01*
X231228742Y-89269000D01*
X231250426Y-89273313D01*
G37*
G36*
X231250426Y-86733313D02*
G01*
X231402812Y-86763624D01*
X231566784Y-86831544D01*
X231714354Y-86930147D01*
X231839853Y-87055646D01*
X231938456Y-87203216D01*
X232006376Y-87367188D01*
X232041000Y-87541259D01*
X232041000Y-87718741D01*
X232006376Y-87892812D01*
X231938456Y-88056784D01*
X231839853Y-88204354D01*
X231714354Y-88329853D01*
X231566784Y-88428456D01*
X231402812Y-88496376D01*
X231250426Y-88526687D01*
X231228742Y-88531000D01*
X231051258Y-88531000D01*
X231029574Y-88526687D01*
X230877188Y-88496376D01*
X230713216Y-88428456D01*
X230565646Y-88329853D01*
X230440147Y-88204354D01*
X230341544Y-88056784D01*
X230273624Y-87892812D01*
X230239000Y-87718741D01*
X230239000Y-87541259D01*
X230273624Y-87367188D01*
X230341544Y-87203216D01*
X230440147Y-87055646D01*
X230565646Y-86930147D01*
X230713216Y-86831544D01*
X230877188Y-86763624D01*
X231029574Y-86733313D01*
X231051258Y-86729000D01*
X231228742Y-86729000D01*
X231250426Y-86733313D01*
G37*
G36*
X231250426Y-84193313D02*
G01*
X231402812Y-84223624D01*
X231566784Y-84291544D01*
X231714354Y-84390147D01*
X231839853Y-84515646D01*
X231938456Y-84663216D01*
X232006376Y-84827188D01*
X232041000Y-85001259D01*
X232041000Y-85178741D01*
X232006376Y-85352812D01*
X231938456Y-85516784D01*
X231839853Y-85664354D01*
X231714354Y-85789853D01*
X231566784Y-85888456D01*
X231402812Y-85956376D01*
X231250426Y-85986687D01*
X231228742Y-85991000D01*
X231051258Y-85991000D01*
X231029574Y-85986687D01*
X230877188Y-85956376D01*
X230713216Y-85888456D01*
X230565646Y-85789853D01*
X230440147Y-85664354D01*
X230341544Y-85516784D01*
X230273624Y-85352812D01*
X230239000Y-85178741D01*
X230239000Y-85001259D01*
X230273624Y-84827188D01*
X230341544Y-84663216D01*
X230440147Y-84515646D01*
X230565646Y-84390147D01*
X230713216Y-84291544D01*
X230877188Y-84223624D01*
X231029574Y-84193313D01*
X231051258Y-84189000D01*
X231228742Y-84189000D01*
X231250426Y-84193313D01*
G37*
G36*
X205846042Y-83177339D02*
G01*
X205929890Y-83194017D01*
X206048364Y-83243091D01*
X206154988Y-83314335D01*
X206245665Y-83405012D01*
X206316909Y-83511636D01*
X206365983Y-83630110D01*
X206391000Y-83755882D01*
X206391000Y-83884118D01*
X206365983Y-84009890D01*
X206316909Y-84128364D01*
X206245665Y-84234988D01*
X206154988Y-84325665D01*
X206048364Y-84396909D01*
X205929890Y-84445983D01*
X205846042Y-84462661D01*
X205804119Y-84471000D01*
X205675881Y-84471000D01*
X205633958Y-84462661D01*
X205550110Y-84445983D01*
X205431636Y-84396909D01*
X205325012Y-84325665D01*
X205234335Y-84234988D01*
X205163091Y-84128364D01*
X205114017Y-84009890D01*
X205089000Y-83884118D01*
X205089000Y-83755882D01*
X205114017Y-83630110D01*
X205163091Y-83511636D01*
X205234335Y-83405012D01*
X205325012Y-83314335D01*
X205431636Y-83243091D01*
X205550110Y-83194017D01*
X205633958Y-83177339D01*
X205675881Y-83169000D01*
X205804119Y-83169000D01*
X205846042Y-83177339D01*
G37*
G36*
X231250426Y-81653313D02*
G01*
X231402812Y-81683624D01*
X231566784Y-81751544D01*
X231714354Y-81850147D01*
X231839853Y-81975646D01*
X231938456Y-82123216D01*
X232006376Y-82287188D01*
X232041000Y-82461259D01*
X232041000Y-82638741D01*
X232006376Y-82812812D01*
X231938456Y-82976784D01*
X231839853Y-83124354D01*
X231714354Y-83249853D01*
X231566784Y-83348456D01*
X231402812Y-83416376D01*
X231250426Y-83446687D01*
X231228742Y-83451000D01*
X231051258Y-83451000D01*
X231029574Y-83446687D01*
X230877188Y-83416376D01*
X230713216Y-83348456D01*
X230565646Y-83249853D01*
X230440147Y-83124354D01*
X230341544Y-82976784D01*
X230273624Y-82812812D01*
X230239000Y-82638741D01*
X230239000Y-82461259D01*
X230273624Y-82287188D01*
X230341544Y-82123216D01*
X230440147Y-81975646D01*
X230565646Y-81850147D01*
X230713216Y-81751544D01*
X230877188Y-81683624D01*
X231029574Y-81653313D01*
X231051258Y-81649000D01*
X231228742Y-81649000D01*
X231250426Y-81653313D01*
G37*
G36*
X203306042Y-80637339D02*
G01*
X203389890Y-80654017D01*
X203508364Y-80703091D01*
X203614988Y-80774335D01*
X203705665Y-80865012D01*
X203776909Y-80971636D01*
X203825983Y-81090110D01*
X203851000Y-81215882D01*
X203851000Y-81344118D01*
X203825983Y-81469890D01*
X203776909Y-81588364D01*
X203705665Y-81694988D01*
X203614988Y-81785665D01*
X203508364Y-81856909D01*
X203389890Y-81905983D01*
X203306042Y-81922661D01*
X203264119Y-81931000D01*
X203135881Y-81931000D01*
X203093958Y-81922661D01*
X203010110Y-81905983D01*
X202891636Y-81856909D01*
X202785012Y-81785665D01*
X202694335Y-81694988D01*
X202623091Y-81588364D01*
X202574017Y-81469890D01*
X202549000Y-81344118D01*
X202549000Y-81215882D01*
X202574017Y-81090110D01*
X202623091Y-80971636D01*
X202694335Y-80865012D01*
X202785012Y-80774335D01*
X202891636Y-80703091D01*
X203010110Y-80654017D01*
X203093958Y-80637339D01*
X203135881Y-80629000D01*
X203264119Y-80629000D01*
X203306042Y-80637339D01*
G37*
G36*
X232041000Y-80911000D02*
G01*
X230239000Y-80911000D01*
X230239000Y-79109000D01*
X232041000Y-79109000D01*
X232041000Y-80911000D01*
G37*
G36*
X205846042Y-78097339D02*
G01*
X205929890Y-78114017D01*
X206048364Y-78163091D01*
X206154988Y-78234335D01*
X206245665Y-78325012D01*
X206316909Y-78431636D01*
X206365983Y-78550110D01*
X206391000Y-78675882D01*
X206391000Y-78804118D01*
X206365983Y-78929890D01*
X206316909Y-79048364D01*
X206245665Y-79154988D01*
X206154988Y-79245665D01*
X206048364Y-79316909D01*
X205929890Y-79365983D01*
X205846042Y-79382661D01*
X205804119Y-79391000D01*
X205675881Y-79391000D01*
X205633958Y-79382661D01*
X205550110Y-79365983D01*
X205431636Y-79316909D01*
X205325012Y-79245665D01*
X205234335Y-79154988D01*
X205163091Y-79048364D01*
X205114017Y-78929890D01*
X205089000Y-78804118D01*
X205089000Y-78675882D01*
X205114017Y-78550110D01*
X205163091Y-78431636D01*
X205234335Y-78325012D01*
X205325012Y-78234335D01*
X205431636Y-78163091D01*
X205550110Y-78114017D01*
X205633958Y-78097339D01*
X205675881Y-78089000D01*
X205804119Y-78089000D01*
X205846042Y-78097339D01*
G37*
M02*
