G04 #@! TF.GenerationSoftware,KiCad,Pcbnew,(5.1.5-0-10_14)*
G04 #@! TF.CreationDate,2020-02-12T14:54:00+01:00*
G04 #@! TF.ProjectId,EDS_ALARM,4544535f-414c-4415-924d-2e6b69636164,rev?*
G04 #@! TF.SameCoordinates,Original*
G04 #@! TF.FileFunction,Other,User*
%FSLAX46Y46*%
G04 Gerber Fmt 4.6, Leading zero omitted, Abs format (unit mm)*
G04 Created by KiCad (PCBNEW (5.1.5-0-10_14)) date 2020-02-12 14:54:00*
%MOMM*%
%LPD*%
G04 APERTURE LIST*
%ADD10C,0.050000*%
%ADD11C,0.100000*%
G04 APERTURE END LIST*
D10*
X186370000Y-103450000D02*
X184470000Y-103450000D01*
X184470000Y-103450000D02*
X184470000Y-99750000D01*
X184470000Y-99750000D02*
X186370000Y-99750000D01*
X186370000Y-99750000D02*
X186370000Y-103450000D01*
X192820000Y-105550000D02*
X192820000Y-104500000D01*
X190720000Y-105550000D02*
X192820000Y-105550000D01*
X190720000Y-104500000D02*
X190720000Y-105550000D01*
X192820000Y-104500000D02*
X193520000Y-104500000D01*
X190020000Y-104500000D02*
X190720000Y-104500000D01*
X190020000Y-104500000D02*
X188870000Y-103350000D01*
X193520000Y-104500000D02*
X194670000Y-103350000D01*
X188870000Y-103350000D02*
X188870000Y-98700000D01*
X194670000Y-103350000D02*
X194670000Y-98700000D01*
X192820000Y-98700000D02*
X194670000Y-98700000D01*
X192820000Y-97650000D02*
X192820000Y-98700000D01*
X190720000Y-97650000D02*
X192820000Y-97650000D01*
X190720000Y-98700000D02*
X190720000Y-97650000D01*
X188870000Y-98700000D02*
X190720000Y-98700000D01*
X199070000Y-99750000D02*
X199070000Y-103450000D01*
X197170000Y-99750000D02*
X199070000Y-99750000D01*
X197170000Y-103450000D02*
X197170000Y-99750000D01*
X199070000Y-103450000D02*
X197170000Y-103450000D01*
X181040000Y-98700000D02*
X181040000Y-100550000D01*
X181040000Y-100550000D02*
X182090000Y-100550000D01*
X182090000Y-100550000D02*
X182090000Y-102650000D01*
X182090000Y-102650000D02*
X181040000Y-102650000D01*
X181040000Y-102650000D02*
X181040000Y-104500000D01*
X176390000Y-104500000D02*
X181040000Y-104500000D01*
X176390000Y-98700000D02*
X181040000Y-98700000D01*
X175240000Y-103350000D02*
X176390000Y-104500000D01*
X175240000Y-99850000D02*
X176390000Y-98700000D01*
X175240000Y-99850000D02*
X175240000Y-100550000D01*
X175240000Y-102650000D02*
X175240000Y-103350000D01*
X175240000Y-100550000D02*
X174190000Y-100550000D01*
X174190000Y-100550000D02*
X174190000Y-102650000D01*
X174190000Y-102650000D02*
X175240000Y-102650000D01*
X178380000Y-105730000D02*
X178380000Y-107630000D01*
X178380000Y-107630000D02*
X174680000Y-107630000D01*
X174680000Y-107630000D02*
X174680000Y-105730000D01*
X174680000Y-105730000D02*
X178380000Y-105730000D01*
X179650000Y-81600000D02*
X179650000Y-83500000D01*
X179650000Y-83500000D02*
X175950000Y-83500000D01*
X175950000Y-83500000D02*
X175950000Y-81600000D01*
X175950000Y-81600000D02*
X179650000Y-81600000D01*
X175950000Y-77790000D02*
X179650000Y-77790000D01*
X175950000Y-79690000D02*
X175950000Y-77790000D01*
X179650000Y-79690000D02*
X175950000Y-79690000D01*
X179650000Y-77790000D02*
X179650000Y-79690000D01*
X179650000Y-85410000D02*
X179650000Y-87310000D01*
X179650000Y-87310000D02*
X175950000Y-87310000D01*
X175950000Y-87310000D02*
X175950000Y-85410000D01*
X175950000Y-85410000D02*
X179650000Y-85410000D01*
X175950000Y-89220000D02*
X179650000Y-89220000D01*
X175950000Y-91120000D02*
X175950000Y-89220000D01*
X179650000Y-91120000D02*
X175950000Y-91120000D01*
X179650000Y-89220000D02*
X179650000Y-91120000D01*
X179650000Y-93030000D02*
X179650000Y-94930000D01*
X179650000Y-94930000D02*
X175950000Y-94930000D01*
X175950000Y-94930000D02*
X175950000Y-93030000D01*
X175950000Y-93030000D02*
X179650000Y-93030000D01*
X197170000Y-86940000D02*
X197170000Y-83240000D01*
X199070000Y-86940000D02*
X197170000Y-86940000D01*
X199070000Y-83240000D02*
X199070000Y-86940000D01*
X197170000Y-83240000D02*
X199070000Y-83240000D01*
X220290000Y-89347000D02*
X220290000Y-91247000D01*
X220290000Y-91247000D02*
X216590000Y-91247000D01*
X216590000Y-91247000D02*
X216590000Y-89347000D01*
X216590000Y-89347000D02*
X220290000Y-89347000D01*
X197785000Y-93030000D02*
X201485000Y-93030000D01*
X197785000Y-94930000D02*
X197785000Y-93030000D01*
X201485000Y-94930000D02*
X197785000Y-94930000D01*
X201485000Y-93030000D02*
X201485000Y-94930000D01*
X199070000Y-88320000D02*
X199070000Y-92020000D01*
X197170000Y-88320000D02*
X199070000Y-88320000D01*
X197170000Y-92020000D02*
X197170000Y-88320000D01*
X199070000Y-92020000D02*
X197170000Y-92020000D01*
X202880000Y-92020000D02*
X200980000Y-92020000D01*
X200980000Y-92020000D02*
X200980000Y-88320000D01*
X200980000Y-88320000D02*
X202880000Y-88320000D01*
X202880000Y-88320000D02*
X202880000Y-92020000D01*
X195390000Y-107250000D02*
X190690000Y-107250000D01*
X195390000Y-107500000D02*
X195390000Y-107250000D01*
X197390000Y-112950000D02*
X198990000Y-112950000D01*
X197390000Y-115650000D02*
X198990000Y-115650000D01*
X197390000Y-117800000D02*
X197390000Y-115650000D01*
X188690000Y-117800000D02*
X197390000Y-117800000D01*
X198990000Y-107500000D02*
X195390000Y-107500000D01*
X198990000Y-112950000D02*
X198990000Y-115650000D01*
X197390000Y-110200000D02*
X197390000Y-112950000D01*
X197390000Y-110200000D02*
X198990000Y-110200000D01*
X198990000Y-107500000D02*
X198990000Y-110200000D01*
X190690000Y-107500000D02*
X190690000Y-107250000D01*
X187090000Y-107500000D02*
X190690000Y-107500000D01*
X187090000Y-107500000D02*
X187090000Y-110200000D01*
X188690000Y-110200000D02*
X187090000Y-110200000D01*
X188690000Y-110200000D02*
X188690000Y-112950000D01*
X188690000Y-112950000D02*
X187090000Y-112950000D01*
X187090000Y-112950000D02*
X187090000Y-115650000D01*
X188690000Y-115650000D02*
X187090000Y-115650000D01*
X188690000Y-117800000D02*
X188690000Y-115650000D01*
X225530000Y-75670000D02*
X225530000Y-91970000D01*
X225530000Y-91970000D02*
X229130000Y-91970000D01*
X229130000Y-91970000D02*
X229130000Y-75670000D01*
X229130000Y-75670000D02*
X225530000Y-75670000D01*
X204510000Y-88940000D02*
X204510000Y-93940000D01*
X204510000Y-93940000D02*
X209510000Y-93940000D01*
X209510000Y-93940000D02*
X209510000Y-88940000D01*
X209510000Y-88940000D02*
X204510000Y-88940000D01*
X186754000Y-77912000D02*
X186754000Y-76012000D01*
X186754000Y-76012000D02*
X190454000Y-76012000D01*
X190454000Y-76012000D02*
X190454000Y-77912000D01*
X190454000Y-77912000D02*
X186754000Y-77912000D01*
X181460000Y-91140000D02*
X194460000Y-91140000D01*
X181460000Y-91140000D02*
X181460000Y-79040000D01*
X181460000Y-79040000D02*
X194460000Y-79040000D01*
X194460000Y-79040000D02*
X194460000Y-91140000D01*
X179040000Y-105480000D02*
X179040000Y-114280000D01*
X186240000Y-105480000D02*
X179040000Y-105480000D01*
X186240000Y-114280000D02*
X186240000Y-105480000D01*
X179040000Y-114280000D02*
X186240000Y-114280000D01*
X182470000Y-93030000D02*
X185830000Y-93030000D01*
X182470000Y-94930000D02*
X182470000Y-93030000D01*
X185830000Y-94930000D02*
X182470000Y-94930000D01*
X185830000Y-93030000D02*
X185830000Y-94930000D01*
X192180000Y-93030000D02*
X192180000Y-94930000D01*
X192180000Y-94930000D02*
X188820000Y-94930000D01*
X188820000Y-94930000D02*
X188820000Y-93030000D01*
X188820000Y-93030000D02*
X192180000Y-93030000D01*
X221455001Y-77631999D02*
X214655001Y-77631999D01*
X214655001Y-87731999D02*
X221455001Y-87731999D01*
X221455001Y-87731999D02*
X221455001Y-77631999D01*
X214655001Y-87731999D02*
X214655001Y-77631999D01*
D11*
X199610000Y-115560000D02*
X210810000Y-115560000D01*
X210810000Y-115560000D02*
X210810000Y-104360000D01*
X210810000Y-104360000D02*
X199610000Y-104360000D01*
X199610000Y-104360000D02*
X199610000Y-115560000D01*
M02*
