G04 #@! TF.GenerationSoftware,KiCad,Pcbnew,(5.1.5-0-10_14)*
G04 #@! TF.CreationDate,2020-02-14T11:25:06+01:00*
G04 #@! TF.ProjectId,EDS_ALARM,4544535f-414c-4415-924d-2e6b69636164,rev?*
G04 #@! TF.SameCoordinates,Original*
G04 #@! TF.FileFunction,Copper,L2,Bot*
G04 #@! TF.FilePolarity,Positive*
%FSLAX46Y46*%
G04 Gerber Fmt 4.6, Leading zero omitted, Abs format (unit mm)*
G04 Created by KiCad (PCBNEW (5.1.5-0-10_14)) date 2020-02-14 11:25:06*
%MOMM*%
%LPD*%
G04 APERTURE LIST*
%ADD10C,0.300000*%
%ADD11C,1.200000*%
%ADD12C,1.300000*%
%ADD13R,1.700000X1.700000*%
%ADD14O,1.700000X1.700000*%
%ADD15C,0.800000*%
%ADD16C,0.200000*%
%ADD17C,0.254000*%
G04 APERTURE END LIST*
D10*
X209501428Y-93158571D02*
X209501428Y-94230000D01*
X209572857Y-94444285D01*
X209715714Y-94587142D01*
X209930000Y-94658571D01*
X210072857Y-94658571D01*
X208215714Y-94587142D02*
X208358571Y-94658571D01*
X208644285Y-94658571D01*
X208787142Y-94587142D01*
X208858571Y-94444285D01*
X208858571Y-93872857D01*
X208787142Y-93730000D01*
X208644285Y-93658571D01*
X208358571Y-93658571D01*
X208215714Y-93730000D01*
X208144285Y-93872857D01*
X208144285Y-94015714D01*
X208858571Y-94158571D01*
X206858571Y-94658571D02*
X206858571Y-93872857D01*
X206930000Y-93730000D01*
X207072857Y-93658571D01*
X207358571Y-93658571D01*
X207501428Y-93730000D01*
X206858571Y-94587142D02*
X207001428Y-94658571D01*
X207358571Y-94658571D01*
X207501428Y-94587142D01*
X207572857Y-94444285D01*
X207572857Y-94301428D01*
X207501428Y-94158571D01*
X207358571Y-94087142D01*
X207001428Y-94087142D01*
X206858571Y-94015714D01*
X206144285Y-93658571D02*
X206144285Y-94658571D01*
X206144285Y-93801428D02*
X206072857Y-93730000D01*
X205930000Y-93658571D01*
X205715714Y-93658571D01*
X205572857Y-93730000D01*
X205501428Y-93872857D01*
X205501428Y-94658571D01*
X203644285Y-94658571D02*
X203644285Y-93158571D01*
X203287142Y-93158571D01*
X203072857Y-93230000D01*
X202930000Y-93372857D01*
X202858571Y-93515714D01*
X202787142Y-93801428D01*
X202787142Y-94015714D01*
X202858571Y-94301428D01*
X202930000Y-94444285D01*
X203072857Y-94587142D01*
X203287142Y-94658571D01*
X203644285Y-94658571D01*
X201501428Y-93658571D02*
X201501428Y-94658571D01*
X202144285Y-93658571D02*
X202144285Y-94444285D01*
X202072857Y-94587142D01*
X201930000Y-94658571D01*
X201715714Y-94658571D01*
X201572857Y-94587142D01*
X201501428Y-94515714D01*
X200787142Y-94658571D02*
X200787142Y-93658571D01*
X200787142Y-93801428D02*
X200715714Y-93730000D01*
X200572857Y-93658571D01*
X200358571Y-93658571D01*
X200215714Y-93730000D01*
X200144285Y-93872857D01*
X200144285Y-94658571D01*
X200144285Y-93872857D02*
X200072857Y-93730000D01*
X199930000Y-93658571D01*
X199715714Y-93658571D01*
X199572857Y-93730000D01*
X199501428Y-93872857D01*
X199501428Y-94658571D01*
X198572857Y-94658571D02*
X198715714Y-94587142D01*
X198787142Y-94515714D01*
X198858571Y-94372857D01*
X198858571Y-93944285D01*
X198787142Y-93801428D01*
X198715714Y-93730000D01*
X198572857Y-93658571D01*
X198358571Y-93658571D01*
X198215714Y-93730000D01*
X198144285Y-93801428D01*
X198072857Y-93944285D01*
X198072857Y-94372857D01*
X198144285Y-94515714D01*
X198215714Y-94587142D01*
X198358571Y-94658571D01*
X198572857Y-94658571D01*
X196787142Y-93658571D02*
X196787142Y-94658571D01*
X197430000Y-93658571D02*
X197430000Y-94444285D01*
X197358571Y-94587142D01*
X197215714Y-94658571D01*
X197001428Y-94658571D01*
X196858571Y-94587142D01*
X196787142Y-94515714D01*
X195858571Y-94658571D02*
X196001428Y-94587142D01*
X196072857Y-94444285D01*
X196072857Y-93158571D01*
X195287142Y-94658571D02*
X195287142Y-93658571D01*
X195287142Y-93158571D02*
X195358571Y-93230000D01*
X195287142Y-93301428D01*
X195215714Y-93230000D01*
X195287142Y-93158571D01*
X195287142Y-93301428D01*
X194572857Y-93658571D02*
X194572857Y-94658571D01*
X194572857Y-93801428D02*
X194501428Y-93730000D01*
X194358571Y-93658571D01*
X194144285Y-93658571D01*
X194001428Y-93730000D01*
X193930000Y-93872857D01*
X193930000Y-94658571D01*
X217287142Y-90420000D02*
X216572857Y-90420000D01*
X217430000Y-90848571D02*
X216930000Y-89348571D01*
X216430000Y-90848571D01*
X215715714Y-90848571D02*
X215858571Y-90777142D01*
X215930000Y-90634285D01*
X215930000Y-89348571D01*
X215358571Y-89848571D02*
X214787142Y-89848571D01*
X215144285Y-90848571D02*
X215144285Y-89562857D01*
X215072857Y-89420000D01*
X214930000Y-89348571D01*
X214787142Y-89348571D01*
X214287142Y-90848571D02*
X214287142Y-89848571D01*
X214287142Y-90134285D02*
X214215714Y-89991428D01*
X214144285Y-89920000D01*
X214001428Y-89848571D01*
X213858571Y-89848571D01*
X212787142Y-90777142D02*
X212930000Y-90848571D01*
X213215714Y-90848571D01*
X213358571Y-90777142D01*
X213430000Y-90634285D01*
X213430000Y-90062857D01*
X213358571Y-89920000D01*
X213215714Y-89848571D01*
X212930000Y-89848571D01*
X212787142Y-89920000D01*
X212715714Y-90062857D01*
X212715714Y-90205714D01*
X213430000Y-90348571D01*
X211430000Y-90848571D02*
X211430000Y-89348571D01*
X211430000Y-90777142D02*
X211572857Y-90848571D01*
X211858571Y-90848571D01*
X212001428Y-90777142D01*
X212072857Y-90705714D01*
X212144285Y-90562857D01*
X212144285Y-90134285D01*
X212072857Y-89991428D01*
X212001428Y-89920000D01*
X211858571Y-89848571D01*
X211572857Y-89848571D01*
X211430000Y-89920000D01*
X210501428Y-90848571D02*
X210644285Y-90777142D01*
X210715714Y-90705714D01*
X210787142Y-90562857D01*
X210787142Y-90134285D01*
X210715714Y-89991428D01*
X210644285Y-89920000D01*
X210501428Y-89848571D01*
X210287142Y-89848571D01*
X210144285Y-89920000D01*
X210072857Y-89991428D01*
X210001428Y-90134285D01*
X210001428Y-90562857D01*
X210072857Y-90705714D01*
X210144285Y-90777142D01*
X210287142Y-90848571D01*
X210501428Y-90848571D01*
X208215714Y-90848571D02*
X208215714Y-89348571D01*
X207715714Y-90420000D01*
X207215714Y-89348571D01*
X207215714Y-90848571D01*
X205858571Y-90848571D02*
X205858571Y-90062857D01*
X205930000Y-89920000D01*
X206072857Y-89848571D01*
X206358571Y-89848571D01*
X206501428Y-89920000D01*
X205858571Y-90777142D02*
X206001428Y-90848571D01*
X206358571Y-90848571D01*
X206501428Y-90777142D01*
X206572857Y-90634285D01*
X206572857Y-90491428D01*
X206501428Y-90348571D01*
X206358571Y-90277142D01*
X206001428Y-90277142D01*
X205858571Y-90205714D01*
X205144285Y-90848571D02*
X205144285Y-89848571D01*
X205144285Y-90134285D02*
X205072857Y-89991428D01*
X205001428Y-89920000D01*
X204858571Y-89848571D01*
X204715714Y-89848571D01*
X204430000Y-89848571D02*
X203858571Y-89848571D01*
X204215714Y-89348571D02*
X204215714Y-90634285D01*
X204144285Y-90777142D01*
X204001428Y-90848571D01*
X203858571Y-90848571D01*
X203358571Y-90848571D02*
X203358571Y-89848571D01*
X203358571Y-89348571D02*
X203430000Y-89420000D01*
X203358571Y-89491428D01*
X203287142Y-89420000D01*
X203358571Y-89348571D01*
X203358571Y-89491428D01*
X202644285Y-89848571D02*
X202644285Y-90848571D01*
X202644285Y-89991428D02*
X202572857Y-89920000D01*
X202430000Y-89848571D01*
X202215714Y-89848571D01*
X202072857Y-89920000D01*
X202001428Y-90062857D01*
X202001428Y-90848571D01*
X200715714Y-90777142D02*
X200858571Y-90848571D01*
X201144285Y-90848571D01*
X201287142Y-90777142D01*
X201358571Y-90634285D01*
X201358571Y-90062857D01*
X201287142Y-89920000D01*
X201144285Y-89848571D01*
X200858571Y-89848571D01*
X200715714Y-89920000D01*
X200644285Y-90062857D01*
X200644285Y-90205714D01*
X201358571Y-90348571D01*
X200144285Y-89848571D02*
X199358571Y-89848571D01*
X200144285Y-90848571D01*
X199358571Y-90848571D01*
X197644285Y-90848571D02*
X197644285Y-89348571D01*
X197644285Y-90062857D02*
X196787142Y-90062857D01*
X196787142Y-90848571D02*
X196787142Y-89348571D01*
X195501428Y-90777142D02*
X195644285Y-90848571D01*
X195930000Y-90848571D01*
X196072857Y-90777142D01*
X196144285Y-90634285D01*
X196144285Y-90062857D01*
X196072857Y-89920000D01*
X195930000Y-89848571D01*
X195644285Y-89848571D01*
X195501428Y-89920000D01*
X195430000Y-90062857D01*
X195430000Y-90205714D01*
X196144285Y-90348571D01*
X194787142Y-90848571D02*
X194787142Y-89848571D01*
X194787142Y-90134285D02*
X194715714Y-89991428D01*
X194644285Y-89920000D01*
X194501428Y-89848571D01*
X194358571Y-89848571D01*
X193858571Y-89848571D02*
X193858571Y-90848571D01*
X193858571Y-89991428D02*
X193787142Y-89920000D01*
X193644285Y-89848571D01*
X193430000Y-89848571D01*
X193287142Y-89920000D01*
X193215714Y-90062857D01*
X193215714Y-90848571D01*
X191858571Y-90848571D02*
X191858571Y-90062857D01*
X191930000Y-89920000D01*
X192072857Y-89848571D01*
X192358571Y-89848571D01*
X192501428Y-89920000D01*
X191858571Y-90777142D02*
X192001428Y-90848571D01*
X192358571Y-90848571D01*
X192501428Y-90777142D01*
X192572857Y-90634285D01*
X192572857Y-90491428D01*
X192501428Y-90348571D01*
X192358571Y-90277142D01*
X192001428Y-90277142D01*
X191858571Y-90205714D01*
X191144285Y-89848571D02*
X191144285Y-90848571D01*
X191144285Y-89991428D02*
X191072857Y-89920000D01*
X190930000Y-89848571D01*
X190715714Y-89848571D01*
X190572857Y-89920000D01*
X190501428Y-90062857D01*
X190501428Y-90848571D01*
X189144285Y-90848571D02*
X189144285Y-89348571D01*
X189144285Y-90777142D02*
X189287142Y-90848571D01*
X189572857Y-90848571D01*
X189715714Y-90777142D01*
X189787142Y-90705714D01*
X189858571Y-90562857D01*
X189858571Y-90134285D01*
X189787142Y-89991428D01*
X189715714Y-89920000D01*
X189572857Y-89848571D01*
X189287142Y-89848571D01*
X189144285Y-89920000D01*
X187858571Y-90777142D02*
X188001428Y-90848571D01*
X188287142Y-90848571D01*
X188430000Y-90777142D01*
X188501428Y-90634285D01*
X188501428Y-90062857D01*
X188430000Y-89920000D01*
X188287142Y-89848571D01*
X188001428Y-89848571D01*
X187858571Y-89920000D01*
X187787142Y-90062857D01*
X187787142Y-90205714D01*
X188501428Y-90348571D01*
X187287142Y-89848571D02*
X186501428Y-89848571D01*
X187287142Y-90848571D01*
X186501428Y-90848571D01*
D11*
X205740000Y-78740000D03*
X203200000Y-81280000D03*
X205740000Y-83820000D03*
D12*
X207010000Y-111760000D03*
X207010000Y-108160000D03*
X203410000Y-108160000D03*
X203410000Y-111760000D03*
D13*
X231140000Y-80010000D03*
D14*
X231140000Y-82550000D03*
X231140000Y-85090000D03*
X231140000Y-87630000D03*
X231140000Y-90170000D03*
D13*
X173990000Y-114300000D03*
D14*
X173990000Y-111760000D03*
D15*
X179832000Y-90932000D03*
X181546500Y-92521000D03*
X180721000Y-91821000D03*
X188722000Y-87884000D03*
X217043000Y-88519000D03*
D16*
X175040000Y-114300000D02*
X173990000Y-114300000D01*
X176276000Y-113064000D02*
X175040000Y-114300000D01*
X181546500Y-92521000D02*
X176276000Y-97791500D01*
X176276000Y-97791500D02*
X176276000Y-113064000D01*
X173990000Y-103759000D02*
X173990000Y-111760000D01*
X180721000Y-91821000D02*
X173990000Y-98552000D01*
X173990000Y-98552000D02*
X173990000Y-103759000D01*
X188722000Y-87884000D02*
X216408000Y-87884000D01*
X216408000Y-87884000D02*
X217043000Y-88519000D01*
D17*
G36*
X234265001Y-116155000D02*
G01*
X172135000Y-116155000D01*
X172135000Y-113450000D01*
X172501928Y-113450000D01*
X172501928Y-115150000D01*
X172514188Y-115274482D01*
X172550498Y-115394180D01*
X172609463Y-115504494D01*
X172688815Y-115601185D01*
X172785506Y-115680537D01*
X172895820Y-115739502D01*
X173015518Y-115775812D01*
X173140000Y-115788072D01*
X174840000Y-115788072D01*
X174964482Y-115775812D01*
X175084180Y-115739502D01*
X175194494Y-115680537D01*
X175291185Y-115601185D01*
X175370537Y-115504494D01*
X175429502Y-115394180D01*
X175465812Y-115274482D01*
X175478072Y-115150000D01*
X175478072Y-114891311D01*
X175562238Y-114822238D01*
X175585258Y-114794188D01*
X176770193Y-113609254D01*
X176798238Y-113586238D01*
X176890087Y-113474320D01*
X176958337Y-113346633D01*
X177000365Y-113208085D01*
X177011000Y-113100105D01*
X177014556Y-113064000D01*
X177011000Y-113027895D01*
X177011000Y-112645527D01*
X202704078Y-112645527D01*
X202757466Y-112874201D01*
X202987374Y-112980095D01*
X203233524Y-113039102D01*
X203486455Y-113048952D01*
X203736449Y-113009270D01*
X203973896Y-112921578D01*
X204062534Y-112874201D01*
X204115922Y-112645527D01*
X203410000Y-111939605D01*
X202704078Y-112645527D01*
X177011000Y-112645527D01*
X177011000Y-111338212D01*
X189705000Y-111338212D01*
X189705000Y-111561788D01*
X189748617Y-111781067D01*
X189834176Y-111987624D01*
X189958388Y-112173520D01*
X190116480Y-112331612D01*
X190302376Y-112455824D01*
X190508933Y-112541383D01*
X190728212Y-112585000D01*
X190951788Y-112585000D01*
X191171067Y-112541383D01*
X191377624Y-112455824D01*
X191563520Y-112331612D01*
X191721612Y-112173520D01*
X191845824Y-111987624D01*
X191931383Y-111781067D01*
X191975000Y-111561788D01*
X191975000Y-111338212D01*
X194105000Y-111338212D01*
X194105000Y-111561788D01*
X194148617Y-111781067D01*
X194234176Y-111987624D01*
X194358388Y-112173520D01*
X194516480Y-112331612D01*
X194702376Y-112455824D01*
X194908933Y-112541383D01*
X195128212Y-112585000D01*
X195351788Y-112585000D01*
X195571067Y-112541383D01*
X195777624Y-112455824D01*
X195963520Y-112331612D01*
X196121612Y-112173520D01*
X196245824Y-111987624D01*
X196308440Y-111836455D01*
X202121048Y-111836455D01*
X202160730Y-112086449D01*
X202248422Y-112323896D01*
X202295799Y-112412534D01*
X202524473Y-112465922D01*
X203230395Y-111760000D01*
X203589605Y-111760000D01*
X204295527Y-112465922D01*
X204524201Y-112412534D01*
X204630095Y-112182626D01*
X204689102Y-111936476D01*
X204698952Y-111683545D01*
X204690999Y-111633439D01*
X205725000Y-111633439D01*
X205725000Y-111886561D01*
X205774381Y-112134821D01*
X205871247Y-112368676D01*
X206011875Y-112579140D01*
X206190860Y-112758125D01*
X206401324Y-112898753D01*
X206635179Y-112995619D01*
X206883439Y-113045000D01*
X207136561Y-113045000D01*
X207384821Y-112995619D01*
X207618676Y-112898753D01*
X207829140Y-112758125D01*
X208008125Y-112579140D01*
X208148753Y-112368676D01*
X208245619Y-112134821D01*
X208295000Y-111886561D01*
X208295000Y-111633439D01*
X208245619Y-111385179D01*
X208148753Y-111151324D01*
X208008125Y-110940860D01*
X207829140Y-110761875D01*
X207618676Y-110621247D01*
X207384821Y-110524381D01*
X207136561Y-110475000D01*
X206883439Y-110475000D01*
X206635179Y-110524381D01*
X206401324Y-110621247D01*
X206190860Y-110761875D01*
X206011875Y-110940860D01*
X205871247Y-111151324D01*
X205774381Y-111385179D01*
X205725000Y-111633439D01*
X204690999Y-111633439D01*
X204659270Y-111433551D01*
X204571578Y-111196104D01*
X204524201Y-111107466D01*
X204295527Y-111054078D01*
X203589605Y-111760000D01*
X203230395Y-111760000D01*
X202524473Y-111054078D01*
X202295799Y-111107466D01*
X202189905Y-111337374D01*
X202130898Y-111583524D01*
X202121048Y-111836455D01*
X196308440Y-111836455D01*
X196331383Y-111781067D01*
X196375000Y-111561788D01*
X196375000Y-111338212D01*
X196331383Y-111118933D01*
X196245824Y-110912376D01*
X196220498Y-110874473D01*
X202704078Y-110874473D01*
X203410000Y-111580395D01*
X204115922Y-110874473D01*
X204062534Y-110645799D01*
X203832626Y-110539905D01*
X203586476Y-110480898D01*
X203333545Y-110471048D01*
X203083551Y-110510730D01*
X202846104Y-110598422D01*
X202757466Y-110645799D01*
X202704078Y-110874473D01*
X196220498Y-110874473D01*
X196121612Y-110726480D01*
X195963520Y-110568388D01*
X195777624Y-110444176D01*
X195571067Y-110358617D01*
X195351788Y-110315000D01*
X195128212Y-110315000D01*
X194908933Y-110358617D01*
X194702376Y-110444176D01*
X194516480Y-110568388D01*
X194358388Y-110726480D01*
X194234176Y-110912376D01*
X194148617Y-111118933D01*
X194105000Y-111338212D01*
X191975000Y-111338212D01*
X191931383Y-111118933D01*
X191845824Y-110912376D01*
X191721612Y-110726480D01*
X191563520Y-110568388D01*
X191377624Y-110444176D01*
X191171067Y-110358617D01*
X190951788Y-110315000D01*
X190728212Y-110315000D01*
X190508933Y-110358617D01*
X190302376Y-110444176D01*
X190116480Y-110568388D01*
X189958388Y-110726480D01*
X189834176Y-110912376D01*
X189748617Y-111118933D01*
X189705000Y-111338212D01*
X177011000Y-111338212D01*
X177011000Y-108033439D01*
X202125000Y-108033439D01*
X202125000Y-108286561D01*
X202174381Y-108534821D01*
X202271247Y-108768676D01*
X202411875Y-108979140D01*
X202590860Y-109158125D01*
X202801324Y-109298753D01*
X203035179Y-109395619D01*
X203283439Y-109445000D01*
X203536561Y-109445000D01*
X203784821Y-109395619D01*
X204018676Y-109298753D01*
X204229140Y-109158125D01*
X204408125Y-108979140D01*
X204548753Y-108768676D01*
X204645619Y-108534821D01*
X204695000Y-108286561D01*
X204695000Y-108033439D01*
X205725000Y-108033439D01*
X205725000Y-108286561D01*
X205774381Y-108534821D01*
X205871247Y-108768676D01*
X206011875Y-108979140D01*
X206190860Y-109158125D01*
X206401324Y-109298753D01*
X206635179Y-109395619D01*
X206883439Y-109445000D01*
X207136561Y-109445000D01*
X207384821Y-109395619D01*
X207618676Y-109298753D01*
X207829140Y-109158125D01*
X208008125Y-108979140D01*
X208148753Y-108768676D01*
X208245619Y-108534821D01*
X208295000Y-108286561D01*
X208295000Y-108033439D01*
X208245619Y-107785179D01*
X208148753Y-107551324D01*
X208008125Y-107340860D01*
X207829140Y-107161875D01*
X207618676Y-107021247D01*
X207384821Y-106924381D01*
X207136561Y-106875000D01*
X206883439Y-106875000D01*
X206635179Y-106924381D01*
X206401324Y-107021247D01*
X206190860Y-107161875D01*
X206011875Y-107340860D01*
X205871247Y-107551324D01*
X205774381Y-107785179D01*
X205725000Y-108033439D01*
X204695000Y-108033439D01*
X204645619Y-107785179D01*
X204548753Y-107551324D01*
X204408125Y-107340860D01*
X204229140Y-107161875D01*
X204018676Y-107021247D01*
X203784821Y-106924381D01*
X203536561Y-106875000D01*
X203283439Y-106875000D01*
X203035179Y-106924381D01*
X202801324Y-107021247D01*
X202590860Y-107161875D01*
X202411875Y-107340860D01*
X202271247Y-107551324D01*
X202174381Y-107785179D01*
X202125000Y-108033439D01*
X177011000Y-108033439D01*
X177011000Y-98095946D01*
X181550947Y-93556000D01*
X181648439Y-93556000D01*
X181848398Y-93516226D01*
X182036756Y-93438205D01*
X182206274Y-93324937D01*
X182350437Y-93180774D01*
X182463705Y-93011256D01*
X182541726Y-92822898D01*
X182581500Y-92622939D01*
X182581500Y-92419061D01*
X182541726Y-92219102D01*
X182463705Y-92030744D01*
X182350437Y-91861226D01*
X182206274Y-91717063D01*
X182036756Y-91603795D01*
X181848398Y-91525774D01*
X181707370Y-91497722D01*
X181638205Y-91330744D01*
X181524937Y-91161226D01*
X181380774Y-91017063D01*
X181211256Y-90903795D01*
X181022898Y-90825774D01*
X180822939Y-90786000D01*
X180619061Y-90786000D01*
X180419102Y-90825774D01*
X180230744Y-90903795D01*
X180061226Y-91017063D01*
X179917063Y-91161226D01*
X179803795Y-91330744D01*
X179725774Y-91519102D01*
X179686000Y-91719061D01*
X179686000Y-91816553D01*
X173495808Y-98006746D01*
X173467762Y-98029763D01*
X173375913Y-98141681D01*
X173307663Y-98269368D01*
X173294204Y-98313737D01*
X173265635Y-98407915D01*
X173251444Y-98552000D01*
X173255000Y-98588105D01*
X173255001Y-103722886D01*
X173255000Y-103722896D01*
X173255001Y-110465117D01*
X173043368Y-110606525D01*
X172836525Y-110813368D01*
X172674010Y-111056589D01*
X172562068Y-111326842D01*
X172505000Y-111613740D01*
X172505000Y-111906260D01*
X172562068Y-112193158D01*
X172674010Y-112463411D01*
X172836525Y-112706632D01*
X172968380Y-112838487D01*
X172895820Y-112860498D01*
X172785506Y-112919463D01*
X172688815Y-112998815D01*
X172609463Y-113095506D01*
X172550498Y-113205820D01*
X172514188Y-113325518D01*
X172501928Y-113450000D01*
X172135000Y-113450000D01*
X172135000Y-88380000D01*
X185502143Y-88380000D01*
X185502143Y-92200000D01*
X192787857Y-92200000D01*
X192787857Y-96010000D01*
X211072143Y-96010000D01*
X211072143Y-92200000D01*
X218357857Y-92200000D01*
X218357857Y-88380000D01*
X218070628Y-88380000D01*
X218038226Y-88217102D01*
X217960205Y-88028744D01*
X217846937Y-87859226D01*
X217702774Y-87715063D01*
X217533256Y-87601795D01*
X217344898Y-87523774D01*
X217144939Y-87484000D01*
X217047446Y-87484000D01*
X217047186Y-87483740D01*
X229655000Y-87483740D01*
X229655000Y-87776260D01*
X229712068Y-88063158D01*
X229824010Y-88333411D01*
X229986525Y-88576632D01*
X230193368Y-88783475D01*
X230367760Y-88900000D01*
X230193368Y-89016525D01*
X229986525Y-89223368D01*
X229824010Y-89466589D01*
X229712068Y-89736842D01*
X229655000Y-90023740D01*
X229655000Y-90316260D01*
X229712068Y-90603158D01*
X229824010Y-90873411D01*
X229986525Y-91116632D01*
X230193368Y-91323475D01*
X230436589Y-91485990D01*
X230706842Y-91597932D01*
X230993740Y-91655000D01*
X231286260Y-91655000D01*
X231573158Y-91597932D01*
X231843411Y-91485990D01*
X232086632Y-91323475D01*
X232293475Y-91116632D01*
X232455990Y-90873411D01*
X232567932Y-90603158D01*
X232625000Y-90316260D01*
X232625000Y-90023740D01*
X232567932Y-89736842D01*
X232455990Y-89466589D01*
X232293475Y-89223368D01*
X232086632Y-89016525D01*
X231912240Y-88900000D01*
X232086632Y-88783475D01*
X232293475Y-88576632D01*
X232455990Y-88333411D01*
X232567932Y-88063158D01*
X232625000Y-87776260D01*
X232625000Y-87483740D01*
X232567932Y-87196842D01*
X232455990Y-86926589D01*
X232293475Y-86683368D01*
X232086632Y-86476525D01*
X231904466Y-86354805D01*
X232021355Y-86285178D01*
X232237588Y-86090269D01*
X232411641Y-85856920D01*
X232536825Y-85594099D01*
X232581476Y-85446890D01*
X232460155Y-85217000D01*
X231267000Y-85217000D01*
X231267000Y-85237000D01*
X231013000Y-85237000D01*
X231013000Y-85217000D01*
X229819845Y-85217000D01*
X229698524Y-85446890D01*
X229743175Y-85594099D01*
X229868359Y-85856920D01*
X230042412Y-86090269D01*
X230258645Y-86285178D01*
X230375534Y-86354805D01*
X230193368Y-86476525D01*
X229986525Y-86683368D01*
X229824010Y-86926589D01*
X229712068Y-87196842D01*
X229655000Y-87483740D01*
X217047186Y-87483740D01*
X216953258Y-87389812D01*
X216930238Y-87361762D01*
X216818320Y-87269913D01*
X216690633Y-87201663D01*
X216552085Y-87159635D01*
X216444105Y-87149000D01*
X216408000Y-87145444D01*
X216371895Y-87149000D01*
X189450711Y-87149000D01*
X189381774Y-87080063D01*
X189212256Y-86966795D01*
X189023898Y-86888774D01*
X188823939Y-86849000D01*
X188620061Y-86849000D01*
X188420102Y-86888774D01*
X188231744Y-86966795D01*
X188062226Y-87080063D01*
X187918063Y-87224226D01*
X187804795Y-87393744D01*
X187726774Y-87582102D01*
X187687000Y-87782061D01*
X187687000Y-87985939D01*
X187726774Y-88185898D01*
X187804795Y-88374256D01*
X187808633Y-88380000D01*
X185502143Y-88380000D01*
X172135000Y-88380000D01*
X172135000Y-83698363D01*
X204505000Y-83698363D01*
X204505000Y-83941637D01*
X204552460Y-84180236D01*
X204645557Y-84404992D01*
X204780713Y-84607267D01*
X204952733Y-84779287D01*
X205155008Y-84914443D01*
X205379764Y-85007540D01*
X205618363Y-85055000D01*
X205861637Y-85055000D01*
X206100236Y-85007540D01*
X206324992Y-84914443D01*
X206527267Y-84779287D01*
X206699287Y-84607267D01*
X206834443Y-84404992D01*
X206927540Y-84180236D01*
X206975000Y-83941637D01*
X206975000Y-83698363D01*
X206927540Y-83459764D01*
X206834443Y-83235008D01*
X206699287Y-83032733D01*
X206527267Y-82860713D01*
X206324992Y-82725557D01*
X206100236Y-82632460D01*
X205861637Y-82585000D01*
X205618363Y-82585000D01*
X205379764Y-82632460D01*
X205155008Y-82725557D01*
X204952733Y-82860713D01*
X204780713Y-83032733D01*
X204645557Y-83235008D01*
X204552460Y-83459764D01*
X204505000Y-83698363D01*
X172135000Y-83698363D01*
X172135000Y-81158363D01*
X201965000Y-81158363D01*
X201965000Y-81401637D01*
X202012460Y-81640236D01*
X202105557Y-81864992D01*
X202240713Y-82067267D01*
X202412733Y-82239287D01*
X202615008Y-82374443D01*
X202839764Y-82467540D01*
X203078363Y-82515000D01*
X203321637Y-82515000D01*
X203560236Y-82467540D01*
X203784992Y-82374443D01*
X203987267Y-82239287D01*
X204159287Y-82067267D01*
X204294443Y-81864992D01*
X204387540Y-81640236D01*
X204435000Y-81401637D01*
X204435000Y-81158363D01*
X204387540Y-80919764D01*
X204294443Y-80695008D01*
X204159287Y-80492733D01*
X203987267Y-80320713D01*
X203784992Y-80185557D01*
X203560236Y-80092460D01*
X203321637Y-80045000D01*
X203078363Y-80045000D01*
X202839764Y-80092460D01*
X202615008Y-80185557D01*
X202412733Y-80320713D01*
X202240713Y-80492733D01*
X202105557Y-80695008D01*
X202012460Y-80919764D01*
X201965000Y-81158363D01*
X172135000Y-81158363D01*
X172135000Y-79589764D01*
X205069841Y-79589764D01*
X205117148Y-79813348D01*
X205338516Y-79914237D01*
X205575313Y-79970000D01*
X205818438Y-79978495D01*
X206058549Y-79939395D01*
X206286418Y-79854202D01*
X206362852Y-79813348D01*
X206410159Y-79589764D01*
X205740000Y-78919605D01*
X205069841Y-79589764D01*
X172135000Y-79589764D01*
X172135000Y-78818438D01*
X204501505Y-78818438D01*
X204540605Y-79058549D01*
X204625798Y-79286418D01*
X204666652Y-79362852D01*
X204890236Y-79410159D01*
X205560395Y-78740000D01*
X205919605Y-78740000D01*
X206589764Y-79410159D01*
X206813348Y-79362852D01*
X206905798Y-79160000D01*
X229651928Y-79160000D01*
X229651928Y-80860000D01*
X229664188Y-80984482D01*
X229700498Y-81104180D01*
X229759463Y-81214494D01*
X229838815Y-81311185D01*
X229935506Y-81390537D01*
X230045820Y-81449502D01*
X230118380Y-81471513D01*
X229986525Y-81603368D01*
X229824010Y-81846589D01*
X229712068Y-82116842D01*
X229655000Y-82403740D01*
X229655000Y-82696260D01*
X229712068Y-82983158D01*
X229824010Y-83253411D01*
X229986525Y-83496632D01*
X230193368Y-83703475D01*
X230375534Y-83825195D01*
X230258645Y-83894822D01*
X230042412Y-84089731D01*
X229868359Y-84323080D01*
X229743175Y-84585901D01*
X229698524Y-84733110D01*
X229819845Y-84963000D01*
X231013000Y-84963000D01*
X231013000Y-84943000D01*
X231267000Y-84943000D01*
X231267000Y-84963000D01*
X232460155Y-84963000D01*
X232581476Y-84733110D01*
X232536825Y-84585901D01*
X232411641Y-84323080D01*
X232237588Y-84089731D01*
X232021355Y-83894822D01*
X231904466Y-83825195D01*
X232086632Y-83703475D01*
X232293475Y-83496632D01*
X232455990Y-83253411D01*
X232567932Y-82983158D01*
X232625000Y-82696260D01*
X232625000Y-82403740D01*
X232567932Y-82116842D01*
X232455990Y-81846589D01*
X232293475Y-81603368D01*
X232161620Y-81471513D01*
X232234180Y-81449502D01*
X232344494Y-81390537D01*
X232441185Y-81311185D01*
X232520537Y-81214494D01*
X232579502Y-81104180D01*
X232615812Y-80984482D01*
X232628072Y-80860000D01*
X232628072Y-79160000D01*
X232615812Y-79035518D01*
X232579502Y-78915820D01*
X232520537Y-78805506D01*
X232441185Y-78708815D01*
X232344494Y-78629463D01*
X232234180Y-78570498D01*
X232114482Y-78534188D01*
X231990000Y-78521928D01*
X230290000Y-78521928D01*
X230165518Y-78534188D01*
X230045820Y-78570498D01*
X229935506Y-78629463D01*
X229838815Y-78708815D01*
X229759463Y-78805506D01*
X229700498Y-78915820D01*
X229664188Y-79035518D01*
X229651928Y-79160000D01*
X206905798Y-79160000D01*
X206914237Y-79141484D01*
X206970000Y-78904687D01*
X206978495Y-78661562D01*
X206939395Y-78421451D01*
X206854202Y-78193582D01*
X206813348Y-78117148D01*
X206589764Y-78069841D01*
X205919605Y-78740000D01*
X205560395Y-78740000D01*
X204890236Y-78069841D01*
X204666652Y-78117148D01*
X204565763Y-78338516D01*
X204510000Y-78575313D01*
X204501505Y-78818438D01*
X172135000Y-78818438D01*
X172135000Y-77890236D01*
X205069841Y-77890236D01*
X205740000Y-78560395D01*
X206410159Y-77890236D01*
X206362852Y-77666652D01*
X206141484Y-77565763D01*
X205904687Y-77510000D01*
X205661562Y-77501505D01*
X205421451Y-77540605D01*
X205193582Y-77625798D01*
X205117148Y-77666652D01*
X205069841Y-77890236D01*
X172135000Y-77890236D01*
X172135000Y-74345000D01*
X234265000Y-74345000D01*
X234265001Y-116155000D01*
G37*
X234265001Y-116155000D02*
X172135000Y-116155000D01*
X172135000Y-113450000D01*
X172501928Y-113450000D01*
X172501928Y-115150000D01*
X172514188Y-115274482D01*
X172550498Y-115394180D01*
X172609463Y-115504494D01*
X172688815Y-115601185D01*
X172785506Y-115680537D01*
X172895820Y-115739502D01*
X173015518Y-115775812D01*
X173140000Y-115788072D01*
X174840000Y-115788072D01*
X174964482Y-115775812D01*
X175084180Y-115739502D01*
X175194494Y-115680537D01*
X175291185Y-115601185D01*
X175370537Y-115504494D01*
X175429502Y-115394180D01*
X175465812Y-115274482D01*
X175478072Y-115150000D01*
X175478072Y-114891311D01*
X175562238Y-114822238D01*
X175585258Y-114794188D01*
X176770193Y-113609254D01*
X176798238Y-113586238D01*
X176890087Y-113474320D01*
X176958337Y-113346633D01*
X177000365Y-113208085D01*
X177011000Y-113100105D01*
X177014556Y-113064000D01*
X177011000Y-113027895D01*
X177011000Y-112645527D01*
X202704078Y-112645527D01*
X202757466Y-112874201D01*
X202987374Y-112980095D01*
X203233524Y-113039102D01*
X203486455Y-113048952D01*
X203736449Y-113009270D01*
X203973896Y-112921578D01*
X204062534Y-112874201D01*
X204115922Y-112645527D01*
X203410000Y-111939605D01*
X202704078Y-112645527D01*
X177011000Y-112645527D01*
X177011000Y-111338212D01*
X189705000Y-111338212D01*
X189705000Y-111561788D01*
X189748617Y-111781067D01*
X189834176Y-111987624D01*
X189958388Y-112173520D01*
X190116480Y-112331612D01*
X190302376Y-112455824D01*
X190508933Y-112541383D01*
X190728212Y-112585000D01*
X190951788Y-112585000D01*
X191171067Y-112541383D01*
X191377624Y-112455824D01*
X191563520Y-112331612D01*
X191721612Y-112173520D01*
X191845824Y-111987624D01*
X191931383Y-111781067D01*
X191975000Y-111561788D01*
X191975000Y-111338212D01*
X194105000Y-111338212D01*
X194105000Y-111561788D01*
X194148617Y-111781067D01*
X194234176Y-111987624D01*
X194358388Y-112173520D01*
X194516480Y-112331612D01*
X194702376Y-112455824D01*
X194908933Y-112541383D01*
X195128212Y-112585000D01*
X195351788Y-112585000D01*
X195571067Y-112541383D01*
X195777624Y-112455824D01*
X195963520Y-112331612D01*
X196121612Y-112173520D01*
X196245824Y-111987624D01*
X196308440Y-111836455D01*
X202121048Y-111836455D01*
X202160730Y-112086449D01*
X202248422Y-112323896D01*
X202295799Y-112412534D01*
X202524473Y-112465922D01*
X203230395Y-111760000D01*
X203589605Y-111760000D01*
X204295527Y-112465922D01*
X204524201Y-112412534D01*
X204630095Y-112182626D01*
X204689102Y-111936476D01*
X204698952Y-111683545D01*
X204690999Y-111633439D01*
X205725000Y-111633439D01*
X205725000Y-111886561D01*
X205774381Y-112134821D01*
X205871247Y-112368676D01*
X206011875Y-112579140D01*
X206190860Y-112758125D01*
X206401324Y-112898753D01*
X206635179Y-112995619D01*
X206883439Y-113045000D01*
X207136561Y-113045000D01*
X207384821Y-112995619D01*
X207618676Y-112898753D01*
X207829140Y-112758125D01*
X208008125Y-112579140D01*
X208148753Y-112368676D01*
X208245619Y-112134821D01*
X208295000Y-111886561D01*
X208295000Y-111633439D01*
X208245619Y-111385179D01*
X208148753Y-111151324D01*
X208008125Y-110940860D01*
X207829140Y-110761875D01*
X207618676Y-110621247D01*
X207384821Y-110524381D01*
X207136561Y-110475000D01*
X206883439Y-110475000D01*
X206635179Y-110524381D01*
X206401324Y-110621247D01*
X206190860Y-110761875D01*
X206011875Y-110940860D01*
X205871247Y-111151324D01*
X205774381Y-111385179D01*
X205725000Y-111633439D01*
X204690999Y-111633439D01*
X204659270Y-111433551D01*
X204571578Y-111196104D01*
X204524201Y-111107466D01*
X204295527Y-111054078D01*
X203589605Y-111760000D01*
X203230395Y-111760000D01*
X202524473Y-111054078D01*
X202295799Y-111107466D01*
X202189905Y-111337374D01*
X202130898Y-111583524D01*
X202121048Y-111836455D01*
X196308440Y-111836455D01*
X196331383Y-111781067D01*
X196375000Y-111561788D01*
X196375000Y-111338212D01*
X196331383Y-111118933D01*
X196245824Y-110912376D01*
X196220498Y-110874473D01*
X202704078Y-110874473D01*
X203410000Y-111580395D01*
X204115922Y-110874473D01*
X204062534Y-110645799D01*
X203832626Y-110539905D01*
X203586476Y-110480898D01*
X203333545Y-110471048D01*
X203083551Y-110510730D01*
X202846104Y-110598422D01*
X202757466Y-110645799D01*
X202704078Y-110874473D01*
X196220498Y-110874473D01*
X196121612Y-110726480D01*
X195963520Y-110568388D01*
X195777624Y-110444176D01*
X195571067Y-110358617D01*
X195351788Y-110315000D01*
X195128212Y-110315000D01*
X194908933Y-110358617D01*
X194702376Y-110444176D01*
X194516480Y-110568388D01*
X194358388Y-110726480D01*
X194234176Y-110912376D01*
X194148617Y-111118933D01*
X194105000Y-111338212D01*
X191975000Y-111338212D01*
X191931383Y-111118933D01*
X191845824Y-110912376D01*
X191721612Y-110726480D01*
X191563520Y-110568388D01*
X191377624Y-110444176D01*
X191171067Y-110358617D01*
X190951788Y-110315000D01*
X190728212Y-110315000D01*
X190508933Y-110358617D01*
X190302376Y-110444176D01*
X190116480Y-110568388D01*
X189958388Y-110726480D01*
X189834176Y-110912376D01*
X189748617Y-111118933D01*
X189705000Y-111338212D01*
X177011000Y-111338212D01*
X177011000Y-108033439D01*
X202125000Y-108033439D01*
X202125000Y-108286561D01*
X202174381Y-108534821D01*
X202271247Y-108768676D01*
X202411875Y-108979140D01*
X202590860Y-109158125D01*
X202801324Y-109298753D01*
X203035179Y-109395619D01*
X203283439Y-109445000D01*
X203536561Y-109445000D01*
X203784821Y-109395619D01*
X204018676Y-109298753D01*
X204229140Y-109158125D01*
X204408125Y-108979140D01*
X204548753Y-108768676D01*
X204645619Y-108534821D01*
X204695000Y-108286561D01*
X204695000Y-108033439D01*
X205725000Y-108033439D01*
X205725000Y-108286561D01*
X205774381Y-108534821D01*
X205871247Y-108768676D01*
X206011875Y-108979140D01*
X206190860Y-109158125D01*
X206401324Y-109298753D01*
X206635179Y-109395619D01*
X206883439Y-109445000D01*
X207136561Y-109445000D01*
X207384821Y-109395619D01*
X207618676Y-109298753D01*
X207829140Y-109158125D01*
X208008125Y-108979140D01*
X208148753Y-108768676D01*
X208245619Y-108534821D01*
X208295000Y-108286561D01*
X208295000Y-108033439D01*
X208245619Y-107785179D01*
X208148753Y-107551324D01*
X208008125Y-107340860D01*
X207829140Y-107161875D01*
X207618676Y-107021247D01*
X207384821Y-106924381D01*
X207136561Y-106875000D01*
X206883439Y-106875000D01*
X206635179Y-106924381D01*
X206401324Y-107021247D01*
X206190860Y-107161875D01*
X206011875Y-107340860D01*
X205871247Y-107551324D01*
X205774381Y-107785179D01*
X205725000Y-108033439D01*
X204695000Y-108033439D01*
X204645619Y-107785179D01*
X204548753Y-107551324D01*
X204408125Y-107340860D01*
X204229140Y-107161875D01*
X204018676Y-107021247D01*
X203784821Y-106924381D01*
X203536561Y-106875000D01*
X203283439Y-106875000D01*
X203035179Y-106924381D01*
X202801324Y-107021247D01*
X202590860Y-107161875D01*
X202411875Y-107340860D01*
X202271247Y-107551324D01*
X202174381Y-107785179D01*
X202125000Y-108033439D01*
X177011000Y-108033439D01*
X177011000Y-98095946D01*
X181550947Y-93556000D01*
X181648439Y-93556000D01*
X181848398Y-93516226D01*
X182036756Y-93438205D01*
X182206274Y-93324937D01*
X182350437Y-93180774D01*
X182463705Y-93011256D01*
X182541726Y-92822898D01*
X182581500Y-92622939D01*
X182581500Y-92419061D01*
X182541726Y-92219102D01*
X182463705Y-92030744D01*
X182350437Y-91861226D01*
X182206274Y-91717063D01*
X182036756Y-91603795D01*
X181848398Y-91525774D01*
X181707370Y-91497722D01*
X181638205Y-91330744D01*
X181524937Y-91161226D01*
X181380774Y-91017063D01*
X181211256Y-90903795D01*
X181022898Y-90825774D01*
X180822939Y-90786000D01*
X180619061Y-90786000D01*
X180419102Y-90825774D01*
X180230744Y-90903795D01*
X180061226Y-91017063D01*
X179917063Y-91161226D01*
X179803795Y-91330744D01*
X179725774Y-91519102D01*
X179686000Y-91719061D01*
X179686000Y-91816553D01*
X173495808Y-98006746D01*
X173467762Y-98029763D01*
X173375913Y-98141681D01*
X173307663Y-98269368D01*
X173294204Y-98313737D01*
X173265635Y-98407915D01*
X173251444Y-98552000D01*
X173255000Y-98588105D01*
X173255001Y-103722886D01*
X173255000Y-103722896D01*
X173255001Y-110465117D01*
X173043368Y-110606525D01*
X172836525Y-110813368D01*
X172674010Y-111056589D01*
X172562068Y-111326842D01*
X172505000Y-111613740D01*
X172505000Y-111906260D01*
X172562068Y-112193158D01*
X172674010Y-112463411D01*
X172836525Y-112706632D01*
X172968380Y-112838487D01*
X172895820Y-112860498D01*
X172785506Y-112919463D01*
X172688815Y-112998815D01*
X172609463Y-113095506D01*
X172550498Y-113205820D01*
X172514188Y-113325518D01*
X172501928Y-113450000D01*
X172135000Y-113450000D01*
X172135000Y-88380000D01*
X185502143Y-88380000D01*
X185502143Y-92200000D01*
X192787857Y-92200000D01*
X192787857Y-96010000D01*
X211072143Y-96010000D01*
X211072143Y-92200000D01*
X218357857Y-92200000D01*
X218357857Y-88380000D01*
X218070628Y-88380000D01*
X218038226Y-88217102D01*
X217960205Y-88028744D01*
X217846937Y-87859226D01*
X217702774Y-87715063D01*
X217533256Y-87601795D01*
X217344898Y-87523774D01*
X217144939Y-87484000D01*
X217047446Y-87484000D01*
X217047186Y-87483740D01*
X229655000Y-87483740D01*
X229655000Y-87776260D01*
X229712068Y-88063158D01*
X229824010Y-88333411D01*
X229986525Y-88576632D01*
X230193368Y-88783475D01*
X230367760Y-88900000D01*
X230193368Y-89016525D01*
X229986525Y-89223368D01*
X229824010Y-89466589D01*
X229712068Y-89736842D01*
X229655000Y-90023740D01*
X229655000Y-90316260D01*
X229712068Y-90603158D01*
X229824010Y-90873411D01*
X229986525Y-91116632D01*
X230193368Y-91323475D01*
X230436589Y-91485990D01*
X230706842Y-91597932D01*
X230993740Y-91655000D01*
X231286260Y-91655000D01*
X231573158Y-91597932D01*
X231843411Y-91485990D01*
X232086632Y-91323475D01*
X232293475Y-91116632D01*
X232455990Y-90873411D01*
X232567932Y-90603158D01*
X232625000Y-90316260D01*
X232625000Y-90023740D01*
X232567932Y-89736842D01*
X232455990Y-89466589D01*
X232293475Y-89223368D01*
X232086632Y-89016525D01*
X231912240Y-88900000D01*
X232086632Y-88783475D01*
X232293475Y-88576632D01*
X232455990Y-88333411D01*
X232567932Y-88063158D01*
X232625000Y-87776260D01*
X232625000Y-87483740D01*
X232567932Y-87196842D01*
X232455990Y-86926589D01*
X232293475Y-86683368D01*
X232086632Y-86476525D01*
X231904466Y-86354805D01*
X232021355Y-86285178D01*
X232237588Y-86090269D01*
X232411641Y-85856920D01*
X232536825Y-85594099D01*
X232581476Y-85446890D01*
X232460155Y-85217000D01*
X231267000Y-85217000D01*
X231267000Y-85237000D01*
X231013000Y-85237000D01*
X231013000Y-85217000D01*
X229819845Y-85217000D01*
X229698524Y-85446890D01*
X229743175Y-85594099D01*
X229868359Y-85856920D01*
X230042412Y-86090269D01*
X230258645Y-86285178D01*
X230375534Y-86354805D01*
X230193368Y-86476525D01*
X229986525Y-86683368D01*
X229824010Y-86926589D01*
X229712068Y-87196842D01*
X229655000Y-87483740D01*
X217047186Y-87483740D01*
X216953258Y-87389812D01*
X216930238Y-87361762D01*
X216818320Y-87269913D01*
X216690633Y-87201663D01*
X216552085Y-87159635D01*
X216444105Y-87149000D01*
X216408000Y-87145444D01*
X216371895Y-87149000D01*
X189450711Y-87149000D01*
X189381774Y-87080063D01*
X189212256Y-86966795D01*
X189023898Y-86888774D01*
X188823939Y-86849000D01*
X188620061Y-86849000D01*
X188420102Y-86888774D01*
X188231744Y-86966795D01*
X188062226Y-87080063D01*
X187918063Y-87224226D01*
X187804795Y-87393744D01*
X187726774Y-87582102D01*
X187687000Y-87782061D01*
X187687000Y-87985939D01*
X187726774Y-88185898D01*
X187804795Y-88374256D01*
X187808633Y-88380000D01*
X185502143Y-88380000D01*
X172135000Y-88380000D01*
X172135000Y-83698363D01*
X204505000Y-83698363D01*
X204505000Y-83941637D01*
X204552460Y-84180236D01*
X204645557Y-84404992D01*
X204780713Y-84607267D01*
X204952733Y-84779287D01*
X205155008Y-84914443D01*
X205379764Y-85007540D01*
X205618363Y-85055000D01*
X205861637Y-85055000D01*
X206100236Y-85007540D01*
X206324992Y-84914443D01*
X206527267Y-84779287D01*
X206699287Y-84607267D01*
X206834443Y-84404992D01*
X206927540Y-84180236D01*
X206975000Y-83941637D01*
X206975000Y-83698363D01*
X206927540Y-83459764D01*
X206834443Y-83235008D01*
X206699287Y-83032733D01*
X206527267Y-82860713D01*
X206324992Y-82725557D01*
X206100236Y-82632460D01*
X205861637Y-82585000D01*
X205618363Y-82585000D01*
X205379764Y-82632460D01*
X205155008Y-82725557D01*
X204952733Y-82860713D01*
X204780713Y-83032733D01*
X204645557Y-83235008D01*
X204552460Y-83459764D01*
X204505000Y-83698363D01*
X172135000Y-83698363D01*
X172135000Y-81158363D01*
X201965000Y-81158363D01*
X201965000Y-81401637D01*
X202012460Y-81640236D01*
X202105557Y-81864992D01*
X202240713Y-82067267D01*
X202412733Y-82239287D01*
X202615008Y-82374443D01*
X202839764Y-82467540D01*
X203078363Y-82515000D01*
X203321637Y-82515000D01*
X203560236Y-82467540D01*
X203784992Y-82374443D01*
X203987267Y-82239287D01*
X204159287Y-82067267D01*
X204294443Y-81864992D01*
X204387540Y-81640236D01*
X204435000Y-81401637D01*
X204435000Y-81158363D01*
X204387540Y-80919764D01*
X204294443Y-80695008D01*
X204159287Y-80492733D01*
X203987267Y-80320713D01*
X203784992Y-80185557D01*
X203560236Y-80092460D01*
X203321637Y-80045000D01*
X203078363Y-80045000D01*
X202839764Y-80092460D01*
X202615008Y-80185557D01*
X202412733Y-80320713D01*
X202240713Y-80492733D01*
X202105557Y-80695008D01*
X202012460Y-80919764D01*
X201965000Y-81158363D01*
X172135000Y-81158363D01*
X172135000Y-79589764D01*
X205069841Y-79589764D01*
X205117148Y-79813348D01*
X205338516Y-79914237D01*
X205575313Y-79970000D01*
X205818438Y-79978495D01*
X206058549Y-79939395D01*
X206286418Y-79854202D01*
X206362852Y-79813348D01*
X206410159Y-79589764D01*
X205740000Y-78919605D01*
X205069841Y-79589764D01*
X172135000Y-79589764D01*
X172135000Y-78818438D01*
X204501505Y-78818438D01*
X204540605Y-79058549D01*
X204625798Y-79286418D01*
X204666652Y-79362852D01*
X204890236Y-79410159D01*
X205560395Y-78740000D01*
X205919605Y-78740000D01*
X206589764Y-79410159D01*
X206813348Y-79362852D01*
X206905798Y-79160000D01*
X229651928Y-79160000D01*
X229651928Y-80860000D01*
X229664188Y-80984482D01*
X229700498Y-81104180D01*
X229759463Y-81214494D01*
X229838815Y-81311185D01*
X229935506Y-81390537D01*
X230045820Y-81449502D01*
X230118380Y-81471513D01*
X229986525Y-81603368D01*
X229824010Y-81846589D01*
X229712068Y-82116842D01*
X229655000Y-82403740D01*
X229655000Y-82696260D01*
X229712068Y-82983158D01*
X229824010Y-83253411D01*
X229986525Y-83496632D01*
X230193368Y-83703475D01*
X230375534Y-83825195D01*
X230258645Y-83894822D01*
X230042412Y-84089731D01*
X229868359Y-84323080D01*
X229743175Y-84585901D01*
X229698524Y-84733110D01*
X229819845Y-84963000D01*
X231013000Y-84963000D01*
X231013000Y-84943000D01*
X231267000Y-84943000D01*
X231267000Y-84963000D01*
X232460155Y-84963000D01*
X232581476Y-84733110D01*
X232536825Y-84585901D01*
X232411641Y-84323080D01*
X232237588Y-84089731D01*
X232021355Y-83894822D01*
X231904466Y-83825195D01*
X232086632Y-83703475D01*
X232293475Y-83496632D01*
X232455990Y-83253411D01*
X232567932Y-82983158D01*
X232625000Y-82696260D01*
X232625000Y-82403740D01*
X232567932Y-82116842D01*
X232455990Y-81846589D01*
X232293475Y-81603368D01*
X232161620Y-81471513D01*
X232234180Y-81449502D01*
X232344494Y-81390537D01*
X232441185Y-81311185D01*
X232520537Y-81214494D01*
X232579502Y-81104180D01*
X232615812Y-80984482D01*
X232628072Y-80860000D01*
X232628072Y-79160000D01*
X232615812Y-79035518D01*
X232579502Y-78915820D01*
X232520537Y-78805506D01*
X232441185Y-78708815D01*
X232344494Y-78629463D01*
X232234180Y-78570498D01*
X232114482Y-78534188D01*
X231990000Y-78521928D01*
X230290000Y-78521928D01*
X230165518Y-78534188D01*
X230045820Y-78570498D01*
X229935506Y-78629463D01*
X229838815Y-78708815D01*
X229759463Y-78805506D01*
X229700498Y-78915820D01*
X229664188Y-79035518D01*
X229651928Y-79160000D01*
X206905798Y-79160000D01*
X206914237Y-79141484D01*
X206970000Y-78904687D01*
X206978495Y-78661562D01*
X206939395Y-78421451D01*
X206854202Y-78193582D01*
X206813348Y-78117148D01*
X206589764Y-78069841D01*
X205919605Y-78740000D01*
X205560395Y-78740000D01*
X204890236Y-78069841D01*
X204666652Y-78117148D01*
X204565763Y-78338516D01*
X204510000Y-78575313D01*
X204501505Y-78818438D01*
X172135000Y-78818438D01*
X172135000Y-77890236D01*
X205069841Y-77890236D01*
X205740000Y-78560395D01*
X206410159Y-77890236D01*
X206362852Y-77666652D01*
X206141484Y-77565763D01*
X205904687Y-77510000D01*
X205661562Y-77501505D01*
X205421451Y-77540605D01*
X205193582Y-77625798D01*
X205117148Y-77666652D01*
X205069841Y-77890236D01*
X172135000Y-77890236D01*
X172135000Y-74345000D01*
X234265000Y-74345000D01*
X234265001Y-116155000D01*
M02*
