G04 #@! TF.GenerationSoftware,KiCad,Pcbnew,(5.1.5-0-10_14)*
G04 #@! TF.CreationDate,2020-02-12T14:54:00+01:00*
G04 #@! TF.ProjectId,EDS_ALARM,4544535f-414c-4415-924d-2e6b69636164,rev?*
G04 #@! TF.SameCoordinates,Original*
G04 #@! TF.FileFunction,Other,Fab,Top*
%FSLAX46Y46*%
G04 Gerber Fmt 4.6, Leading zero omitted, Abs format (unit mm)*
G04 Created by KiCad (PCBNEW (5.1.5-0-10_14)) date 2020-02-12 14:54:00*
%MOMM*%
%LPD*%
G04 APERTURE LIST*
%ADD10C,0.100000*%
%ADD11C,0.200000*%
%ADD12C,0.150000*%
%ADD13C,0.080000*%
%ADD14C,0.120000*%
%ADD15C,0.254000*%
G04 APERTURE END LIST*
D10*
X186020000Y-102600000D02*
X184820000Y-102600000D01*
X184820000Y-102600000D02*
X184820000Y-100600000D01*
X184820000Y-100600000D02*
X186020000Y-100600000D01*
X186020000Y-100600000D02*
X186020000Y-102600000D01*
X190320000Y-103383956D02*
X190820000Y-103383956D01*
X190570000Y-103633956D02*
X190570000Y-103133956D01*
X193420000Y-104250000D02*
X194420000Y-103250000D01*
X190120000Y-104250000D02*
X189120000Y-103250000D01*
X190120000Y-104250000D02*
X193420000Y-104250000D01*
X194420000Y-103250000D02*
X194420000Y-98950000D01*
X189120000Y-103250000D02*
X189120000Y-98950000D01*
X189120000Y-98950000D02*
X194420000Y-98950000D01*
X194270000Y-101600000D02*
G75*
G03X194270000Y-101600000I-2500000J0D01*
G01*
X198720000Y-100600000D02*
X198720000Y-102600000D01*
X197520000Y-100600000D02*
X198720000Y-100600000D01*
X197520000Y-102600000D02*
X197520000Y-100600000D01*
X198720000Y-102600000D02*
X197520000Y-102600000D01*
X180640000Y-101600000D02*
G75*
G03X180640000Y-101600000I-2500000J0D01*
G01*
X180790000Y-98950000D02*
X180790000Y-104250000D01*
X176490000Y-98950000D02*
X180790000Y-98950000D01*
X176490000Y-104250000D02*
X180790000Y-104250000D01*
X175490000Y-99950000D02*
X175490000Y-103250000D01*
X175490000Y-99950000D02*
X176490000Y-98950000D01*
X175490000Y-103250000D02*
X176490000Y-104250000D01*
X176106044Y-100400000D02*
X176606044Y-100400000D01*
X176356044Y-100150000D02*
X176356044Y-100650000D01*
X177530000Y-106080000D02*
X177530000Y-107280000D01*
X177530000Y-107280000D02*
X175530000Y-107280000D01*
X175530000Y-107280000D02*
X175530000Y-106080000D01*
X175530000Y-106080000D02*
X177530000Y-106080000D01*
X178800000Y-81950000D02*
X178800000Y-83150000D01*
X178800000Y-83150000D02*
X176800000Y-83150000D01*
X176800000Y-83150000D02*
X176800000Y-81950000D01*
X176800000Y-81950000D02*
X178800000Y-81950000D01*
X176800000Y-78140000D02*
X178800000Y-78140000D01*
X176800000Y-79340000D02*
X176800000Y-78140000D01*
X178800000Y-79340000D02*
X176800000Y-79340000D01*
X178800000Y-78140000D02*
X178800000Y-79340000D01*
X178800000Y-85760000D02*
X178800000Y-86960000D01*
X178800000Y-86960000D02*
X176800000Y-86960000D01*
X176800000Y-86960000D02*
X176800000Y-85760000D01*
X176800000Y-85760000D02*
X178800000Y-85760000D01*
X176800000Y-89570000D02*
X178800000Y-89570000D01*
X176800000Y-90770000D02*
X176800000Y-89570000D01*
X178800000Y-90770000D02*
X176800000Y-90770000D01*
X178800000Y-89570000D02*
X178800000Y-90770000D01*
X178800000Y-93380000D02*
X178800000Y-94580000D01*
X178800000Y-94580000D02*
X176800000Y-94580000D01*
X176800000Y-94580000D02*
X176800000Y-93380000D01*
X176800000Y-93380000D02*
X178800000Y-93380000D01*
X197520000Y-86090000D02*
X197520000Y-84090000D01*
X198720000Y-86090000D02*
X197520000Y-86090000D01*
X198720000Y-84090000D02*
X198720000Y-86090000D01*
X197520000Y-84090000D02*
X198720000Y-84090000D01*
X219440000Y-89697000D02*
X219440000Y-90897000D01*
X219440000Y-90897000D02*
X217440000Y-90897000D01*
X217440000Y-90897000D02*
X217440000Y-89697000D01*
X217440000Y-89697000D02*
X219440000Y-89697000D01*
X198635000Y-93380000D02*
X200635000Y-93380000D01*
X198635000Y-94580000D02*
X198635000Y-93380000D01*
X200635000Y-94580000D02*
X198635000Y-94580000D01*
X200635000Y-93380000D02*
X200635000Y-94580000D01*
X198720000Y-89170000D02*
X198720000Y-91170000D01*
X197520000Y-89170000D02*
X198720000Y-89170000D01*
X197520000Y-91170000D02*
X197520000Y-89170000D01*
X198720000Y-91170000D02*
X197520000Y-91170000D01*
X202530000Y-91170000D02*
X201330000Y-91170000D01*
X201330000Y-91170000D02*
X201330000Y-89170000D01*
X201330000Y-89170000D02*
X202530000Y-89170000D01*
X202530000Y-89170000D02*
X202530000Y-91170000D01*
X191440000Y-108600000D02*
X191790000Y-108100000D01*
X196890000Y-117300000D02*
X196890000Y-108100000D01*
X189190000Y-117300000D02*
X196890000Y-117300000D01*
X189190000Y-108100000D02*
X189190000Y-117300000D01*
X189190000Y-108100000D02*
X196890000Y-108100000D01*
X191090000Y-108100000D02*
X191440000Y-108600000D01*
X226695000Y-76200000D02*
X228600000Y-76200000D01*
X228600000Y-76200000D02*
X228600000Y-91440000D01*
X228600000Y-91440000D02*
X226060000Y-91440000D01*
X226060000Y-91440000D02*
X226060000Y-76835000D01*
X226060000Y-76835000D02*
X226695000Y-76200000D01*
X207010000Y-92440000D02*
X207310000Y-92740000D01*
X206710000Y-92740000D02*
X207010000Y-92440000D01*
X207060000Y-91440000D02*
G75*
G03X207060000Y-91440000I-50000J0D01*
G01*
X207135000Y-91440000D02*
G75*
G03X207135000Y-91440000I-125000J0D01*
G01*
X207910000Y-91440000D02*
G75*
G03X207910000Y-91440000I-900000J0D01*
G01*
X205710000Y-90140000D02*
X208310000Y-90140000D01*
X205710000Y-90140000D02*
X205710000Y-92440000D01*
X205710000Y-92440000D02*
X206010000Y-92740000D01*
X208310000Y-90140000D02*
X208310000Y-92740000D01*
X206010000Y-92740000D02*
X208310000Y-92740000D01*
X207210000Y-91440000D02*
G75*
G03X207210000Y-91440000I-200000J0D01*
G01*
X187604000Y-77562000D02*
X187604000Y-76362000D01*
X187604000Y-76362000D02*
X189604000Y-76362000D01*
X189604000Y-76362000D02*
X189604000Y-77562000D01*
X189604000Y-77562000D02*
X187604000Y-77562000D01*
X182710000Y-79290000D02*
X194210000Y-79290000D01*
X194210000Y-79290000D02*
X194210000Y-90890000D01*
X181710000Y-90890000D02*
X194210000Y-90890000D01*
X181710000Y-80290000D02*
X181710000Y-90890000D01*
X182710000Y-79290000D02*
X181710000Y-80290000D01*
X180340000Y-111730000D02*
X179290000Y-110680000D01*
X180340000Y-111730000D02*
X185990000Y-111730000D01*
X179290000Y-110680000D02*
X179290000Y-108030000D01*
X185990000Y-111730000D02*
X185990000Y-108030000D01*
X179290000Y-108030000D02*
X185990000Y-108030000D01*
D11*
X211240000Y-81280000D02*
G75*
G03X211240000Y-81280000I-5500000J0D01*
G01*
X209999000Y-83829000D02*
X210347000Y-84105000D01*
X210231000Y-83452000D02*
X209999000Y-83829000D01*
X210593000Y-83612000D02*
X210231000Y-83452000D01*
D10*
X183150000Y-93380000D02*
X183150000Y-94580000D01*
X185150000Y-93380000D02*
X183150000Y-93380000D01*
X185150000Y-94280000D02*
X185150000Y-93380000D01*
X184850000Y-94580000D02*
X185150000Y-94280000D01*
X183150000Y-94580000D02*
X184850000Y-94580000D01*
X189500000Y-94580000D02*
X191200000Y-94580000D01*
X191200000Y-94580000D02*
X191500000Y-94280000D01*
X191500000Y-94280000D02*
X191500000Y-93380000D01*
X191500000Y-93380000D02*
X189500000Y-93380000D01*
X189500000Y-93380000D02*
X189500000Y-94580000D01*
X215055001Y-85681999D02*
X221055001Y-85681999D01*
X221055001Y-85681999D02*
X221055001Y-79681999D01*
X221055001Y-79681999D02*
X215055001Y-79681999D01*
X215055001Y-79681999D02*
X215055001Y-85681999D01*
X219805715Y-82681999D02*
G75*
G03X219805715Y-82681999I-1750714J0D01*
G01*
D11*
X200610000Y-109960000D02*
X200610000Y-109960000D01*
X209810000Y-109960000D02*
X209810000Y-109960000D01*
D12*
X187522380Y-102719047D02*
X187522380Y-103290476D01*
X187522380Y-103004761D02*
X186522380Y-103004761D01*
X186665238Y-103100000D01*
X186760476Y-103195238D01*
X186808095Y-103290476D01*
X186522380Y-102100000D02*
X186522380Y-102004761D01*
X186570000Y-101909523D01*
X186617619Y-101861904D01*
X186712857Y-101814285D01*
X186903333Y-101766666D01*
X187141428Y-101766666D01*
X187331904Y-101814285D01*
X187427142Y-101861904D01*
X187474761Y-101909523D01*
X187522380Y-102004761D01*
X187522380Y-102100000D01*
X187474761Y-102195238D01*
X187427142Y-102242857D01*
X187331904Y-102290476D01*
X187141428Y-102338095D01*
X186903333Y-102338095D01*
X186712857Y-102290476D01*
X186617619Y-102242857D01*
X186570000Y-102195238D01*
X186522380Y-102100000D01*
X186522380Y-101147619D02*
X186522380Y-101052380D01*
X186570000Y-100957142D01*
X186617619Y-100909523D01*
X186712857Y-100861904D01*
X186903333Y-100814285D01*
X187141428Y-100814285D01*
X187331904Y-100861904D01*
X187427142Y-100909523D01*
X187474761Y-100957142D01*
X187522380Y-101052380D01*
X187522380Y-101147619D01*
X187474761Y-101242857D01*
X187427142Y-101290476D01*
X187331904Y-101338095D01*
X187141428Y-101385714D01*
X186903333Y-101385714D01*
X186712857Y-101338095D01*
X186617619Y-101290476D01*
X186570000Y-101242857D01*
X186522380Y-101147619D01*
X186855714Y-100385714D02*
X187522380Y-100385714D01*
X186950952Y-100385714D02*
X186903333Y-100338095D01*
X186855714Y-100242857D01*
X186855714Y-100100000D01*
X186903333Y-100004761D01*
X186998571Y-99957142D01*
X187522380Y-99957142D01*
D13*
X185598571Y-101683333D02*
X185622380Y-101707142D01*
X185646190Y-101778571D01*
X185646190Y-101826190D01*
X185622380Y-101897619D01*
X185574761Y-101945238D01*
X185527142Y-101969047D01*
X185431904Y-101992857D01*
X185360476Y-101992857D01*
X185265238Y-101969047D01*
X185217619Y-101945238D01*
X185170000Y-101897619D01*
X185146190Y-101826190D01*
X185146190Y-101778571D01*
X185170000Y-101707142D01*
X185193809Y-101683333D01*
X185646190Y-101207142D02*
X185646190Y-101492857D01*
X185646190Y-101350000D02*
X185146190Y-101350000D01*
X185217619Y-101397619D01*
X185265238Y-101445238D01*
X185289047Y-101492857D01*
D12*
X195922380Y-102314285D02*
X195922380Y-102885714D01*
X195922380Y-102600000D02*
X194922380Y-102600000D01*
X195065238Y-102695238D01*
X195160476Y-102790476D01*
X195208095Y-102885714D01*
X194922380Y-101695238D02*
X194922380Y-101600000D01*
X194970000Y-101504761D01*
X195017619Y-101457142D01*
X195112857Y-101409523D01*
X195303333Y-101361904D01*
X195541428Y-101361904D01*
X195731904Y-101409523D01*
X195827142Y-101457142D01*
X195874761Y-101504761D01*
X195922380Y-101600000D01*
X195922380Y-101695238D01*
X195874761Y-101790476D01*
X195827142Y-101838095D01*
X195731904Y-101885714D01*
X195541428Y-101933333D01*
X195303333Y-101933333D01*
X195112857Y-101885714D01*
X195017619Y-101838095D01*
X194970000Y-101790476D01*
X194922380Y-101695238D01*
X195255714Y-100933333D02*
X196255714Y-100933333D01*
X195779523Y-100457142D02*
X195874761Y-100409523D01*
X195922380Y-100314285D01*
X195779523Y-100933333D02*
X195874761Y-100885714D01*
X195922380Y-100790476D01*
X195922380Y-100600000D01*
X195874761Y-100504761D01*
X195779523Y-100457142D01*
X195255714Y-100457142D01*
X192127142Y-101766666D02*
X192174761Y-101814285D01*
X192222380Y-101957142D01*
X192222380Y-102052380D01*
X192174761Y-102195238D01*
X192079523Y-102290476D01*
X191984285Y-102338095D01*
X191793809Y-102385714D01*
X191650952Y-102385714D01*
X191460476Y-102338095D01*
X191365238Y-102290476D01*
X191270000Y-102195238D01*
X191222380Y-102052380D01*
X191222380Y-101957142D01*
X191270000Y-101814285D01*
X191317619Y-101766666D01*
X191317619Y-101385714D02*
X191270000Y-101338095D01*
X191222380Y-101242857D01*
X191222380Y-101004761D01*
X191270000Y-100909523D01*
X191317619Y-100861904D01*
X191412857Y-100814285D01*
X191508095Y-100814285D01*
X191650952Y-100861904D01*
X192222380Y-101433333D01*
X192222380Y-100814285D01*
X200222380Y-102719047D02*
X200222380Y-103290476D01*
X200222380Y-103004761D02*
X199222380Y-103004761D01*
X199365238Y-103100000D01*
X199460476Y-103195238D01*
X199508095Y-103290476D01*
X199222380Y-102100000D02*
X199222380Y-102004761D01*
X199270000Y-101909523D01*
X199317619Y-101861904D01*
X199412857Y-101814285D01*
X199603333Y-101766666D01*
X199841428Y-101766666D01*
X200031904Y-101814285D01*
X200127142Y-101861904D01*
X200174761Y-101909523D01*
X200222380Y-102004761D01*
X200222380Y-102100000D01*
X200174761Y-102195238D01*
X200127142Y-102242857D01*
X200031904Y-102290476D01*
X199841428Y-102338095D01*
X199603333Y-102338095D01*
X199412857Y-102290476D01*
X199317619Y-102242857D01*
X199270000Y-102195238D01*
X199222380Y-102100000D01*
X199222380Y-101147619D02*
X199222380Y-101052380D01*
X199270000Y-100957142D01*
X199317619Y-100909523D01*
X199412857Y-100861904D01*
X199603333Y-100814285D01*
X199841428Y-100814285D01*
X200031904Y-100861904D01*
X200127142Y-100909523D01*
X200174761Y-100957142D01*
X200222380Y-101052380D01*
X200222380Y-101147619D01*
X200174761Y-101242857D01*
X200127142Y-101290476D01*
X200031904Y-101338095D01*
X199841428Y-101385714D01*
X199603333Y-101385714D01*
X199412857Y-101338095D01*
X199317619Y-101290476D01*
X199270000Y-101242857D01*
X199222380Y-101147619D01*
X199555714Y-100385714D02*
X200222380Y-100385714D01*
X199650952Y-100385714D02*
X199603333Y-100338095D01*
X199555714Y-100242857D01*
X199555714Y-100100000D01*
X199603333Y-100004761D01*
X199698571Y-99957142D01*
X200222380Y-99957142D01*
D13*
X198298571Y-101683333D02*
X198322380Y-101707142D01*
X198346190Y-101778571D01*
X198346190Y-101826190D01*
X198322380Y-101897619D01*
X198274761Y-101945238D01*
X198227142Y-101969047D01*
X198131904Y-101992857D01*
X198060476Y-101992857D01*
X197965238Y-101969047D01*
X197917619Y-101945238D01*
X197870000Y-101897619D01*
X197846190Y-101826190D01*
X197846190Y-101778571D01*
X197870000Y-101707142D01*
X197893809Y-101683333D01*
X197846190Y-101516666D02*
X197846190Y-101207142D01*
X198036666Y-101373809D01*
X198036666Y-101302380D01*
X198060476Y-101254761D01*
X198084285Y-101230952D01*
X198131904Y-101207142D01*
X198250952Y-101207142D01*
X198298571Y-101230952D01*
X198322380Y-101254761D01*
X198346190Y-101302380D01*
X198346190Y-101445238D01*
X198322380Y-101492857D01*
X198298571Y-101516666D01*
D12*
X177425714Y-105752380D02*
X176854285Y-105752380D01*
X177140000Y-105752380D02*
X177140000Y-104752380D01*
X177044761Y-104895238D01*
X176949523Y-104990476D01*
X176854285Y-105038095D01*
X178044761Y-104752380D02*
X178140000Y-104752380D01*
X178235238Y-104800000D01*
X178282857Y-104847619D01*
X178330476Y-104942857D01*
X178378095Y-105133333D01*
X178378095Y-105371428D01*
X178330476Y-105561904D01*
X178282857Y-105657142D01*
X178235238Y-105704761D01*
X178140000Y-105752380D01*
X178044761Y-105752380D01*
X177949523Y-105704761D01*
X177901904Y-105657142D01*
X177854285Y-105561904D01*
X177806666Y-105371428D01*
X177806666Y-105133333D01*
X177854285Y-104942857D01*
X177901904Y-104847619D01*
X177949523Y-104800000D01*
X178044761Y-104752380D01*
X178806666Y-105085714D02*
X178806666Y-106085714D01*
X179282857Y-105609523D02*
X179330476Y-105704761D01*
X179425714Y-105752380D01*
X178806666Y-105609523D02*
X178854285Y-105704761D01*
X178949523Y-105752380D01*
X179140000Y-105752380D01*
X179235238Y-105704761D01*
X179282857Y-105609523D01*
X179282857Y-105085714D01*
X177973333Y-101957142D02*
X177925714Y-102004761D01*
X177782857Y-102052380D01*
X177687619Y-102052380D01*
X177544761Y-102004761D01*
X177449523Y-101909523D01*
X177401904Y-101814285D01*
X177354285Y-101623809D01*
X177354285Y-101480952D01*
X177401904Y-101290476D01*
X177449523Y-101195238D01*
X177544761Y-101100000D01*
X177687619Y-101052380D01*
X177782857Y-101052380D01*
X177925714Y-101100000D01*
X177973333Y-101147619D01*
X178830476Y-101385714D02*
X178830476Y-102052380D01*
X178592380Y-101004761D02*
X178354285Y-101719047D01*
X178973333Y-101719047D01*
X175410952Y-105482380D02*
X174839523Y-105482380D01*
X175125238Y-105482380D02*
X175125238Y-104482380D01*
X175030000Y-104625238D01*
X174934761Y-104720476D01*
X174839523Y-104768095D01*
X176030000Y-104482380D02*
X176125238Y-104482380D01*
X176220476Y-104530000D01*
X176268095Y-104577619D01*
X176315714Y-104672857D01*
X176363333Y-104863333D01*
X176363333Y-105101428D01*
X176315714Y-105291904D01*
X176268095Y-105387142D01*
X176220476Y-105434761D01*
X176125238Y-105482380D01*
X176030000Y-105482380D01*
X175934761Y-105434761D01*
X175887142Y-105387142D01*
X175839523Y-105291904D01*
X175791904Y-105101428D01*
X175791904Y-104863333D01*
X175839523Y-104672857D01*
X175887142Y-104577619D01*
X175934761Y-104530000D01*
X176030000Y-104482380D01*
X176982380Y-104482380D02*
X177077619Y-104482380D01*
X177172857Y-104530000D01*
X177220476Y-104577619D01*
X177268095Y-104672857D01*
X177315714Y-104863333D01*
X177315714Y-105101428D01*
X177268095Y-105291904D01*
X177220476Y-105387142D01*
X177172857Y-105434761D01*
X177077619Y-105482380D01*
X176982380Y-105482380D01*
X176887142Y-105434761D01*
X176839523Y-105387142D01*
X176791904Y-105291904D01*
X176744285Y-105101428D01*
X176744285Y-104863333D01*
X176791904Y-104672857D01*
X176839523Y-104577619D01*
X176887142Y-104530000D01*
X176982380Y-104482380D01*
X177744285Y-104815714D02*
X177744285Y-105482380D01*
X177744285Y-104910952D02*
X177791904Y-104863333D01*
X177887142Y-104815714D01*
X178030000Y-104815714D01*
X178125238Y-104863333D01*
X178172857Y-104958571D01*
X178172857Y-105482380D01*
D13*
X176446666Y-106858571D02*
X176422857Y-106882380D01*
X176351428Y-106906190D01*
X176303809Y-106906190D01*
X176232380Y-106882380D01*
X176184761Y-106834761D01*
X176160952Y-106787142D01*
X176137142Y-106691904D01*
X176137142Y-106620476D01*
X176160952Y-106525238D01*
X176184761Y-106477619D01*
X176232380Y-106430000D01*
X176303809Y-106406190D01*
X176351428Y-106406190D01*
X176422857Y-106430000D01*
X176446666Y-106453809D01*
X176899047Y-106406190D02*
X176660952Y-106406190D01*
X176637142Y-106644285D01*
X176660952Y-106620476D01*
X176708571Y-106596666D01*
X176827619Y-106596666D01*
X176875238Y-106620476D01*
X176899047Y-106644285D01*
X176922857Y-106691904D01*
X176922857Y-106810952D01*
X176899047Y-106858571D01*
X176875238Y-106882380D01*
X176827619Y-106906190D01*
X176708571Y-106906190D01*
X176660952Y-106882380D01*
X176637142Y-106858571D01*
D12*
X177085714Y-81352380D02*
X176514285Y-81352380D01*
X176800000Y-81352380D02*
X176800000Y-80352380D01*
X176704761Y-80495238D01*
X176609523Y-80590476D01*
X176514285Y-80638095D01*
X177704761Y-80352380D02*
X177800000Y-80352380D01*
X177895238Y-80400000D01*
X177942857Y-80447619D01*
X177990476Y-80542857D01*
X178038095Y-80733333D01*
X178038095Y-80971428D01*
X177990476Y-81161904D01*
X177942857Y-81257142D01*
X177895238Y-81304761D01*
X177800000Y-81352380D01*
X177704761Y-81352380D01*
X177609523Y-81304761D01*
X177561904Y-81257142D01*
X177514285Y-81161904D01*
X177466666Y-80971428D01*
X177466666Y-80733333D01*
X177514285Y-80542857D01*
X177561904Y-80447619D01*
X177609523Y-80400000D01*
X177704761Y-80352380D01*
X178466666Y-80685714D02*
X178466666Y-81685714D01*
X178942857Y-81209523D02*
X178990476Y-81304761D01*
X179085714Y-81352380D01*
X178466666Y-81209523D02*
X178514285Y-81304761D01*
X178609523Y-81352380D01*
X178800000Y-81352380D01*
X178895238Y-81304761D01*
X178942857Y-81209523D01*
X178942857Y-80685714D01*
D13*
X177716666Y-82728571D02*
X177692857Y-82752380D01*
X177621428Y-82776190D01*
X177573809Y-82776190D01*
X177502380Y-82752380D01*
X177454761Y-82704761D01*
X177430952Y-82657142D01*
X177407142Y-82561904D01*
X177407142Y-82490476D01*
X177430952Y-82395238D01*
X177454761Y-82347619D01*
X177502380Y-82300000D01*
X177573809Y-82276190D01*
X177621428Y-82276190D01*
X177692857Y-82300000D01*
X177716666Y-82323809D01*
X178145238Y-82276190D02*
X178050000Y-82276190D01*
X178002380Y-82300000D01*
X177978571Y-82323809D01*
X177930952Y-82395238D01*
X177907142Y-82490476D01*
X177907142Y-82680952D01*
X177930952Y-82728571D01*
X177954761Y-82752380D01*
X178002380Y-82776190D01*
X178097619Y-82776190D01*
X178145238Y-82752380D01*
X178169047Y-82728571D01*
X178192857Y-82680952D01*
X178192857Y-82561904D01*
X178169047Y-82514285D01*
X178145238Y-82490476D01*
X178097619Y-82466666D01*
X178002380Y-82466666D01*
X177954761Y-82490476D01*
X177930952Y-82514285D01*
X177907142Y-82561904D01*
D12*
X176680952Y-77542380D02*
X176109523Y-77542380D01*
X176395238Y-77542380D02*
X176395238Y-76542380D01*
X176300000Y-76685238D01*
X176204761Y-76780476D01*
X176109523Y-76828095D01*
X177300000Y-76542380D02*
X177395238Y-76542380D01*
X177490476Y-76590000D01*
X177538095Y-76637619D01*
X177585714Y-76732857D01*
X177633333Y-76923333D01*
X177633333Y-77161428D01*
X177585714Y-77351904D01*
X177538095Y-77447142D01*
X177490476Y-77494761D01*
X177395238Y-77542380D01*
X177300000Y-77542380D01*
X177204761Y-77494761D01*
X177157142Y-77447142D01*
X177109523Y-77351904D01*
X177061904Y-77161428D01*
X177061904Y-76923333D01*
X177109523Y-76732857D01*
X177157142Y-76637619D01*
X177204761Y-76590000D01*
X177300000Y-76542380D01*
X178252380Y-76542380D02*
X178347619Y-76542380D01*
X178442857Y-76590000D01*
X178490476Y-76637619D01*
X178538095Y-76732857D01*
X178585714Y-76923333D01*
X178585714Y-77161428D01*
X178538095Y-77351904D01*
X178490476Y-77447142D01*
X178442857Y-77494761D01*
X178347619Y-77542380D01*
X178252380Y-77542380D01*
X178157142Y-77494761D01*
X178109523Y-77447142D01*
X178061904Y-77351904D01*
X178014285Y-77161428D01*
X178014285Y-76923333D01*
X178061904Y-76732857D01*
X178109523Y-76637619D01*
X178157142Y-76590000D01*
X178252380Y-76542380D01*
X179014285Y-76875714D02*
X179014285Y-77542380D01*
X179014285Y-76970952D02*
X179061904Y-76923333D01*
X179157142Y-76875714D01*
X179300000Y-76875714D01*
X179395238Y-76923333D01*
X179442857Y-77018571D01*
X179442857Y-77542380D01*
D13*
X177716666Y-78918571D02*
X177692857Y-78942380D01*
X177621428Y-78966190D01*
X177573809Y-78966190D01*
X177502380Y-78942380D01*
X177454761Y-78894761D01*
X177430952Y-78847142D01*
X177407142Y-78751904D01*
X177407142Y-78680476D01*
X177430952Y-78585238D01*
X177454761Y-78537619D01*
X177502380Y-78490000D01*
X177573809Y-78466190D01*
X177621428Y-78466190D01*
X177692857Y-78490000D01*
X177716666Y-78513809D01*
X177883333Y-78466190D02*
X178216666Y-78466190D01*
X178002380Y-78966190D01*
D12*
X176680952Y-85162380D02*
X176109523Y-85162380D01*
X176395238Y-85162380D02*
X176395238Y-84162380D01*
X176300000Y-84305238D01*
X176204761Y-84400476D01*
X176109523Y-84448095D01*
X177300000Y-84162380D02*
X177395238Y-84162380D01*
X177490476Y-84210000D01*
X177538095Y-84257619D01*
X177585714Y-84352857D01*
X177633333Y-84543333D01*
X177633333Y-84781428D01*
X177585714Y-84971904D01*
X177538095Y-85067142D01*
X177490476Y-85114761D01*
X177395238Y-85162380D01*
X177300000Y-85162380D01*
X177204761Y-85114761D01*
X177157142Y-85067142D01*
X177109523Y-84971904D01*
X177061904Y-84781428D01*
X177061904Y-84543333D01*
X177109523Y-84352857D01*
X177157142Y-84257619D01*
X177204761Y-84210000D01*
X177300000Y-84162380D01*
X178252380Y-84162380D02*
X178347619Y-84162380D01*
X178442857Y-84210000D01*
X178490476Y-84257619D01*
X178538095Y-84352857D01*
X178585714Y-84543333D01*
X178585714Y-84781428D01*
X178538095Y-84971904D01*
X178490476Y-85067142D01*
X178442857Y-85114761D01*
X178347619Y-85162380D01*
X178252380Y-85162380D01*
X178157142Y-85114761D01*
X178109523Y-85067142D01*
X178061904Y-84971904D01*
X178014285Y-84781428D01*
X178014285Y-84543333D01*
X178061904Y-84352857D01*
X178109523Y-84257619D01*
X178157142Y-84210000D01*
X178252380Y-84162380D01*
X179014285Y-84495714D02*
X179014285Y-85162380D01*
X179014285Y-84590952D02*
X179061904Y-84543333D01*
X179157142Y-84495714D01*
X179300000Y-84495714D01*
X179395238Y-84543333D01*
X179442857Y-84638571D01*
X179442857Y-85162380D01*
D13*
X177716666Y-86538571D02*
X177692857Y-86562380D01*
X177621428Y-86586190D01*
X177573809Y-86586190D01*
X177502380Y-86562380D01*
X177454761Y-86514761D01*
X177430952Y-86467142D01*
X177407142Y-86371904D01*
X177407142Y-86300476D01*
X177430952Y-86205238D01*
X177454761Y-86157619D01*
X177502380Y-86110000D01*
X177573809Y-86086190D01*
X177621428Y-86086190D01*
X177692857Y-86110000D01*
X177716666Y-86133809D01*
X178002380Y-86300476D02*
X177954761Y-86276666D01*
X177930952Y-86252857D01*
X177907142Y-86205238D01*
X177907142Y-86181428D01*
X177930952Y-86133809D01*
X177954761Y-86110000D01*
X178002380Y-86086190D01*
X178097619Y-86086190D01*
X178145238Y-86110000D01*
X178169047Y-86133809D01*
X178192857Y-86181428D01*
X178192857Y-86205238D01*
X178169047Y-86252857D01*
X178145238Y-86276666D01*
X178097619Y-86300476D01*
X178002380Y-86300476D01*
X177954761Y-86324285D01*
X177930952Y-86348095D01*
X177907142Y-86395714D01*
X177907142Y-86490952D01*
X177930952Y-86538571D01*
X177954761Y-86562380D01*
X178002380Y-86586190D01*
X178097619Y-86586190D01*
X178145238Y-86562380D01*
X178169047Y-86538571D01*
X178192857Y-86490952D01*
X178192857Y-86395714D01*
X178169047Y-86348095D01*
X178145238Y-86324285D01*
X178097619Y-86300476D01*
D12*
X176680952Y-88972380D02*
X176109523Y-88972380D01*
X176395238Y-88972380D02*
X176395238Y-87972380D01*
X176300000Y-88115238D01*
X176204761Y-88210476D01*
X176109523Y-88258095D01*
X177300000Y-87972380D02*
X177395238Y-87972380D01*
X177490476Y-88020000D01*
X177538095Y-88067619D01*
X177585714Y-88162857D01*
X177633333Y-88353333D01*
X177633333Y-88591428D01*
X177585714Y-88781904D01*
X177538095Y-88877142D01*
X177490476Y-88924761D01*
X177395238Y-88972380D01*
X177300000Y-88972380D01*
X177204761Y-88924761D01*
X177157142Y-88877142D01*
X177109523Y-88781904D01*
X177061904Y-88591428D01*
X177061904Y-88353333D01*
X177109523Y-88162857D01*
X177157142Y-88067619D01*
X177204761Y-88020000D01*
X177300000Y-87972380D01*
X178252380Y-87972380D02*
X178347619Y-87972380D01*
X178442857Y-88020000D01*
X178490476Y-88067619D01*
X178538095Y-88162857D01*
X178585714Y-88353333D01*
X178585714Y-88591428D01*
X178538095Y-88781904D01*
X178490476Y-88877142D01*
X178442857Y-88924761D01*
X178347619Y-88972380D01*
X178252380Y-88972380D01*
X178157142Y-88924761D01*
X178109523Y-88877142D01*
X178061904Y-88781904D01*
X178014285Y-88591428D01*
X178014285Y-88353333D01*
X178061904Y-88162857D01*
X178109523Y-88067619D01*
X178157142Y-88020000D01*
X178252380Y-87972380D01*
X179014285Y-88305714D02*
X179014285Y-88972380D01*
X179014285Y-88400952D02*
X179061904Y-88353333D01*
X179157142Y-88305714D01*
X179300000Y-88305714D01*
X179395238Y-88353333D01*
X179442857Y-88448571D01*
X179442857Y-88972380D01*
D13*
X177716666Y-90348571D02*
X177692857Y-90372380D01*
X177621428Y-90396190D01*
X177573809Y-90396190D01*
X177502380Y-90372380D01*
X177454761Y-90324761D01*
X177430952Y-90277142D01*
X177407142Y-90181904D01*
X177407142Y-90110476D01*
X177430952Y-90015238D01*
X177454761Y-89967619D01*
X177502380Y-89920000D01*
X177573809Y-89896190D01*
X177621428Y-89896190D01*
X177692857Y-89920000D01*
X177716666Y-89943809D01*
X177954761Y-90396190D02*
X178050000Y-90396190D01*
X178097619Y-90372380D01*
X178121428Y-90348571D01*
X178169047Y-90277142D01*
X178192857Y-90181904D01*
X178192857Y-89991428D01*
X178169047Y-89943809D01*
X178145238Y-89920000D01*
X178097619Y-89896190D01*
X178002380Y-89896190D01*
X177954761Y-89920000D01*
X177930952Y-89943809D01*
X177907142Y-89991428D01*
X177907142Y-90110476D01*
X177930952Y-90158095D01*
X177954761Y-90181904D01*
X178002380Y-90205714D01*
X178097619Y-90205714D01*
X178145238Y-90181904D01*
X178169047Y-90158095D01*
X178192857Y-90110476D01*
D12*
X176680952Y-92782380D02*
X176109523Y-92782380D01*
X176395238Y-92782380D02*
X176395238Y-91782380D01*
X176300000Y-91925238D01*
X176204761Y-92020476D01*
X176109523Y-92068095D01*
X177300000Y-91782380D02*
X177395238Y-91782380D01*
X177490476Y-91830000D01*
X177538095Y-91877619D01*
X177585714Y-91972857D01*
X177633333Y-92163333D01*
X177633333Y-92401428D01*
X177585714Y-92591904D01*
X177538095Y-92687142D01*
X177490476Y-92734761D01*
X177395238Y-92782380D01*
X177300000Y-92782380D01*
X177204761Y-92734761D01*
X177157142Y-92687142D01*
X177109523Y-92591904D01*
X177061904Y-92401428D01*
X177061904Y-92163333D01*
X177109523Y-91972857D01*
X177157142Y-91877619D01*
X177204761Y-91830000D01*
X177300000Y-91782380D01*
X178252380Y-91782380D02*
X178347619Y-91782380D01*
X178442857Y-91830000D01*
X178490476Y-91877619D01*
X178538095Y-91972857D01*
X178585714Y-92163333D01*
X178585714Y-92401428D01*
X178538095Y-92591904D01*
X178490476Y-92687142D01*
X178442857Y-92734761D01*
X178347619Y-92782380D01*
X178252380Y-92782380D01*
X178157142Y-92734761D01*
X178109523Y-92687142D01*
X178061904Y-92591904D01*
X178014285Y-92401428D01*
X178014285Y-92163333D01*
X178061904Y-91972857D01*
X178109523Y-91877619D01*
X178157142Y-91830000D01*
X178252380Y-91782380D01*
X179014285Y-92115714D02*
X179014285Y-92782380D01*
X179014285Y-92210952D02*
X179061904Y-92163333D01*
X179157142Y-92115714D01*
X179300000Y-92115714D01*
X179395238Y-92163333D01*
X179442857Y-92258571D01*
X179442857Y-92782380D01*
D13*
X177478571Y-94158571D02*
X177454761Y-94182380D01*
X177383333Y-94206190D01*
X177335714Y-94206190D01*
X177264285Y-94182380D01*
X177216666Y-94134761D01*
X177192857Y-94087142D01*
X177169047Y-93991904D01*
X177169047Y-93920476D01*
X177192857Y-93825238D01*
X177216666Y-93777619D01*
X177264285Y-93730000D01*
X177335714Y-93706190D01*
X177383333Y-93706190D01*
X177454761Y-93730000D01*
X177478571Y-93753809D01*
X177954761Y-94206190D02*
X177669047Y-94206190D01*
X177811904Y-94206190D02*
X177811904Y-93706190D01*
X177764285Y-93777619D01*
X177716666Y-93825238D01*
X177669047Y-93849047D01*
X178264285Y-93706190D02*
X178311904Y-93706190D01*
X178359523Y-93730000D01*
X178383333Y-93753809D01*
X178407142Y-93801428D01*
X178430952Y-93896666D01*
X178430952Y-94015714D01*
X178407142Y-94110952D01*
X178383333Y-94158571D01*
X178359523Y-94182380D01*
X178311904Y-94206190D01*
X178264285Y-94206190D01*
X178216666Y-94182380D01*
X178192857Y-94158571D01*
X178169047Y-94110952D01*
X178145238Y-94015714D01*
X178145238Y-93896666D01*
X178169047Y-93801428D01*
X178192857Y-93753809D01*
X178216666Y-93730000D01*
X178264285Y-93706190D01*
D12*
X196922380Y-85256666D02*
X196922380Y-85828095D01*
X196922380Y-85542380D02*
X195922380Y-85542380D01*
X196065238Y-85637619D01*
X196160476Y-85732857D01*
X196208095Y-85828095D01*
X196255714Y-84399523D02*
X196922380Y-84399523D01*
X196255714Y-84828095D02*
X196779523Y-84828095D01*
X196874761Y-84780476D01*
X196922380Y-84685238D01*
X196922380Y-84542380D01*
X196874761Y-84447142D01*
X196827142Y-84399523D01*
D13*
X198298571Y-85411428D02*
X198322380Y-85435238D01*
X198346190Y-85506666D01*
X198346190Y-85554285D01*
X198322380Y-85625714D01*
X198274761Y-85673333D01*
X198227142Y-85697142D01*
X198131904Y-85720952D01*
X198060476Y-85720952D01*
X197965238Y-85697142D01*
X197917619Y-85673333D01*
X197870000Y-85625714D01*
X197846190Y-85554285D01*
X197846190Y-85506666D01*
X197870000Y-85435238D01*
X197893809Y-85411428D01*
X198346190Y-84935238D02*
X198346190Y-85220952D01*
X198346190Y-85078095D02*
X197846190Y-85078095D01*
X197917619Y-85125714D01*
X197965238Y-85173333D01*
X197989047Y-85220952D01*
X198346190Y-84459047D02*
X198346190Y-84744761D01*
X198346190Y-84601904D02*
X197846190Y-84601904D01*
X197917619Y-84649523D01*
X197965238Y-84697142D01*
X197989047Y-84744761D01*
D12*
X217320952Y-89099380D02*
X216749523Y-89099380D01*
X217035238Y-89099380D02*
X217035238Y-88099380D01*
X216940000Y-88242238D01*
X216844761Y-88337476D01*
X216749523Y-88385095D01*
X217940000Y-88099380D02*
X218035238Y-88099380D01*
X218130476Y-88147000D01*
X218178095Y-88194619D01*
X218225714Y-88289857D01*
X218273333Y-88480333D01*
X218273333Y-88718428D01*
X218225714Y-88908904D01*
X218178095Y-89004142D01*
X218130476Y-89051761D01*
X218035238Y-89099380D01*
X217940000Y-89099380D01*
X217844761Y-89051761D01*
X217797142Y-89004142D01*
X217749523Y-88908904D01*
X217701904Y-88718428D01*
X217701904Y-88480333D01*
X217749523Y-88289857D01*
X217797142Y-88194619D01*
X217844761Y-88147000D01*
X217940000Y-88099380D01*
X218892380Y-88099380D02*
X218987619Y-88099380D01*
X219082857Y-88147000D01*
X219130476Y-88194619D01*
X219178095Y-88289857D01*
X219225714Y-88480333D01*
X219225714Y-88718428D01*
X219178095Y-88908904D01*
X219130476Y-89004142D01*
X219082857Y-89051761D01*
X218987619Y-89099380D01*
X218892380Y-89099380D01*
X218797142Y-89051761D01*
X218749523Y-89004142D01*
X218701904Y-88908904D01*
X218654285Y-88718428D01*
X218654285Y-88480333D01*
X218701904Y-88289857D01*
X218749523Y-88194619D01*
X218797142Y-88147000D01*
X218892380Y-88099380D01*
X219654285Y-88432714D02*
X219654285Y-89099380D01*
X219654285Y-88527952D02*
X219701904Y-88480333D01*
X219797142Y-88432714D01*
X219940000Y-88432714D01*
X220035238Y-88480333D01*
X220082857Y-88575571D01*
X220082857Y-89099380D01*
D13*
X218118571Y-90475571D02*
X218094761Y-90499380D01*
X218023333Y-90523190D01*
X217975714Y-90523190D01*
X217904285Y-90499380D01*
X217856666Y-90451761D01*
X217832857Y-90404142D01*
X217809047Y-90308904D01*
X217809047Y-90237476D01*
X217832857Y-90142238D01*
X217856666Y-90094619D01*
X217904285Y-90047000D01*
X217975714Y-90023190D01*
X218023333Y-90023190D01*
X218094761Y-90047000D01*
X218118571Y-90070809D01*
X218594761Y-90523190D02*
X218309047Y-90523190D01*
X218451904Y-90523190D02*
X218451904Y-90023190D01*
X218404285Y-90094619D01*
X218356666Y-90142238D01*
X218309047Y-90166047D01*
X218785238Y-90070809D02*
X218809047Y-90047000D01*
X218856666Y-90023190D01*
X218975714Y-90023190D01*
X219023333Y-90047000D01*
X219047142Y-90070809D01*
X219070952Y-90118428D01*
X219070952Y-90166047D01*
X219047142Y-90237476D01*
X218761428Y-90523190D01*
X219070952Y-90523190D01*
D12*
X198444523Y-92782380D02*
X197873095Y-92782380D01*
X198158809Y-92782380D02*
X198158809Y-91782380D01*
X198063571Y-91925238D01*
X197968333Y-92020476D01*
X197873095Y-92068095D01*
X199063571Y-91782380D02*
X199158809Y-91782380D01*
X199254047Y-91830000D01*
X199301666Y-91877619D01*
X199349285Y-91972857D01*
X199396904Y-92163333D01*
X199396904Y-92401428D01*
X199349285Y-92591904D01*
X199301666Y-92687142D01*
X199254047Y-92734761D01*
X199158809Y-92782380D01*
X199063571Y-92782380D01*
X198968333Y-92734761D01*
X198920714Y-92687142D01*
X198873095Y-92591904D01*
X198825476Y-92401428D01*
X198825476Y-92163333D01*
X198873095Y-91972857D01*
X198920714Y-91877619D01*
X198968333Y-91830000D01*
X199063571Y-91782380D01*
X200015952Y-91782380D02*
X200111190Y-91782380D01*
X200206428Y-91830000D01*
X200254047Y-91877619D01*
X200301666Y-91972857D01*
X200349285Y-92163333D01*
X200349285Y-92401428D01*
X200301666Y-92591904D01*
X200254047Y-92687142D01*
X200206428Y-92734761D01*
X200111190Y-92782380D01*
X200015952Y-92782380D01*
X199920714Y-92734761D01*
X199873095Y-92687142D01*
X199825476Y-92591904D01*
X199777857Y-92401428D01*
X199777857Y-92163333D01*
X199825476Y-91972857D01*
X199873095Y-91877619D01*
X199920714Y-91830000D01*
X200015952Y-91782380D01*
X200777857Y-92782380D02*
X200777857Y-91782380D01*
X201349285Y-92782380D01*
X201349285Y-91782380D01*
D13*
X199313571Y-94158571D02*
X199289761Y-94182380D01*
X199218333Y-94206190D01*
X199170714Y-94206190D01*
X199099285Y-94182380D01*
X199051666Y-94134761D01*
X199027857Y-94087142D01*
X199004047Y-93991904D01*
X199004047Y-93920476D01*
X199027857Y-93825238D01*
X199051666Y-93777619D01*
X199099285Y-93730000D01*
X199170714Y-93706190D01*
X199218333Y-93706190D01*
X199289761Y-93730000D01*
X199313571Y-93753809D01*
X199789761Y-94206190D02*
X199504047Y-94206190D01*
X199646904Y-94206190D02*
X199646904Y-93706190D01*
X199599285Y-93777619D01*
X199551666Y-93825238D01*
X199504047Y-93849047D01*
X199956428Y-93706190D02*
X200265952Y-93706190D01*
X200099285Y-93896666D01*
X200170714Y-93896666D01*
X200218333Y-93920476D01*
X200242142Y-93944285D01*
X200265952Y-93991904D01*
X200265952Y-94110952D01*
X200242142Y-94158571D01*
X200218333Y-94182380D01*
X200170714Y-94206190D01*
X200027857Y-94206190D01*
X199980238Y-94182380D01*
X199956428Y-94158571D01*
D12*
X200222380Y-90408095D02*
X200222380Y-90979523D01*
X200222380Y-90693809D02*
X199222380Y-90693809D01*
X199365238Y-90789047D01*
X199460476Y-90884285D01*
X199508095Y-90979523D01*
X199555714Y-89979523D02*
X200555714Y-89979523D01*
X200079523Y-89503333D02*
X200174761Y-89455714D01*
X200222380Y-89360476D01*
X200079523Y-89979523D02*
X200174761Y-89931904D01*
X200222380Y-89836666D01*
X200222380Y-89646190D01*
X200174761Y-89550952D01*
X200079523Y-89503333D01*
X199555714Y-89503333D01*
D13*
X198298571Y-90467619D02*
X198322380Y-90491428D01*
X198346190Y-90562857D01*
X198346190Y-90610476D01*
X198322380Y-90681904D01*
X198274761Y-90729523D01*
X198227142Y-90753333D01*
X198131904Y-90777142D01*
X198060476Y-90777142D01*
X197965238Y-90753333D01*
X197917619Y-90729523D01*
X197870000Y-90681904D01*
X197846190Y-90610476D01*
X197846190Y-90562857D01*
X197870000Y-90491428D01*
X197893809Y-90467619D01*
X198203333Y-90277142D02*
X198203333Y-90039047D01*
X198346190Y-90324761D02*
X197846190Y-90158095D01*
X198346190Y-89991428D01*
X198346190Y-89562857D02*
X198346190Y-89848571D01*
X198346190Y-89705714D02*
X197846190Y-89705714D01*
X197917619Y-89753333D01*
X197965238Y-89800952D01*
X197989047Y-89848571D01*
D12*
X204032380Y-90408095D02*
X204032380Y-90979523D01*
X204032380Y-90693809D02*
X203032380Y-90693809D01*
X203175238Y-90789047D01*
X203270476Y-90884285D01*
X203318095Y-90979523D01*
X203365714Y-89979523D02*
X204365714Y-89979523D01*
X203889523Y-89503333D02*
X203984761Y-89455714D01*
X204032380Y-89360476D01*
X203889523Y-89979523D02*
X203984761Y-89931904D01*
X204032380Y-89836666D01*
X204032380Y-89646190D01*
X203984761Y-89550952D01*
X203889523Y-89503333D01*
X203365714Y-89503333D01*
D13*
X202108571Y-90467619D02*
X202132380Y-90491428D01*
X202156190Y-90562857D01*
X202156190Y-90610476D01*
X202132380Y-90681904D01*
X202084761Y-90729523D01*
X202037142Y-90753333D01*
X201941904Y-90777142D01*
X201870476Y-90777142D01*
X201775238Y-90753333D01*
X201727619Y-90729523D01*
X201680000Y-90681904D01*
X201656190Y-90610476D01*
X201656190Y-90562857D01*
X201680000Y-90491428D01*
X201703809Y-90467619D01*
X202013333Y-90277142D02*
X202013333Y-90039047D01*
X202156190Y-90324761D02*
X201656190Y-90158095D01*
X202156190Y-89991428D01*
X201703809Y-89848571D02*
X201680000Y-89824761D01*
X201656190Y-89777142D01*
X201656190Y-89658095D01*
X201680000Y-89610476D01*
X201703809Y-89586666D01*
X201751428Y-89562857D01*
X201799047Y-89562857D01*
X201870476Y-89586666D01*
X202156190Y-89872380D01*
X202156190Y-89562857D01*
D12*
X188516190Y-118402380D02*
X188516190Y-119211904D01*
X188563809Y-119307142D01*
X188611428Y-119354761D01*
X188706666Y-119402380D01*
X188897142Y-119402380D01*
X188992380Y-119354761D01*
X189040000Y-119307142D01*
X189087619Y-119211904D01*
X189087619Y-118402380D01*
X189516190Y-119354761D02*
X189659047Y-119402380D01*
X189897142Y-119402380D01*
X189992380Y-119354761D01*
X190040000Y-119307142D01*
X190087619Y-119211904D01*
X190087619Y-119116666D01*
X190040000Y-119021428D01*
X189992380Y-118973809D01*
X189897142Y-118926190D01*
X189706666Y-118878571D01*
X189611428Y-118830952D01*
X189563809Y-118783333D01*
X189516190Y-118688095D01*
X189516190Y-118592857D01*
X189563809Y-118497619D01*
X189611428Y-118450000D01*
X189706666Y-118402380D01*
X189944761Y-118402380D01*
X190087619Y-118450000D01*
X190849523Y-118878571D02*
X190992380Y-118926190D01*
X191040000Y-118973809D01*
X191087619Y-119069047D01*
X191087619Y-119211904D01*
X191040000Y-119307142D01*
X190992380Y-119354761D01*
X190897142Y-119402380D01*
X190516190Y-119402380D01*
X190516190Y-118402380D01*
X190849523Y-118402380D01*
X190944761Y-118450000D01*
X190992380Y-118497619D01*
X191040000Y-118592857D01*
X191040000Y-118688095D01*
X190992380Y-118783333D01*
X190944761Y-118830952D01*
X190849523Y-118878571D01*
X190516190Y-118878571D01*
X191278095Y-119497619D02*
X192040000Y-119497619D01*
X192611428Y-118878571D02*
X192754285Y-118926190D01*
X192801904Y-118973809D01*
X192849523Y-119069047D01*
X192849523Y-119211904D01*
X192801904Y-119307142D01*
X192754285Y-119354761D01*
X192659047Y-119402380D01*
X192278095Y-119402380D01*
X192278095Y-118402380D01*
X192611428Y-118402380D01*
X192706666Y-118450000D01*
X192754285Y-118497619D01*
X192801904Y-118592857D01*
X192801904Y-118688095D01*
X192754285Y-118783333D01*
X192706666Y-118830952D01*
X192611428Y-118878571D01*
X192278095Y-118878571D01*
X193040000Y-119497619D02*
X193801904Y-119497619D01*
X194040000Y-119402380D02*
X194040000Y-118402380D01*
X194373333Y-119116666D01*
X194706666Y-118402380D01*
X194706666Y-119402380D01*
X195182857Y-119402380D02*
X195182857Y-118735714D01*
X195182857Y-118402380D02*
X195135238Y-118450000D01*
X195182857Y-118497619D01*
X195230476Y-118450000D01*
X195182857Y-118402380D01*
X195182857Y-118497619D01*
X196087619Y-119354761D02*
X195992380Y-119402380D01*
X195801904Y-119402380D01*
X195706666Y-119354761D01*
X195659047Y-119307142D01*
X195611428Y-119211904D01*
X195611428Y-118926190D01*
X195659047Y-118830952D01*
X195706666Y-118783333D01*
X195801904Y-118735714D01*
X195992380Y-118735714D01*
X196087619Y-118783333D01*
X196516190Y-119402380D02*
X196516190Y-118735714D01*
X196516190Y-118926190D02*
X196563809Y-118830952D01*
X196611428Y-118783333D01*
X196706666Y-118735714D01*
X196801904Y-118735714D01*
X197278095Y-119402380D02*
X197182857Y-119354761D01*
X197135238Y-119307142D01*
X197087619Y-119211904D01*
X197087619Y-118926190D01*
X197135238Y-118830952D01*
X197182857Y-118783333D01*
X197278095Y-118735714D01*
X197420952Y-118735714D01*
X197516190Y-118783333D01*
X197563809Y-118830952D01*
X197611428Y-118926190D01*
X197611428Y-119211904D01*
X197563809Y-119307142D01*
X197516190Y-119354761D01*
X197420952Y-119402380D01*
X197278095Y-119402380D01*
X192706666Y-112502380D02*
X192706666Y-113216666D01*
X192659047Y-113359523D01*
X192563809Y-113454761D01*
X192420952Y-113502380D01*
X192325714Y-113502380D01*
X193706666Y-113502380D02*
X193135238Y-113502380D01*
X193420952Y-113502380D02*
X193420952Y-112502380D01*
X193325714Y-112645238D01*
X193230476Y-112740476D01*
X193135238Y-112788095D01*
X221496666Y-92857142D02*
X221449047Y-92904761D01*
X221306190Y-92952380D01*
X221210952Y-92952380D01*
X221068095Y-92904761D01*
X220972857Y-92809523D01*
X220925238Y-92714285D01*
X220877619Y-92523809D01*
X220877619Y-92380952D01*
X220925238Y-92190476D01*
X220972857Y-92095238D01*
X221068095Y-92000000D01*
X221210952Y-91952380D01*
X221306190Y-91952380D01*
X221449047Y-92000000D01*
X221496666Y-92047619D01*
X222068095Y-92952380D02*
X221972857Y-92904761D01*
X221925238Y-92857142D01*
X221877619Y-92761904D01*
X221877619Y-92476190D01*
X221925238Y-92380952D01*
X221972857Y-92333333D01*
X222068095Y-92285714D01*
X222210952Y-92285714D01*
X222306190Y-92333333D01*
X222353809Y-92380952D01*
X222401428Y-92476190D01*
X222401428Y-92761904D01*
X222353809Y-92857142D01*
X222306190Y-92904761D01*
X222210952Y-92952380D01*
X222068095Y-92952380D01*
X222830000Y-92285714D02*
X222830000Y-92952380D01*
X222830000Y-92380952D02*
X222877619Y-92333333D01*
X222972857Y-92285714D01*
X223115714Y-92285714D01*
X223210952Y-92333333D01*
X223258571Y-92428571D01*
X223258571Y-92952380D01*
X223734761Y-92285714D02*
X223734761Y-92952380D01*
X223734761Y-92380952D02*
X223782380Y-92333333D01*
X223877619Y-92285714D01*
X224020476Y-92285714D01*
X224115714Y-92333333D01*
X224163333Y-92428571D01*
X224163333Y-92952380D01*
X224401428Y-93047619D02*
X225163333Y-93047619D01*
X225591904Y-91952380D02*
X225687142Y-91952380D01*
X225782380Y-92000000D01*
X225830000Y-92047619D01*
X225877619Y-92142857D01*
X225925238Y-92333333D01*
X225925238Y-92571428D01*
X225877619Y-92761904D01*
X225830000Y-92857142D01*
X225782380Y-92904761D01*
X225687142Y-92952380D01*
X225591904Y-92952380D01*
X225496666Y-92904761D01*
X225449047Y-92857142D01*
X225401428Y-92761904D01*
X225353809Y-92571428D01*
X225353809Y-92333333D01*
X225401428Y-92142857D01*
X225449047Y-92047619D01*
X225496666Y-92000000D01*
X225591904Y-91952380D01*
X226877619Y-92952380D02*
X226306190Y-92952380D01*
X226591904Y-92952380D02*
X226591904Y-91952380D01*
X226496666Y-92095238D01*
X226401428Y-92190476D01*
X226306190Y-92238095D01*
X227210952Y-92952380D02*
X227734761Y-92285714D01*
X227210952Y-92285714D02*
X227734761Y-92952380D01*
X228306190Y-91952380D02*
X228401428Y-91952380D01*
X228496666Y-92000000D01*
X228544285Y-92047619D01*
X228591904Y-92142857D01*
X228639523Y-92333333D01*
X228639523Y-92571428D01*
X228591904Y-92761904D01*
X228544285Y-92857142D01*
X228496666Y-92904761D01*
X228401428Y-92952380D01*
X228306190Y-92952380D01*
X228210952Y-92904761D01*
X228163333Y-92857142D01*
X228115714Y-92761904D01*
X228068095Y-92571428D01*
X228068095Y-92333333D01*
X228115714Y-92142857D01*
X228163333Y-92047619D01*
X228210952Y-92000000D01*
X228306190Y-91952380D01*
X229496666Y-91952380D02*
X229306190Y-91952380D01*
X229210952Y-92000000D01*
X229163333Y-92047619D01*
X229068095Y-92190476D01*
X229020476Y-92380952D01*
X229020476Y-92761904D01*
X229068095Y-92857142D01*
X229115714Y-92904761D01*
X229210952Y-92952380D01*
X229401428Y-92952380D01*
X229496666Y-92904761D01*
X229544285Y-92857142D01*
X229591904Y-92761904D01*
X229591904Y-92523809D01*
X229544285Y-92428571D01*
X229496666Y-92380952D01*
X229401428Y-92333333D01*
X229210952Y-92333333D01*
X229115714Y-92380952D01*
X229068095Y-92428571D01*
X229020476Y-92523809D01*
X229782380Y-93047619D02*
X230544285Y-93047619D01*
X230782380Y-92952380D02*
X230782380Y-91952380D01*
X231115714Y-92666666D01*
X231449047Y-91952380D01*
X231449047Y-92952380D01*
X232353809Y-92952380D02*
X232353809Y-92428571D01*
X232306190Y-92333333D01*
X232210952Y-92285714D01*
X232020476Y-92285714D01*
X231925238Y-92333333D01*
X232353809Y-92904761D02*
X232258571Y-92952380D01*
X232020476Y-92952380D01*
X231925238Y-92904761D01*
X231877619Y-92809523D01*
X231877619Y-92714285D01*
X231925238Y-92619047D01*
X232020476Y-92571428D01*
X232258571Y-92571428D01*
X232353809Y-92523809D01*
X232972857Y-92952380D02*
X232877619Y-92904761D01*
X232830000Y-92809523D01*
X232830000Y-91952380D01*
X233734761Y-92904761D02*
X233639523Y-92952380D01*
X233449047Y-92952380D01*
X233353809Y-92904761D01*
X233306190Y-92809523D01*
X233306190Y-92428571D01*
X233353809Y-92333333D01*
X233449047Y-92285714D01*
X233639523Y-92285714D01*
X233734761Y-92333333D01*
X233782380Y-92428571D01*
X233782380Y-92523809D01*
X233306190Y-92619047D01*
X226782380Y-84153333D02*
X227496666Y-84153333D01*
X227639523Y-84200952D01*
X227734761Y-84296190D01*
X227782380Y-84439047D01*
X227782380Y-84534285D01*
X226877619Y-83724761D02*
X226830000Y-83677142D01*
X226782380Y-83581904D01*
X226782380Y-83343809D01*
X226830000Y-83248571D01*
X226877619Y-83200952D01*
X226972857Y-83153333D01*
X227068095Y-83153333D01*
X227210952Y-83200952D01*
X227782380Y-83772380D01*
X227782380Y-83153333D01*
X202248095Y-87590380D02*
X202914761Y-87590380D01*
X202486190Y-88590380D01*
X203200476Y-87590380D02*
X203819523Y-87590380D01*
X203486190Y-87971333D01*
X203629047Y-87971333D01*
X203724285Y-88018952D01*
X203771904Y-88066571D01*
X203819523Y-88161809D01*
X203819523Y-88399904D01*
X203771904Y-88495142D01*
X203724285Y-88542761D01*
X203629047Y-88590380D01*
X203343333Y-88590380D01*
X203248095Y-88542761D01*
X203200476Y-88495142D01*
X204676666Y-87923714D02*
X204676666Y-88590380D01*
X204438571Y-87542761D02*
X204200476Y-88257047D01*
X204819523Y-88257047D01*
X205724285Y-88590380D02*
X205152857Y-88590380D01*
X205438571Y-88590380D02*
X205438571Y-87590380D01*
X205343333Y-87733238D01*
X205248095Y-87828476D01*
X205152857Y-87876095D01*
X206105238Y-87685619D02*
X206152857Y-87638000D01*
X206248095Y-87590380D01*
X206486190Y-87590380D01*
X206581428Y-87638000D01*
X206629047Y-87685619D01*
X206676666Y-87780857D01*
X206676666Y-87876095D01*
X206629047Y-88018952D01*
X206057619Y-88590380D01*
X206676666Y-88590380D01*
X207105238Y-88209428D02*
X207867142Y-88209428D01*
X208533809Y-87590380D02*
X208629047Y-87590380D01*
X208724285Y-87638000D01*
X208771904Y-87685619D01*
X208819523Y-87780857D01*
X208867142Y-87971333D01*
X208867142Y-88209428D01*
X208819523Y-88399904D01*
X208771904Y-88495142D01*
X208724285Y-88542761D01*
X208629047Y-88590380D01*
X208533809Y-88590380D01*
X208438571Y-88542761D01*
X208390952Y-88495142D01*
X208343333Y-88399904D01*
X208295714Y-88209428D01*
X208295714Y-87971333D01*
X208343333Y-87780857D01*
X208390952Y-87685619D01*
X208438571Y-87638000D01*
X208533809Y-87590380D01*
X209819523Y-88590380D02*
X209248095Y-88590380D01*
X209533809Y-88590380D02*
X209533809Y-87590380D01*
X209438571Y-87733238D01*
X209343333Y-87828476D01*
X209248095Y-87876095D01*
X210771904Y-88590380D02*
X210200476Y-88590380D01*
X210486190Y-88590380D02*
X210486190Y-87590380D01*
X210390952Y-87733238D01*
X210295714Y-87828476D01*
X210200476Y-87876095D01*
X211390952Y-87590380D02*
X211486190Y-87590380D01*
X211581428Y-87638000D01*
X211629047Y-87685619D01*
X211676666Y-87780857D01*
X211724285Y-87971333D01*
X211724285Y-88209428D01*
X211676666Y-88399904D01*
X211629047Y-88495142D01*
X211581428Y-88542761D01*
X211486190Y-88590380D01*
X211390952Y-88590380D01*
X211295714Y-88542761D01*
X211248095Y-88495142D01*
X211200476Y-88399904D01*
X211152857Y-88209428D01*
X211152857Y-87971333D01*
X211200476Y-87780857D01*
X211248095Y-87685619D01*
X211295714Y-87638000D01*
X211390952Y-87590380D01*
X206676666Y-94392380D02*
X206676666Y-95106666D01*
X206629047Y-95249523D01*
X206533809Y-95344761D01*
X206390952Y-95392380D01*
X206295714Y-95392380D01*
X207057619Y-94392380D02*
X207676666Y-94392380D01*
X207343333Y-94773333D01*
X207486190Y-94773333D01*
X207581428Y-94820952D01*
X207629047Y-94868571D01*
X207676666Y-94963809D01*
X207676666Y-95201904D01*
X207629047Y-95297142D01*
X207581428Y-95344761D01*
X207486190Y-95392380D01*
X207200476Y-95392380D01*
X207105238Y-95344761D01*
X207057619Y-95297142D01*
X188008761Y-79064380D02*
X187437333Y-79064380D01*
X187723047Y-79064380D02*
X187723047Y-78064380D01*
X187627809Y-78207238D01*
X187532571Y-78302476D01*
X187437333Y-78350095D01*
X188627809Y-78064380D02*
X188723047Y-78064380D01*
X188818285Y-78112000D01*
X188865904Y-78159619D01*
X188913523Y-78254857D01*
X188961142Y-78445333D01*
X188961142Y-78683428D01*
X188913523Y-78873904D01*
X188865904Y-78969142D01*
X188818285Y-79016761D01*
X188723047Y-79064380D01*
X188627809Y-79064380D01*
X188532571Y-79016761D01*
X188484952Y-78969142D01*
X188437333Y-78873904D01*
X188389714Y-78683428D01*
X188389714Y-78445333D01*
X188437333Y-78254857D01*
X188484952Y-78159619D01*
X188532571Y-78112000D01*
X188627809Y-78064380D01*
X189389714Y-79064380D02*
X189389714Y-78064380D01*
X189484952Y-78683428D02*
X189770666Y-79064380D01*
X189770666Y-78397714D02*
X189389714Y-78778666D01*
D13*
X188520666Y-77188190D02*
X188354000Y-76950095D01*
X188234952Y-77188190D02*
X188234952Y-76688190D01*
X188425428Y-76688190D01*
X188473047Y-76712000D01*
X188496857Y-76735809D01*
X188520666Y-76783428D01*
X188520666Y-76854857D01*
X188496857Y-76902476D01*
X188473047Y-76926285D01*
X188425428Y-76950095D01*
X188234952Y-76950095D01*
X188996857Y-77188190D02*
X188711142Y-77188190D01*
X188854000Y-77188190D02*
X188854000Y-76688190D01*
X188806380Y-76759619D01*
X188758761Y-76807238D01*
X188711142Y-76831047D01*
D12*
X181769523Y-92647142D02*
X181721904Y-92694761D01*
X181579047Y-92742380D01*
X181483809Y-92742380D01*
X181340952Y-92694761D01*
X181245714Y-92599523D01*
X181198095Y-92504285D01*
X181150476Y-92313809D01*
X181150476Y-92170952D01*
X181198095Y-91980476D01*
X181245714Y-91885238D01*
X181340952Y-91790000D01*
X181483809Y-91742380D01*
X181579047Y-91742380D01*
X181721904Y-91790000D01*
X181769523Y-91837619D01*
X182198095Y-92742380D02*
X182198095Y-91742380D01*
X182531428Y-92456666D01*
X182864761Y-91742380D01*
X182864761Y-92742380D01*
X183245714Y-91742380D02*
X183483809Y-92742380D01*
X183674285Y-92028095D01*
X183864761Y-92742380D01*
X184102857Y-91742380D01*
X184388571Y-91742380D02*
X185055238Y-92742380D01*
X185055238Y-91742380D02*
X184388571Y-92742380D01*
X185960000Y-92742380D02*
X185388571Y-92742380D01*
X185674285Y-92742380D02*
X185674285Y-91742380D01*
X185579047Y-91885238D01*
X185483809Y-91980476D01*
X185388571Y-92028095D01*
X186293333Y-91742380D02*
X186960000Y-91742380D01*
X186293333Y-92742380D01*
X186960000Y-92742380D01*
X187245714Y-91742380D02*
X187912380Y-91742380D01*
X187245714Y-92742380D01*
X187912380Y-92742380D01*
X188245714Y-92456666D02*
X188721904Y-92456666D01*
X188150476Y-92742380D02*
X188483809Y-91742380D01*
X188817142Y-92742380D01*
X189483809Y-92218571D02*
X189626666Y-92266190D01*
X189674285Y-92313809D01*
X189721904Y-92409047D01*
X189721904Y-92551904D01*
X189674285Y-92647142D01*
X189626666Y-92694761D01*
X189531428Y-92742380D01*
X189150476Y-92742380D01*
X189150476Y-91742380D01*
X189483809Y-91742380D01*
X189579047Y-91790000D01*
X189626666Y-91837619D01*
X189674285Y-91932857D01*
X189674285Y-92028095D01*
X189626666Y-92123333D01*
X189579047Y-92170952D01*
X189483809Y-92218571D01*
X189150476Y-92218571D01*
X190055238Y-91742380D02*
X190721904Y-91742380D01*
X190055238Y-92742380D01*
X190721904Y-92742380D01*
X191102857Y-92361428D02*
X191864761Y-92361428D01*
X192531428Y-91742380D02*
X192626666Y-91742380D01*
X192721904Y-91790000D01*
X192769523Y-91837619D01*
X192817142Y-91932857D01*
X192864761Y-92123333D01*
X192864761Y-92361428D01*
X192817142Y-92551904D01*
X192769523Y-92647142D01*
X192721904Y-92694761D01*
X192626666Y-92742380D01*
X192531428Y-92742380D01*
X192436190Y-92694761D01*
X192388571Y-92647142D01*
X192340952Y-92551904D01*
X192293333Y-92361428D01*
X192293333Y-92123333D01*
X192340952Y-91932857D01*
X192388571Y-91837619D01*
X192436190Y-91790000D01*
X192531428Y-91742380D01*
X193198095Y-91742380D02*
X193864761Y-91742380D01*
X193436190Y-92742380D01*
X194388571Y-92170952D02*
X194293333Y-92123333D01*
X194245714Y-92075714D01*
X194198095Y-91980476D01*
X194198095Y-91932857D01*
X194245714Y-91837619D01*
X194293333Y-91790000D01*
X194388571Y-91742380D01*
X194579047Y-91742380D01*
X194674285Y-91790000D01*
X194721904Y-91837619D01*
X194769523Y-91932857D01*
X194769523Y-91980476D01*
X194721904Y-92075714D01*
X194674285Y-92123333D01*
X194579047Y-92170952D01*
X194388571Y-92170952D01*
X194293333Y-92218571D01*
X194245714Y-92266190D01*
X194198095Y-92361428D01*
X194198095Y-92551904D01*
X194245714Y-92647142D01*
X194293333Y-92694761D01*
X194388571Y-92742380D01*
X194579047Y-92742380D01*
X194674285Y-92694761D01*
X194721904Y-92647142D01*
X194769523Y-92551904D01*
X194769523Y-92361428D01*
X194721904Y-92266190D01*
X194674285Y-92218571D01*
X194579047Y-92170952D01*
X187198095Y-84542380D02*
X187198095Y-85351904D01*
X187245714Y-85447142D01*
X187293333Y-85494761D01*
X187388571Y-85542380D01*
X187579047Y-85542380D01*
X187674285Y-85494761D01*
X187721904Y-85447142D01*
X187769523Y-85351904D01*
X187769523Y-84542380D01*
X188198095Y-84637619D02*
X188245714Y-84590000D01*
X188340952Y-84542380D01*
X188579047Y-84542380D01*
X188674285Y-84590000D01*
X188721904Y-84637619D01*
X188769523Y-84732857D01*
X188769523Y-84828095D01*
X188721904Y-84970952D01*
X188150476Y-85542380D01*
X188769523Y-85542380D01*
X187592380Y-113665714D02*
X187592380Y-114141904D01*
X186592380Y-114141904D01*
X186592380Y-113475238D02*
X186592380Y-112903809D01*
X187592380Y-113189523D02*
X186592380Y-113189523D01*
X187592380Y-112046666D02*
X187592380Y-112618095D01*
X187592380Y-112332380D02*
X186592380Y-112332380D01*
X186735238Y-112427619D01*
X186830476Y-112522857D01*
X186878095Y-112618095D01*
X187592380Y-111094285D02*
X187592380Y-111665714D01*
X187592380Y-111380000D02*
X186592380Y-111380000D01*
X186735238Y-111475238D01*
X186830476Y-111570476D01*
X186878095Y-111665714D01*
X187592380Y-110141904D02*
X187592380Y-110713333D01*
X187592380Y-110427619D02*
X186592380Y-110427619D01*
X186735238Y-110522857D01*
X186830476Y-110618095D01*
X186878095Y-110713333D01*
X186592380Y-109808571D02*
X186592380Y-109141904D01*
X187592380Y-109570476D01*
X187211428Y-108760952D02*
X187211428Y-107999047D01*
X186592380Y-107618095D02*
X186592380Y-106999047D01*
X186973333Y-107332380D01*
X186973333Y-107189523D01*
X187020952Y-107094285D01*
X187068571Y-107046666D01*
X187163809Y-106999047D01*
X187401904Y-106999047D01*
X187497142Y-107046666D01*
X187544761Y-107094285D01*
X187592380Y-107189523D01*
X187592380Y-107475238D01*
X187544761Y-107570476D01*
X187497142Y-107618095D01*
X187497142Y-106570476D02*
X187544761Y-106522857D01*
X187592380Y-106570476D01*
X187544761Y-106618095D01*
X187497142Y-106570476D01*
X187592380Y-106570476D01*
X186592380Y-106189523D02*
X186592380Y-105570476D01*
X186973333Y-105903809D01*
X186973333Y-105760952D01*
X187020952Y-105665714D01*
X187068571Y-105618095D01*
X187163809Y-105570476D01*
X187401904Y-105570476D01*
X187497142Y-105618095D01*
X187544761Y-105665714D01*
X187592380Y-105760952D01*
X187592380Y-106046666D01*
X187544761Y-106141904D01*
X187497142Y-106189523D01*
D14*
X182030476Y-109441904D02*
X182030476Y-110089523D01*
X182068571Y-110165714D01*
X182106666Y-110203809D01*
X182182857Y-110241904D01*
X182335238Y-110241904D01*
X182411428Y-110203809D01*
X182449523Y-110165714D01*
X182487619Y-110089523D01*
X182487619Y-109441904D01*
X182792380Y-109441904D02*
X183287619Y-109441904D01*
X183020952Y-109746666D01*
X183135238Y-109746666D01*
X183211428Y-109784761D01*
X183249523Y-109822857D01*
X183287619Y-109899047D01*
X183287619Y-110089523D01*
X183249523Y-110165714D01*
X183211428Y-110203809D01*
X183135238Y-110241904D01*
X182906666Y-110241904D01*
X182830476Y-110203809D01*
X182792380Y-110165714D01*
D15*
X205125523Y-81924619D02*
X206153619Y-81924619D01*
X206274571Y-81864142D01*
X206335047Y-81803666D01*
X206395523Y-81682714D01*
X206395523Y-81440809D01*
X206335047Y-81319857D01*
X206274571Y-81259380D01*
X206153619Y-81198904D01*
X205125523Y-81198904D01*
X206395523Y-79928904D02*
X206395523Y-80654619D01*
X206395523Y-80291761D02*
X205125523Y-80291761D01*
X205306952Y-80412714D01*
X205427904Y-80533666D01*
X205488380Y-80654619D01*
D12*
X183507142Y-92782380D02*
X183030952Y-92782380D01*
X183030952Y-91782380D01*
X183840476Y-92258571D02*
X184173809Y-92258571D01*
X184316666Y-92782380D02*
X183840476Y-92782380D01*
X183840476Y-91782380D01*
X184316666Y-91782380D01*
X184745238Y-92782380D02*
X184745238Y-91782380D01*
X184983333Y-91782380D01*
X185126190Y-91830000D01*
X185221428Y-91925238D01*
X185269047Y-92020476D01*
X185316666Y-92210952D01*
X185316666Y-92353809D01*
X185269047Y-92544285D01*
X185221428Y-92639523D01*
X185126190Y-92734761D01*
X184983333Y-92782380D01*
X184745238Y-92782380D01*
D13*
X183780952Y-94206190D02*
X183780952Y-93706190D01*
X183900000Y-93706190D01*
X183971428Y-93730000D01*
X184019047Y-93777619D01*
X184042857Y-93825238D01*
X184066666Y-93920476D01*
X184066666Y-93991904D01*
X184042857Y-94087142D01*
X184019047Y-94134761D01*
X183971428Y-94182380D01*
X183900000Y-94206190D01*
X183780952Y-94206190D01*
X184542857Y-94206190D02*
X184257142Y-94206190D01*
X184400000Y-94206190D02*
X184400000Y-93706190D01*
X184352380Y-93777619D01*
X184304761Y-93825238D01*
X184257142Y-93849047D01*
D12*
X189857142Y-92782380D02*
X189380952Y-92782380D01*
X189380952Y-91782380D01*
X190190476Y-92258571D02*
X190523809Y-92258571D01*
X190666666Y-92782380D02*
X190190476Y-92782380D01*
X190190476Y-91782380D01*
X190666666Y-91782380D01*
X191095238Y-92782380D02*
X191095238Y-91782380D01*
X191333333Y-91782380D01*
X191476190Y-91830000D01*
X191571428Y-91925238D01*
X191619047Y-92020476D01*
X191666666Y-92210952D01*
X191666666Y-92353809D01*
X191619047Y-92544285D01*
X191571428Y-92639523D01*
X191476190Y-92734761D01*
X191333333Y-92782380D01*
X191095238Y-92782380D01*
D13*
X190130952Y-94206190D02*
X190130952Y-93706190D01*
X190250000Y-93706190D01*
X190321428Y-93730000D01*
X190369047Y-93777619D01*
X190392857Y-93825238D01*
X190416666Y-93920476D01*
X190416666Y-93991904D01*
X190392857Y-94087142D01*
X190369047Y-94134761D01*
X190321428Y-94182380D01*
X190250000Y-94206190D01*
X190130952Y-94206190D01*
X190607142Y-93753809D02*
X190630952Y-93730000D01*
X190678571Y-93706190D01*
X190797619Y-93706190D01*
X190845238Y-93730000D01*
X190869047Y-93753809D01*
X190892857Y-93801428D01*
X190892857Y-93849047D01*
X190869047Y-93920476D01*
X190583333Y-94206190D01*
X190892857Y-94206190D01*
D12*
X222609762Y-85729618D02*
X222657381Y-85586760D01*
X222657381Y-85348665D01*
X222609762Y-85253427D01*
X222562143Y-85205808D01*
X222466905Y-85158189D01*
X222371667Y-85158189D01*
X222276429Y-85205808D01*
X222228810Y-85253427D01*
X222181191Y-85348665D01*
X222133572Y-85539141D01*
X222085953Y-85634379D01*
X222038334Y-85681999D01*
X221943096Y-85729618D01*
X221847858Y-85729618D01*
X221752620Y-85681999D01*
X221705001Y-85634379D01*
X221657381Y-85539141D01*
X221657381Y-85301046D01*
X221705001Y-85158189D01*
X221657381Y-84824856D02*
X222657381Y-84586760D01*
X221943096Y-84396284D01*
X222657381Y-84205808D01*
X221657381Y-83967713D01*
X222752620Y-83824856D02*
X222752620Y-83062951D01*
X222657381Y-82824856D02*
X221657381Y-82824856D01*
X221657381Y-82443903D01*
X221705001Y-82348665D01*
X221752620Y-82301046D01*
X221847858Y-82253427D01*
X221990715Y-82253427D01*
X222085953Y-82301046D01*
X222133572Y-82348665D01*
X222181191Y-82443903D01*
X222181191Y-82824856D01*
X221990715Y-81396284D02*
X222657381Y-81396284D01*
X221990715Y-81824856D02*
X222514524Y-81824856D01*
X222609762Y-81777237D01*
X222657381Y-81681999D01*
X222657381Y-81539141D01*
X222609762Y-81443903D01*
X222562143Y-81396284D01*
X222609762Y-80967713D02*
X222657381Y-80872475D01*
X222657381Y-80681999D01*
X222609762Y-80586760D01*
X222514524Y-80539141D01*
X222466905Y-80539141D01*
X222371667Y-80586760D01*
X222324048Y-80681999D01*
X222324048Y-80824856D01*
X222276429Y-80920094D01*
X222181191Y-80967713D01*
X222133572Y-80967713D01*
X222038334Y-80920094D01*
X221990715Y-80824856D01*
X221990715Y-80681999D01*
X222038334Y-80586760D01*
X222657381Y-80110570D02*
X221657381Y-80110570D01*
X222657381Y-79681999D02*
X222133572Y-79681999D01*
X222038334Y-79729618D01*
X221990715Y-79824856D01*
X221990715Y-79967713D01*
X222038334Y-80062951D01*
X222085953Y-80110570D01*
X214409762Y-84015332D02*
X214457381Y-83872475D01*
X214457381Y-83634379D01*
X214409762Y-83539141D01*
X214362143Y-83491522D01*
X214266905Y-83443903D01*
X214171667Y-83443903D01*
X214076429Y-83491522D01*
X214028810Y-83539141D01*
X213981191Y-83634379D01*
X213933572Y-83824856D01*
X213885953Y-83920094D01*
X213838334Y-83967713D01*
X213743096Y-84015332D01*
X213647858Y-84015332D01*
X213552620Y-83967713D01*
X213505001Y-83920094D01*
X213457381Y-83824856D01*
X213457381Y-83586760D01*
X213505001Y-83443903D01*
X213457381Y-83110570D02*
X214457381Y-82872475D01*
X213743096Y-82681999D01*
X214457381Y-82491522D01*
X213457381Y-82253427D01*
X214457381Y-81348665D02*
X214457381Y-81920094D01*
X214457381Y-81634379D02*
X213457381Y-81634379D01*
X213600239Y-81729618D01*
X213695477Y-81824856D01*
X213743096Y-81920094D01*
D15*
X205512380Y-116884523D02*
X205512380Y-117912619D01*
X205572857Y-118033571D01*
X205633333Y-118094047D01*
X205754285Y-118154523D01*
X205996190Y-118154523D01*
X206117142Y-118094047D01*
X206177619Y-118033571D01*
X206238095Y-117912619D01*
X206238095Y-116884523D01*
X207387142Y-117307857D02*
X207387142Y-118154523D01*
X207084761Y-116824047D02*
X206782380Y-117731190D01*
X207568571Y-117731190D01*
M02*
