G04 #@! TF.GenerationSoftware,KiCad,Pcbnew,(5.1.5-0-10_14)*
G04 #@! TF.CreationDate,2020-02-12T14:03:56+01:00*
G04 #@! TF.ProjectId,EDS_ALARM,4544535f-414c-4415-924d-2e6b69636164,rev?*
G04 #@! TF.SameCoordinates,Original*
G04 #@! TF.FileFunction,Legend,Top*
G04 #@! TF.FilePolarity,Positive*
%FSLAX46Y46*%
G04 Gerber Fmt 4.6, Leading zero omitted, Abs format (unit mm)*
G04 Created by KiCad (PCBNEW (5.1.5-0-10_14)) date 2020-02-12 14:03:56*
%MOMM*%
%LPD*%
G04 APERTURE LIST*
%ADD10C,0.120000*%
%ADD11C,0.200000*%
%ADD12C,0.254000*%
%ADD13C,0.100000*%
%ADD14C,0.150000*%
G04 APERTURE END LIST*
D10*
X186130000Y-101338748D02*
X186130000Y-101861252D01*
X184710000Y-101338748D02*
X184710000Y-101861252D01*
X188457500Y-100872500D02*
X188457500Y-101497500D01*
X188145000Y-101185000D02*
X188770000Y-101185000D01*
X189010000Y-104565563D02*
X190074437Y-105630000D01*
X189010000Y-101174437D02*
X190074437Y-100110000D01*
X189010000Y-101174437D02*
X189010000Y-101810000D01*
X189010000Y-104565563D02*
X189010000Y-103930000D01*
X190074437Y-105630000D02*
X194530000Y-105630000D01*
X190074437Y-100110000D02*
X194530000Y-100110000D01*
X194530000Y-100110000D02*
X194530000Y-101810000D01*
X194530000Y-105630000D02*
X194530000Y-103930000D01*
X197410000Y-101338748D02*
X197410000Y-101861252D01*
X198830000Y-101338748D02*
X198830000Y-101861252D01*
X180900000Y-104360000D02*
X180900000Y-102660000D01*
X180900000Y-98840000D02*
X180900000Y-100540000D01*
X176444437Y-98840000D02*
X180900000Y-98840000D01*
X176444437Y-104360000D02*
X180900000Y-104360000D01*
X175380000Y-103295563D02*
X175380000Y-102660000D01*
X175380000Y-99904437D02*
X175380000Y-100540000D01*
X175380000Y-99904437D02*
X176444437Y-98840000D01*
X175380000Y-103295563D02*
X176444437Y-104360000D01*
X174515000Y-99915000D02*
X175140000Y-99915000D01*
X174827500Y-99602500D02*
X174827500Y-100227500D01*
X176791252Y-107390000D02*
X176268748Y-107390000D01*
X176791252Y-105970000D02*
X176268748Y-105970000D01*
X177538748Y-83110000D02*
X178061252Y-83110000D01*
X177538748Y-84530000D02*
X178061252Y-84530000D01*
X177538748Y-80720000D02*
X178061252Y-80720000D01*
X177538748Y-79300000D02*
X178061252Y-79300000D01*
X177538748Y-86920000D02*
X178061252Y-86920000D01*
X177538748Y-88340000D02*
X178061252Y-88340000D01*
X177538748Y-92150000D02*
X178061252Y-92150000D01*
X177538748Y-90730000D02*
X178061252Y-90730000D01*
X177538748Y-94540000D02*
X178061252Y-94540000D01*
X177538748Y-95960000D02*
X178061252Y-95960000D01*
X197410000Y-84828748D02*
X197410000Y-85351252D01*
X198830000Y-84828748D02*
X198830000Y-85351252D01*
X218701252Y-91007000D02*
X218178748Y-91007000D01*
X218701252Y-89587000D02*
X218178748Y-89587000D01*
X199896252Y-93270000D02*
X199373748Y-93270000D01*
X199896252Y-94690000D02*
X199373748Y-94690000D01*
X198830000Y-90431252D02*
X198830000Y-89908748D01*
X197410000Y-90431252D02*
X197410000Y-89908748D01*
X201220000Y-90431252D02*
X201220000Y-89908748D01*
X202640000Y-90431252D02*
X202640000Y-89908748D01*
X196950000Y-117360000D02*
X189130000Y-117360000D01*
X190930000Y-108040000D02*
X190930000Y-107610000D01*
X196950000Y-117360000D02*
X196950000Y-115410000D01*
X196950000Y-113190000D02*
X196950000Y-109960000D01*
X195150000Y-108040000D02*
X196230000Y-108040000D01*
X189850000Y-108040000D02*
X190930000Y-108040000D01*
X189130000Y-113190000D02*
X189130000Y-109960000D01*
X189130000Y-117360000D02*
X189130000Y-115410000D01*
X226000000Y-91500000D02*
X228660000Y-91500000D01*
X226000000Y-78740000D02*
X226000000Y-91500000D01*
X228660000Y-78740000D02*
X228660000Y-91500000D01*
X226000000Y-78740000D02*
X228660000Y-78740000D01*
X226000000Y-77470000D02*
X226000000Y-76140000D01*
X226000000Y-76140000D02*
X227330000Y-76140000D01*
X207710000Y-92940000D02*
X207710000Y-93440000D01*
X206310000Y-92940000D02*
X206310000Y-93440000D01*
X206310000Y-92940000D02*
X205710000Y-92940000D01*
X205710000Y-92940000D02*
X205510000Y-92740000D01*
X208510000Y-92740000D02*
X208510000Y-92940000D01*
X208510000Y-92940000D02*
X207710000Y-92940000D01*
X207710000Y-89940000D02*
X208510000Y-89940000D01*
X208510000Y-89940000D02*
X208510000Y-90140000D01*
X205510000Y-90140000D02*
X205510000Y-89940000D01*
X205510000Y-89940000D02*
X206310000Y-89940000D01*
X196343748Y-76506000D02*
X196866252Y-76506000D01*
X196343748Y-77926000D02*
X196866252Y-77926000D01*
X181510000Y-89090000D02*
X181510000Y-91090000D01*
X181510000Y-91090000D02*
X183510000Y-91090000D01*
X194410000Y-89090000D02*
X194410000Y-91090000D01*
X192410000Y-91090000D02*
X194410000Y-91090000D01*
X181510000Y-79090000D02*
X181510000Y-79690000D01*
X181510000Y-79090000D02*
X183510000Y-79090000D01*
X192410000Y-79090000D02*
X194410000Y-79090000D01*
X194410000Y-79090000D02*
X194410000Y-81090000D01*
X186050000Y-107970000D02*
X184790000Y-107970000D01*
X179230000Y-107970000D02*
X180490000Y-107970000D01*
X186050000Y-111730000D02*
X186050000Y-107970000D01*
X179230000Y-113980000D02*
X179230000Y-107970000D01*
D11*
X211240000Y-81280000D02*
G75*
G03X211240000Y-81280000I-5500000J0D01*
G01*
X208289000Y-77021000D02*
X208565000Y-76673000D01*
X207912000Y-76789000D02*
X208289000Y-77021000D01*
X208072000Y-76427000D02*
X207912000Y-76789000D01*
D10*
X182465000Y-94940000D02*
X185150000Y-94940000D01*
X182465000Y-93020000D02*
X182465000Y-94940000D01*
X185150000Y-93020000D02*
X182465000Y-93020000D01*
X191500000Y-93147000D02*
X188815000Y-93147000D01*
X188815000Y-93147000D02*
X188815000Y-95067000D01*
X188815000Y-95067000D02*
X191500000Y-95067000D01*
D11*
X202220000Y-96560000D02*
X206720000Y-96560000D01*
X206720000Y-101560000D02*
X202220000Y-101560000D01*
X202220000Y-101560000D02*
X202220000Y-100310000D01*
X202220000Y-96560000D02*
X202220000Y-97810000D01*
X206720000Y-98760000D02*
X206720000Y-99360000D01*
X206720000Y-96560000D02*
X206720000Y-96960000D01*
X206720000Y-101560000D02*
X206720000Y-101210000D01*
D12*
X208594900Y-97136000D02*
G75*
G03X208594900Y-97136000I-76900J0D01*
G01*
D10*
X214825001Y-79451999D02*
X214855001Y-79451999D01*
X221285001Y-79451999D02*
X221255001Y-79451999D01*
X221285001Y-85911999D02*
X221255001Y-85911999D01*
X214855001Y-85911999D02*
X214825001Y-85911999D01*
X216755001Y-79451999D02*
X219355001Y-79451999D01*
X214825001Y-85911999D02*
X214825001Y-79451999D01*
X216755001Y-85911999D02*
X219355001Y-85911999D01*
X221285001Y-85911999D02*
X221285001Y-79451999D01*
D13*
X218440000Y-112140000D02*
X212980000Y-112140000D01*
X212980000Y-112140000D02*
X212980000Y-96140000D01*
X212980000Y-96140000D02*
X218440000Y-96140000D01*
X223520000Y-112140000D02*
X228980000Y-112140000D01*
X228980000Y-112140000D02*
X228980000Y-96520000D01*
X228980000Y-96520000D02*
X228980000Y-96140000D01*
X228980000Y-96140000D02*
X223520000Y-96140000D01*
X205210000Y-114560000D02*
X205210000Y-114560000D01*
X205210000Y-105360000D02*
X205210000Y-105360000D01*
D14*
X187427142Y-101766666D02*
X187474761Y-101814285D01*
X187522380Y-101957142D01*
X187522380Y-102052380D01*
X187474761Y-102195238D01*
X187379523Y-102290476D01*
X187284285Y-102338095D01*
X187093809Y-102385714D01*
X186950952Y-102385714D01*
X186760476Y-102338095D01*
X186665238Y-102290476D01*
X186570000Y-102195238D01*
X186522380Y-102052380D01*
X186522380Y-101957142D01*
X186570000Y-101814285D01*
X186617619Y-101766666D01*
X187522380Y-100814285D02*
X187522380Y-101385714D01*
X187522380Y-101100000D02*
X186522380Y-101100000D01*
X186665238Y-101195238D01*
X186760476Y-101290476D01*
X186808095Y-101385714D01*
X191603333Y-99527142D02*
X191555714Y-99574761D01*
X191412857Y-99622380D01*
X191317619Y-99622380D01*
X191174761Y-99574761D01*
X191079523Y-99479523D01*
X191031904Y-99384285D01*
X190984285Y-99193809D01*
X190984285Y-99050952D01*
X191031904Y-98860476D01*
X191079523Y-98765238D01*
X191174761Y-98670000D01*
X191317619Y-98622380D01*
X191412857Y-98622380D01*
X191555714Y-98670000D01*
X191603333Y-98717619D01*
X191984285Y-98717619D02*
X192031904Y-98670000D01*
X192127142Y-98622380D01*
X192365238Y-98622380D01*
X192460476Y-98670000D01*
X192508095Y-98717619D01*
X192555714Y-98812857D01*
X192555714Y-98908095D01*
X192508095Y-99050952D01*
X191936666Y-99622380D01*
X192555714Y-99622380D01*
X200127142Y-101766666D02*
X200174761Y-101814285D01*
X200222380Y-101957142D01*
X200222380Y-102052380D01*
X200174761Y-102195238D01*
X200079523Y-102290476D01*
X199984285Y-102338095D01*
X199793809Y-102385714D01*
X199650952Y-102385714D01*
X199460476Y-102338095D01*
X199365238Y-102290476D01*
X199270000Y-102195238D01*
X199222380Y-102052380D01*
X199222380Y-101957142D01*
X199270000Y-101814285D01*
X199317619Y-101766666D01*
X199222380Y-101433333D02*
X199222380Y-100814285D01*
X199603333Y-101147619D01*
X199603333Y-101004761D01*
X199650952Y-100909523D01*
X199698571Y-100861904D01*
X199793809Y-100814285D01*
X200031904Y-100814285D01*
X200127142Y-100861904D01*
X200174761Y-100909523D01*
X200222380Y-101004761D01*
X200222380Y-101290476D01*
X200174761Y-101385714D01*
X200127142Y-101433333D01*
X177973333Y-98257142D02*
X177925714Y-98304761D01*
X177782857Y-98352380D01*
X177687619Y-98352380D01*
X177544761Y-98304761D01*
X177449523Y-98209523D01*
X177401904Y-98114285D01*
X177354285Y-97923809D01*
X177354285Y-97780952D01*
X177401904Y-97590476D01*
X177449523Y-97495238D01*
X177544761Y-97400000D01*
X177687619Y-97352380D01*
X177782857Y-97352380D01*
X177925714Y-97400000D01*
X177973333Y-97447619D01*
X178830476Y-97685714D02*
X178830476Y-98352380D01*
X178592380Y-97304761D02*
X178354285Y-98019047D01*
X178973333Y-98019047D01*
X176363333Y-108687142D02*
X176315714Y-108734761D01*
X176172857Y-108782380D01*
X176077619Y-108782380D01*
X175934761Y-108734761D01*
X175839523Y-108639523D01*
X175791904Y-108544285D01*
X175744285Y-108353809D01*
X175744285Y-108210952D01*
X175791904Y-108020476D01*
X175839523Y-107925238D01*
X175934761Y-107830000D01*
X176077619Y-107782380D01*
X176172857Y-107782380D01*
X176315714Y-107830000D01*
X176363333Y-107877619D01*
X177268095Y-107782380D02*
X176791904Y-107782380D01*
X176744285Y-108258571D01*
X176791904Y-108210952D01*
X176887142Y-108163333D01*
X177125238Y-108163333D01*
X177220476Y-108210952D01*
X177268095Y-108258571D01*
X177315714Y-108353809D01*
X177315714Y-108591904D01*
X177268095Y-108687142D01*
X177220476Y-108734761D01*
X177125238Y-108782380D01*
X176887142Y-108782380D01*
X176791904Y-108734761D01*
X176744285Y-108687142D01*
X177633333Y-82527142D02*
X177585714Y-82574761D01*
X177442857Y-82622380D01*
X177347619Y-82622380D01*
X177204761Y-82574761D01*
X177109523Y-82479523D01*
X177061904Y-82384285D01*
X177014285Y-82193809D01*
X177014285Y-82050952D01*
X177061904Y-81860476D01*
X177109523Y-81765238D01*
X177204761Y-81670000D01*
X177347619Y-81622380D01*
X177442857Y-81622380D01*
X177585714Y-81670000D01*
X177633333Y-81717619D01*
X178490476Y-81622380D02*
X178300000Y-81622380D01*
X178204761Y-81670000D01*
X178157142Y-81717619D01*
X178061904Y-81860476D01*
X178014285Y-82050952D01*
X178014285Y-82431904D01*
X178061904Y-82527142D01*
X178109523Y-82574761D01*
X178204761Y-82622380D01*
X178395238Y-82622380D01*
X178490476Y-82574761D01*
X178538095Y-82527142D01*
X178585714Y-82431904D01*
X178585714Y-82193809D01*
X178538095Y-82098571D01*
X178490476Y-82050952D01*
X178395238Y-82003333D01*
X178204761Y-82003333D01*
X178109523Y-82050952D01*
X178061904Y-82098571D01*
X178014285Y-82193809D01*
X177633333Y-78717142D02*
X177585714Y-78764761D01*
X177442857Y-78812380D01*
X177347619Y-78812380D01*
X177204761Y-78764761D01*
X177109523Y-78669523D01*
X177061904Y-78574285D01*
X177014285Y-78383809D01*
X177014285Y-78240952D01*
X177061904Y-78050476D01*
X177109523Y-77955238D01*
X177204761Y-77860000D01*
X177347619Y-77812380D01*
X177442857Y-77812380D01*
X177585714Y-77860000D01*
X177633333Y-77907619D01*
X177966666Y-77812380D02*
X178633333Y-77812380D01*
X178204761Y-78812380D01*
X177633333Y-86337142D02*
X177585714Y-86384761D01*
X177442857Y-86432380D01*
X177347619Y-86432380D01*
X177204761Y-86384761D01*
X177109523Y-86289523D01*
X177061904Y-86194285D01*
X177014285Y-86003809D01*
X177014285Y-85860952D01*
X177061904Y-85670476D01*
X177109523Y-85575238D01*
X177204761Y-85480000D01*
X177347619Y-85432380D01*
X177442857Y-85432380D01*
X177585714Y-85480000D01*
X177633333Y-85527619D01*
X178204761Y-85860952D02*
X178109523Y-85813333D01*
X178061904Y-85765714D01*
X178014285Y-85670476D01*
X178014285Y-85622857D01*
X178061904Y-85527619D01*
X178109523Y-85480000D01*
X178204761Y-85432380D01*
X178395238Y-85432380D01*
X178490476Y-85480000D01*
X178538095Y-85527619D01*
X178585714Y-85622857D01*
X178585714Y-85670476D01*
X178538095Y-85765714D01*
X178490476Y-85813333D01*
X178395238Y-85860952D01*
X178204761Y-85860952D01*
X178109523Y-85908571D01*
X178061904Y-85956190D01*
X178014285Y-86051428D01*
X178014285Y-86241904D01*
X178061904Y-86337142D01*
X178109523Y-86384761D01*
X178204761Y-86432380D01*
X178395238Y-86432380D01*
X178490476Y-86384761D01*
X178538095Y-86337142D01*
X178585714Y-86241904D01*
X178585714Y-86051428D01*
X178538095Y-85956190D01*
X178490476Y-85908571D01*
X178395238Y-85860952D01*
X177633333Y-90147142D02*
X177585714Y-90194761D01*
X177442857Y-90242380D01*
X177347619Y-90242380D01*
X177204761Y-90194761D01*
X177109523Y-90099523D01*
X177061904Y-90004285D01*
X177014285Y-89813809D01*
X177014285Y-89670952D01*
X177061904Y-89480476D01*
X177109523Y-89385238D01*
X177204761Y-89290000D01*
X177347619Y-89242380D01*
X177442857Y-89242380D01*
X177585714Y-89290000D01*
X177633333Y-89337619D01*
X178109523Y-90242380D02*
X178300000Y-90242380D01*
X178395238Y-90194761D01*
X178442857Y-90147142D01*
X178538095Y-90004285D01*
X178585714Y-89813809D01*
X178585714Y-89432857D01*
X178538095Y-89337619D01*
X178490476Y-89290000D01*
X178395238Y-89242380D01*
X178204761Y-89242380D01*
X178109523Y-89290000D01*
X178061904Y-89337619D01*
X178014285Y-89432857D01*
X178014285Y-89670952D01*
X178061904Y-89766190D01*
X178109523Y-89813809D01*
X178204761Y-89861428D01*
X178395238Y-89861428D01*
X178490476Y-89813809D01*
X178538095Y-89766190D01*
X178585714Y-89670952D01*
X177157142Y-93957142D02*
X177109523Y-94004761D01*
X176966666Y-94052380D01*
X176871428Y-94052380D01*
X176728571Y-94004761D01*
X176633333Y-93909523D01*
X176585714Y-93814285D01*
X176538095Y-93623809D01*
X176538095Y-93480952D01*
X176585714Y-93290476D01*
X176633333Y-93195238D01*
X176728571Y-93100000D01*
X176871428Y-93052380D01*
X176966666Y-93052380D01*
X177109523Y-93100000D01*
X177157142Y-93147619D01*
X178109523Y-94052380D02*
X177538095Y-94052380D01*
X177823809Y-94052380D02*
X177823809Y-93052380D01*
X177728571Y-93195238D01*
X177633333Y-93290476D01*
X177538095Y-93338095D01*
X178728571Y-93052380D02*
X178823809Y-93052380D01*
X178919047Y-93100000D01*
X178966666Y-93147619D01*
X179014285Y-93242857D01*
X179061904Y-93433333D01*
X179061904Y-93671428D01*
X179014285Y-93861904D01*
X178966666Y-93957142D01*
X178919047Y-94004761D01*
X178823809Y-94052380D01*
X178728571Y-94052380D01*
X178633333Y-94004761D01*
X178585714Y-93957142D01*
X178538095Y-93861904D01*
X178490476Y-93671428D01*
X178490476Y-93433333D01*
X178538095Y-93242857D01*
X178585714Y-93147619D01*
X178633333Y-93100000D01*
X178728571Y-93052380D01*
X200127142Y-85732857D02*
X200174761Y-85780476D01*
X200222380Y-85923333D01*
X200222380Y-86018571D01*
X200174761Y-86161428D01*
X200079523Y-86256666D01*
X199984285Y-86304285D01*
X199793809Y-86351904D01*
X199650952Y-86351904D01*
X199460476Y-86304285D01*
X199365238Y-86256666D01*
X199270000Y-86161428D01*
X199222380Y-86018571D01*
X199222380Y-85923333D01*
X199270000Y-85780476D01*
X199317619Y-85732857D01*
X200222380Y-84780476D02*
X200222380Y-85351904D01*
X200222380Y-85066190D02*
X199222380Y-85066190D01*
X199365238Y-85161428D01*
X199460476Y-85256666D01*
X199508095Y-85351904D01*
X200222380Y-83828095D02*
X200222380Y-84399523D01*
X200222380Y-84113809D02*
X199222380Y-84113809D01*
X199365238Y-84209047D01*
X199460476Y-84304285D01*
X199508095Y-84399523D01*
X217797142Y-92304142D02*
X217749523Y-92351761D01*
X217606666Y-92399380D01*
X217511428Y-92399380D01*
X217368571Y-92351761D01*
X217273333Y-92256523D01*
X217225714Y-92161285D01*
X217178095Y-91970809D01*
X217178095Y-91827952D01*
X217225714Y-91637476D01*
X217273333Y-91542238D01*
X217368571Y-91447000D01*
X217511428Y-91399380D01*
X217606666Y-91399380D01*
X217749523Y-91447000D01*
X217797142Y-91494619D01*
X218749523Y-92399380D02*
X218178095Y-92399380D01*
X218463809Y-92399380D02*
X218463809Y-91399380D01*
X218368571Y-91542238D01*
X218273333Y-91637476D01*
X218178095Y-91685095D01*
X219130476Y-91494619D02*
X219178095Y-91447000D01*
X219273333Y-91399380D01*
X219511428Y-91399380D01*
X219606666Y-91447000D01*
X219654285Y-91494619D01*
X219701904Y-91589857D01*
X219701904Y-91685095D01*
X219654285Y-91827952D01*
X219082857Y-92399380D01*
X219701904Y-92399380D01*
X198992142Y-95987142D02*
X198944523Y-96034761D01*
X198801666Y-96082380D01*
X198706428Y-96082380D01*
X198563571Y-96034761D01*
X198468333Y-95939523D01*
X198420714Y-95844285D01*
X198373095Y-95653809D01*
X198373095Y-95510952D01*
X198420714Y-95320476D01*
X198468333Y-95225238D01*
X198563571Y-95130000D01*
X198706428Y-95082380D01*
X198801666Y-95082380D01*
X198944523Y-95130000D01*
X198992142Y-95177619D01*
X199944523Y-96082380D02*
X199373095Y-96082380D01*
X199658809Y-96082380D02*
X199658809Y-95082380D01*
X199563571Y-95225238D01*
X199468333Y-95320476D01*
X199373095Y-95368095D01*
X200277857Y-95082380D02*
X200896904Y-95082380D01*
X200563571Y-95463333D01*
X200706428Y-95463333D01*
X200801666Y-95510952D01*
X200849285Y-95558571D01*
X200896904Y-95653809D01*
X200896904Y-95891904D01*
X200849285Y-95987142D01*
X200801666Y-96034761D01*
X200706428Y-96082380D01*
X200420714Y-96082380D01*
X200325476Y-96034761D01*
X200277857Y-95987142D01*
X196827142Y-90765238D02*
X196874761Y-90812857D01*
X196922380Y-90955714D01*
X196922380Y-91050952D01*
X196874761Y-91193809D01*
X196779523Y-91289047D01*
X196684285Y-91336666D01*
X196493809Y-91384285D01*
X196350952Y-91384285D01*
X196160476Y-91336666D01*
X196065238Y-91289047D01*
X195970000Y-91193809D01*
X195922380Y-91050952D01*
X195922380Y-90955714D01*
X195970000Y-90812857D01*
X196017619Y-90765238D01*
X196636666Y-90384285D02*
X196636666Y-89908095D01*
X196922380Y-90479523D02*
X195922380Y-90146190D01*
X196922380Y-89812857D01*
X196922380Y-88955714D02*
X196922380Y-89527142D01*
X196922380Y-89241428D02*
X195922380Y-89241428D01*
X196065238Y-89336666D01*
X196160476Y-89431904D01*
X196208095Y-89527142D01*
X200637142Y-90765238D02*
X200684761Y-90812857D01*
X200732380Y-90955714D01*
X200732380Y-91050952D01*
X200684761Y-91193809D01*
X200589523Y-91289047D01*
X200494285Y-91336666D01*
X200303809Y-91384285D01*
X200160952Y-91384285D01*
X199970476Y-91336666D01*
X199875238Y-91289047D01*
X199780000Y-91193809D01*
X199732380Y-91050952D01*
X199732380Y-90955714D01*
X199780000Y-90812857D01*
X199827619Y-90765238D01*
X200446666Y-90384285D02*
X200446666Y-89908095D01*
X200732380Y-90479523D02*
X199732380Y-90146190D01*
X200732380Y-89812857D01*
X199827619Y-89527142D02*
X199780000Y-89479523D01*
X199732380Y-89384285D01*
X199732380Y-89146190D01*
X199780000Y-89050952D01*
X199827619Y-89003333D01*
X199922857Y-88955714D01*
X200018095Y-88955714D01*
X200160952Y-89003333D01*
X200732380Y-89574761D01*
X200732380Y-88955714D01*
X192706666Y-105902380D02*
X192706666Y-106616666D01*
X192659047Y-106759523D01*
X192563809Y-106854761D01*
X192420952Y-106902380D01*
X192325714Y-106902380D01*
X193706666Y-106902380D02*
X193135238Y-106902380D01*
X193420952Y-106902380D02*
X193420952Y-105902380D01*
X193325714Y-106045238D01*
X193230476Y-106140476D01*
X193135238Y-106188095D01*
X224242380Y-84153333D02*
X224956666Y-84153333D01*
X225099523Y-84200952D01*
X225194761Y-84296190D01*
X225242380Y-84439047D01*
X225242380Y-84534285D01*
X224337619Y-83724761D02*
X224290000Y-83677142D01*
X224242380Y-83581904D01*
X224242380Y-83343809D01*
X224290000Y-83248571D01*
X224337619Y-83200952D01*
X224432857Y-83153333D01*
X224528095Y-83153333D01*
X224670952Y-83200952D01*
X225242380Y-83772380D01*
X225242380Y-83153333D01*
X206676666Y-94392380D02*
X206676666Y-95106666D01*
X206629047Y-95249523D01*
X206533809Y-95344761D01*
X206390952Y-95392380D01*
X206295714Y-95392380D01*
X207057619Y-94392380D02*
X207676666Y-94392380D01*
X207343333Y-94773333D01*
X207486190Y-94773333D01*
X207581428Y-94820952D01*
X207629047Y-94868571D01*
X207676666Y-94963809D01*
X207676666Y-95201904D01*
X207629047Y-95297142D01*
X207581428Y-95344761D01*
X207486190Y-95392380D01*
X207200476Y-95392380D01*
X207105238Y-95344761D01*
X207057619Y-95297142D01*
X196438333Y-80208380D02*
X196105000Y-79732190D01*
X195866904Y-80208380D02*
X195866904Y-79208380D01*
X196247857Y-79208380D01*
X196343095Y-79256000D01*
X196390714Y-79303619D01*
X196438333Y-79398857D01*
X196438333Y-79541714D01*
X196390714Y-79636952D01*
X196343095Y-79684571D01*
X196247857Y-79732190D01*
X195866904Y-79732190D01*
X197390714Y-80208380D02*
X196819285Y-80208380D01*
X197105000Y-80208380D02*
X197105000Y-79208380D01*
X197009761Y-79351238D01*
X196914523Y-79446476D01*
X196819285Y-79494095D01*
X179812380Y-81851904D02*
X180621904Y-81851904D01*
X180717142Y-81804285D01*
X180764761Y-81756666D01*
X180812380Y-81661428D01*
X180812380Y-81470952D01*
X180764761Y-81375714D01*
X180717142Y-81328095D01*
X180621904Y-81280476D01*
X179812380Y-81280476D01*
X179907619Y-80851904D02*
X179860000Y-80804285D01*
X179812380Y-80709047D01*
X179812380Y-80470952D01*
X179860000Y-80375714D01*
X179907619Y-80328095D01*
X180002857Y-80280476D01*
X180098095Y-80280476D01*
X180240952Y-80328095D01*
X180812380Y-80899523D01*
X180812380Y-80280476D01*
X181864095Y-109307380D02*
X181864095Y-110116904D01*
X181911714Y-110212142D01*
X181959333Y-110259761D01*
X182054571Y-110307380D01*
X182245047Y-110307380D01*
X182340285Y-110259761D01*
X182387904Y-110212142D01*
X182435523Y-110116904D01*
X182435523Y-109307380D01*
X182816476Y-109307380D02*
X183435523Y-109307380D01*
X183102190Y-109688333D01*
X183245047Y-109688333D01*
X183340285Y-109735952D01*
X183387904Y-109783571D01*
X183435523Y-109878809D01*
X183435523Y-110116904D01*
X183387904Y-110212142D01*
X183340285Y-110259761D01*
X183245047Y-110307380D01*
X182959333Y-110307380D01*
X182864095Y-110259761D01*
X182816476Y-110212142D01*
D12*
X204449380Y-80503523D02*
X204449380Y-81531619D01*
X204509857Y-81652571D01*
X204570333Y-81713047D01*
X204691285Y-81773523D01*
X204933190Y-81773523D01*
X205054142Y-81713047D01*
X205114619Y-81652571D01*
X205175095Y-81531619D01*
X205175095Y-80503523D01*
X206445095Y-81773523D02*
X205719380Y-81773523D01*
X206082238Y-81773523D02*
X206082238Y-80503523D01*
X205961285Y-80684952D01*
X205840333Y-80805904D01*
X205719380Y-80866380D01*
D14*
X183411904Y-92782380D02*
X183411904Y-91782380D01*
X183650000Y-91782380D01*
X183792857Y-91830000D01*
X183888095Y-91925238D01*
X183935714Y-92020476D01*
X183983333Y-92210952D01*
X183983333Y-92353809D01*
X183935714Y-92544285D01*
X183888095Y-92639523D01*
X183792857Y-92734761D01*
X183650000Y-92782380D01*
X183411904Y-92782380D01*
X184935714Y-92782380D02*
X184364285Y-92782380D01*
X184650000Y-92782380D02*
X184650000Y-91782380D01*
X184554761Y-91925238D01*
X184459523Y-92020476D01*
X184364285Y-92068095D01*
X189761904Y-92909380D02*
X189761904Y-91909380D01*
X190000000Y-91909380D01*
X190142857Y-91957000D01*
X190238095Y-92052238D01*
X190285714Y-92147476D01*
X190333333Y-92337952D01*
X190333333Y-92480809D01*
X190285714Y-92671285D01*
X190238095Y-92766523D01*
X190142857Y-92861761D01*
X190000000Y-92909380D01*
X189761904Y-92909380D01*
X190714285Y-92004619D02*
X190761904Y-91957000D01*
X190857142Y-91909380D01*
X191095238Y-91909380D01*
X191190476Y-91957000D01*
X191238095Y-92004619D01*
X191285714Y-92099857D01*
X191285714Y-92195095D01*
X191238095Y-92337952D01*
X190666666Y-92909380D01*
X191285714Y-92909380D01*
D12*
X203343047Y-99586523D02*
X202919714Y-98981761D01*
X202617333Y-99586523D02*
X202617333Y-98316523D01*
X203101142Y-98316523D01*
X203222095Y-98377000D01*
X203282571Y-98437476D01*
X203343047Y-98558428D01*
X203343047Y-98739857D01*
X203282571Y-98860809D01*
X203222095Y-98921285D01*
X203101142Y-98981761D01*
X202617333Y-98981761D01*
X203705904Y-98316523D02*
X204129238Y-99586523D01*
X204552571Y-98316523D01*
X205641142Y-99586523D02*
X204915428Y-99586523D01*
X205278285Y-99586523D02*
X205278285Y-98316523D01*
X205157333Y-98497952D01*
X205036380Y-98618904D01*
X204915428Y-98679380D01*
D14*
X214409762Y-84015332D02*
X214457381Y-83872475D01*
X214457381Y-83634379D01*
X214409762Y-83539141D01*
X214362143Y-83491522D01*
X214266905Y-83443903D01*
X214171667Y-83443903D01*
X214076429Y-83491522D01*
X214028810Y-83539141D01*
X213981191Y-83634379D01*
X213933572Y-83824856D01*
X213885953Y-83920094D01*
X213838334Y-83967713D01*
X213743096Y-84015332D01*
X213647858Y-84015332D01*
X213552620Y-83967713D01*
X213505001Y-83920094D01*
X213457381Y-83824856D01*
X213457381Y-83586760D01*
X213505001Y-83443903D01*
X213457381Y-83110570D02*
X214457381Y-82872475D01*
X213743096Y-82681999D01*
X214457381Y-82491522D01*
X213457381Y-82253427D01*
X214457381Y-81348665D02*
X214457381Y-81920094D01*
X214457381Y-81634379D02*
X213457381Y-81634379D01*
X213600239Y-81729618D01*
X213695477Y-81824856D01*
X213743096Y-81920094D01*
D12*
X221554523Y-108554761D02*
X220284523Y-108554761D01*
X221070714Y-108433809D02*
X221554523Y-108070952D01*
X220707857Y-108070952D02*
X221191666Y-108554761D01*
X221554523Y-107526666D02*
X220707857Y-107526666D01*
X220828809Y-107526666D02*
X220768333Y-107466190D01*
X220707857Y-107345238D01*
X220707857Y-107163809D01*
X220768333Y-107042857D01*
X220889285Y-106982380D01*
X221554523Y-106982380D01*
X220889285Y-106982380D02*
X220768333Y-106921904D01*
X220707857Y-106800952D01*
X220707857Y-106619523D01*
X220768333Y-106498571D01*
X220889285Y-106438095D01*
X221554523Y-106438095D01*
X220707857Y-106014761D02*
X220707857Y-105530952D01*
X220284523Y-105833333D02*
X221373095Y-105833333D01*
X221494047Y-105772857D01*
X221554523Y-105651904D01*
X221554523Y-105530952D01*
X220707857Y-104563333D02*
X221735952Y-104563333D01*
X221856904Y-104623809D01*
X221917380Y-104684285D01*
X221977857Y-104805238D01*
X221977857Y-104986666D01*
X221917380Y-105107619D01*
X221494047Y-104563333D02*
X221554523Y-104684285D01*
X221554523Y-104926190D01*
X221494047Y-105047142D01*
X221433571Y-105107619D01*
X221312619Y-105168095D01*
X220949761Y-105168095D01*
X220828809Y-105107619D01*
X220768333Y-105047142D01*
X220707857Y-104926190D01*
X220707857Y-104684285D01*
X220768333Y-104563333D01*
X221554523Y-103293333D02*
X221554523Y-104019047D01*
X221554523Y-103656190D02*
X220284523Y-103656190D01*
X220465952Y-103777142D01*
X220586904Y-103898095D01*
X220647380Y-104019047D01*
X220284523Y-102204761D02*
X220284523Y-102446666D01*
X220345000Y-102567619D01*
X220405476Y-102628095D01*
X220586904Y-102749047D01*
X220828809Y-102809523D01*
X221312619Y-102809523D01*
X221433571Y-102749047D01*
X221494047Y-102688571D01*
X221554523Y-102567619D01*
X221554523Y-102325714D01*
X221494047Y-102204761D01*
X221433571Y-102144285D01*
X221312619Y-102083809D01*
X221010238Y-102083809D01*
X220889285Y-102144285D01*
X220828809Y-102204761D01*
X220768333Y-102325714D01*
X220768333Y-102567619D01*
X220828809Y-102688571D01*
X220889285Y-102749047D01*
X221010238Y-102809523D01*
X220284523Y-101297619D02*
X220284523Y-101176666D01*
X220345000Y-101055714D01*
X220405476Y-100995238D01*
X220526428Y-100934761D01*
X220768333Y-100874285D01*
X221070714Y-100874285D01*
X221312619Y-100934761D01*
X221433571Y-100995238D01*
X221494047Y-101055714D01*
X221554523Y-101176666D01*
X221554523Y-101297619D01*
X221494047Y-101418571D01*
X221433571Y-101479047D01*
X221312619Y-101539523D01*
X221070714Y-101600000D01*
X220768333Y-101600000D01*
X220526428Y-101539523D01*
X220405476Y-101479047D01*
X220345000Y-101418571D01*
X220284523Y-101297619D01*
X220284523Y-100450952D02*
X220284523Y-99664761D01*
X220768333Y-100088095D01*
X220768333Y-99906666D01*
X220828809Y-99785714D01*
X220889285Y-99725238D01*
X221010238Y-99664761D01*
X221312619Y-99664761D01*
X221433571Y-99725238D01*
X221494047Y-99785714D01*
X221554523Y-99906666D01*
X221554523Y-100269523D01*
X221494047Y-100390476D01*
X221433571Y-100450952D01*
X204242380Y-113864523D02*
X204242380Y-114892619D01*
X204302857Y-115013571D01*
X204363333Y-115074047D01*
X204484285Y-115134523D01*
X204726190Y-115134523D01*
X204847142Y-115074047D01*
X204907619Y-115013571D01*
X204968095Y-114892619D01*
X204968095Y-113864523D01*
X206117142Y-114287857D02*
X206117142Y-115134523D01*
X205814761Y-113804047D02*
X205512380Y-114711190D01*
X206298571Y-114711190D01*
M02*
