G04 #@! TF.GenerationSoftware,KiCad,Pcbnew,(5.1.5-0-10_14)*
G04 #@! TF.CreationDate,2020-02-12T14:54:00+01:00*
G04 #@! TF.ProjectId,EDS_ALARM,4544535f-414c-4415-924d-2e6b69636164,rev?*
G04 #@! TF.SameCoordinates,Original*
G04 #@! TF.FileFunction,Paste,Top*
G04 #@! TF.FilePolarity,Positive*
%FSLAX46Y46*%
G04 Gerber Fmt 4.6, Leading zero omitted, Abs format (unit mm)*
G04 Created by KiCad (PCBNEW (5.1.5-0-10_14)) date 2020-02-12 14:54:00*
%MOMM*%
%LPD*%
G04 APERTURE LIST*
%ADD10C,0.100000*%
%ADD11R,0.500000X2.000000*%
%ADD12R,2.000000X1.700000*%
%ADD13R,1.050000X2.200000*%
%ADD14R,1.000000X1.000000*%
%ADD15R,0.500000X0.800000*%
%ADD16R,0.800000X0.500000*%
%ADD17R,1.600000X1.600000*%
%ADD18R,3.800000X2.000000*%
%ADD19R,1.500000X2.000000*%
%ADD20R,1.300000X1.300000*%
%ADD21R,1.300000X2.000000*%
%ADD22R,1.300000X1.550000*%
%ADD23R,3.500000X2.500000*%
G04 APERTURE END LIST*
D10*
G36*
X185894505Y-102051204D02*
G01*
X185918773Y-102054804D01*
X185942572Y-102060765D01*
X185965671Y-102069030D01*
X185987850Y-102079520D01*
X186008893Y-102092132D01*
X186028599Y-102106747D01*
X186046777Y-102123223D01*
X186063253Y-102141401D01*
X186077868Y-102161107D01*
X186090480Y-102182150D01*
X186100970Y-102204329D01*
X186109235Y-102227428D01*
X186115196Y-102251227D01*
X186118796Y-102275495D01*
X186120000Y-102299999D01*
X186120000Y-102950001D01*
X186118796Y-102974505D01*
X186115196Y-102998773D01*
X186109235Y-103022572D01*
X186100970Y-103045671D01*
X186090480Y-103067850D01*
X186077868Y-103088893D01*
X186063253Y-103108599D01*
X186046777Y-103126777D01*
X186028599Y-103143253D01*
X186008893Y-103157868D01*
X185987850Y-103170480D01*
X185965671Y-103180970D01*
X185942572Y-103189235D01*
X185918773Y-103195196D01*
X185894505Y-103198796D01*
X185870001Y-103200000D01*
X184969999Y-103200000D01*
X184945495Y-103198796D01*
X184921227Y-103195196D01*
X184897428Y-103189235D01*
X184874329Y-103180970D01*
X184852150Y-103170480D01*
X184831107Y-103157868D01*
X184811401Y-103143253D01*
X184793223Y-103126777D01*
X184776747Y-103108599D01*
X184762132Y-103088893D01*
X184749520Y-103067850D01*
X184739030Y-103045671D01*
X184730765Y-103022572D01*
X184724804Y-102998773D01*
X184721204Y-102974505D01*
X184720000Y-102950001D01*
X184720000Y-102299999D01*
X184721204Y-102275495D01*
X184724804Y-102251227D01*
X184730765Y-102227428D01*
X184739030Y-102204329D01*
X184749520Y-102182150D01*
X184762132Y-102161107D01*
X184776747Y-102141401D01*
X184793223Y-102123223D01*
X184811401Y-102106747D01*
X184831107Y-102092132D01*
X184852150Y-102079520D01*
X184874329Y-102069030D01*
X184897428Y-102060765D01*
X184921227Y-102054804D01*
X184945495Y-102051204D01*
X184969999Y-102050000D01*
X185870001Y-102050000D01*
X185894505Y-102051204D01*
G37*
G36*
X185894505Y-100001204D02*
G01*
X185918773Y-100004804D01*
X185942572Y-100010765D01*
X185965671Y-100019030D01*
X185987850Y-100029520D01*
X186008893Y-100042132D01*
X186028599Y-100056747D01*
X186046777Y-100073223D01*
X186063253Y-100091401D01*
X186077868Y-100111107D01*
X186090480Y-100132150D01*
X186100970Y-100154329D01*
X186109235Y-100177428D01*
X186115196Y-100201227D01*
X186118796Y-100225495D01*
X186120000Y-100249999D01*
X186120000Y-100900001D01*
X186118796Y-100924505D01*
X186115196Y-100948773D01*
X186109235Y-100972572D01*
X186100970Y-100995671D01*
X186090480Y-101017850D01*
X186077868Y-101038893D01*
X186063253Y-101058599D01*
X186046777Y-101076777D01*
X186028599Y-101093253D01*
X186008893Y-101107868D01*
X185987850Y-101120480D01*
X185965671Y-101130970D01*
X185942572Y-101139235D01*
X185918773Y-101145196D01*
X185894505Y-101148796D01*
X185870001Y-101150000D01*
X184969999Y-101150000D01*
X184945495Y-101148796D01*
X184921227Y-101145196D01*
X184897428Y-101139235D01*
X184874329Y-101130970D01*
X184852150Y-101120480D01*
X184831107Y-101107868D01*
X184811401Y-101093253D01*
X184793223Y-101076777D01*
X184776747Y-101058599D01*
X184762132Y-101038893D01*
X184749520Y-101017850D01*
X184739030Y-100995671D01*
X184730765Y-100972572D01*
X184724804Y-100948773D01*
X184721204Y-100924505D01*
X184720000Y-100900001D01*
X184720000Y-100249999D01*
X184721204Y-100225495D01*
X184724804Y-100201227D01*
X184730765Y-100177428D01*
X184739030Y-100154329D01*
X184749520Y-100132150D01*
X184762132Y-100111107D01*
X184776747Y-100091401D01*
X184793223Y-100073223D01*
X184811401Y-100056747D01*
X184831107Y-100042132D01*
X184852150Y-100029520D01*
X184874329Y-100019030D01*
X184897428Y-100010765D01*
X184921227Y-100004804D01*
X184945495Y-100001204D01*
X184969999Y-100000000D01*
X185870001Y-100000000D01*
X185894505Y-100001204D01*
G37*
G36*
X192344504Y-97901204D02*
G01*
X192368773Y-97904804D01*
X192392571Y-97910765D01*
X192415671Y-97919030D01*
X192437849Y-97929520D01*
X192458893Y-97942133D01*
X192478598Y-97956747D01*
X192496777Y-97973223D01*
X192513253Y-97991402D01*
X192527867Y-98011107D01*
X192540480Y-98032151D01*
X192550970Y-98054329D01*
X192559235Y-98077429D01*
X192565196Y-98101227D01*
X192568796Y-98125496D01*
X192570000Y-98150000D01*
X192570000Y-100650000D01*
X192568796Y-100674504D01*
X192565196Y-100698773D01*
X192559235Y-100722571D01*
X192550970Y-100745671D01*
X192540480Y-100767849D01*
X192527867Y-100788893D01*
X192513253Y-100808598D01*
X192496777Y-100826777D01*
X192478598Y-100843253D01*
X192458893Y-100857867D01*
X192437849Y-100870480D01*
X192415671Y-100880970D01*
X192392571Y-100889235D01*
X192368773Y-100895196D01*
X192344504Y-100898796D01*
X192320000Y-100900000D01*
X191220000Y-100900000D01*
X191195496Y-100898796D01*
X191171227Y-100895196D01*
X191147429Y-100889235D01*
X191124329Y-100880970D01*
X191102151Y-100870480D01*
X191081107Y-100857867D01*
X191061402Y-100843253D01*
X191043223Y-100826777D01*
X191026747Y-100808598D01*
X191012133Y-100788893D01*
X190999520Y-100767849D01*
X190989030Y-100745671D01*
X190980765Y-100722571D01*
X190974804Y-100698773D01*
X190971204Y-100674504D01*
X190970000Y-100650000D01*
X190970000Y-98150000D01*
X190971204Y-98125496D01*
X190974804Y-98101227D01*
X190980765Y-98077429D01*
X190989030Y-98054329D01*
X190999520Y-98032151D01*
X191012133Y-98011107D01*
X191026747Y-97991402D01*
X191043223Y-97973223D01*
X191061402Y-97956747D01*
X191081107Y-97942133D01*
X191102151Y-97929520D01*
X191124329Y-97919030D01*
X191147429Y-97910765D01*
X191171227Y-97904804D01*
X191195496Y-97901204D01*
X191220000Y-97900000D01*
X192320000Y-97900000D01*
X192344504Y-97901204D01*
G37*
G36*
X192344504Y-102301204D02*
G01*
X192368773Y-102304804D01*
X192392571Y-102310765D01*
X192415671Y-102319030D01*
X192437849Y-102329520D01*
X192458893Y-102342133D01*
X192478598Y-102356747D01*
X192496777Y-102373223D01*
X192513253Y-102391402D01*
X192527867Y-102411107D01*
X192540480Y-102432151D01*
X192550970Y-102454329D01*
X192559235Y-102477429D01*
X192565196Y-102501227D01*
X192568796Y-102525496D01*
X192570000Y-102550000D01*
X192570000Y-105050000D01*
X192568796Y-105074504D01*
X192565196Y-105098773D01*
X192559235Y-105122571D01*
X192550970Y-105145671D01*
X192540480Y-105167849D01*
X192527867Y-105188893D01*
X192513253Y-105208598D01*
X192496777Y-105226777D01*
X192478598Y-105243253D01*
X192458893Y-105257867D01*
X192437849Y-105270480D01*
X192415671Y-105280970D01*
X192392571Y-105289235D01*
X192368773Y-105295196D01*
X192344504Y-105298796D01*
X192320000Y-105300000D01*
X191220000Y-105300000D01*
X191195496Y-105298796D01*
X191171227Y-105295196D01*
X191147429Y-105289235D01*
X191124329Y-105280970D01*
X191102151Y-105270480D01*
X191081107Y-105257867D01*
X191061402Y-105243253D01*
X191043223Y-105226777D01*
X191026747Y-105208598D01*
X191012133Y-105188893D01*
X190999520Y-105167849D01*
X190989030Y-105145671D01*
X190980765Y-105122571D01*
X190974804Y-105098773D01*
X190971204Y-105074504D01*
X190970000Y-105050000D01*
X190970000Y-102550000D01*
X190971204Y-102525496D01*
X190974804Y-102501227D01*
X190980765Y-102477429D01*
X190989030Y-102454329D01*
X190999520Y-102432151D01*
X191012133Y-102411107D01*
X191026747Y-102391402D01*
X191043223Y-102373223D01*
X191061402Y-102356747D01*
X191081107Y-102342133D01*
X191102151Y-102329520D01*
X191124329Y-102319030D01*
X191147429Y-102310765D01*
X191171227Y-102304804D01*
X191195496Y-102301204D01*
X191220000Y-102300000D01*
X192320000Y-102300000D01*
X192344504Y-102301204D01*
G37*
G36*
X198594505Y-100001204D02*
G01*
X198618773Y-100004804D01*
X198642572Y-100010765D01*
X198665671Y-100019030D01*
X198687850Y-100029520D01*
X198708893Y-100042132D01*
X198728599Y-100056747D01*
X198746777Y-100073223D01*
X198763253Y-100091401D01*
X198777868Y-100111107D01*
X198790480Y-100132150D01*
X198800970Y-100154329D01*
X198809235Y-100177428D01*
X198815196Y-100201227D01*
X198818796Y-100225495D01*
X198820000Y-100249999D01*
X198820000Y-100900001D01*
X198818796Y-100924505D01*
X198815196Y-100948773D01*
X198809235Y-100972572D01*
X198800970Y-100995671D01*
X198790480Y-101017850D01*
X198777868Y-101038893D01*
X198763253Y-101058599D01*
X198746777Y-101076777D01*
X198728599Y-101093253D01*
X198708893Y-101107868D01*
X198687850Y-101120480D01*
X198665671Y-101130970D01*
X198642572Y-101139235D01*
X198618773Y-101145196D01*
X198594505Y-101148796D01*
X198570001Y-101150000D01*
X197669999Y-101150000D01*
X197645495Y-101148796D01*
X197621227Y-101145196D01*
X197597428Y-101139235D01*
X197574329Y-101130970D01*
X197552150Y-101120480D01*
X197531107Y-101107868D01*
X197511401Y-101093253D01*
X197493223Y-101076777D01*
X197476747Y-101058599D01*
X197462132Y-101038893D01*
X197449520Y-101017850D01*
X197439030Y-100995671D01*
X197430765Y-100972572D01*
X197424804Y-100948773D01*
X197421204Y-100924505D01*
X197420000Y-100900001D01*
X197420000Y-100249999D01*
X197421204Y-100225495D01*
X197424804Y-100201227D01*
X197430765Y-100177428D01*
X197439030Y-100154329D01*
X197449520Y-100132150D01*
X197462132Y-100111107D01*
X197476747Y-100091401D01*
X197493223Y-100073223D01*
X197511401Y-100056747D01*
X197531107Y-100042132D01*
X197552150Y-100029520D01*
X197574329Y-100019030D01*
X197597428Y-100010765D01*
X197621227Y-100004804D01*
X197645495Y-100001204D01*
X197669999Y-100000000D01*
X198570001Y-100000000D01*
X198594505Y-100001204D01*
G37*
G36*
X198594505Y-102051204D02*
G01*
X198618773Y-102054804D01*
X198642572Y-102060765D01*
X198665671Y-102069030D01*
X198687850Y-102079520D01*
X198708893Y-102092132D01*
X198728599Y-102106747D01*
X198746777Y-102123223D01*
X198763253Y-102141401D01*
X198777868Y-102161107D01*
X198790480Y-102182150D01*
X198800970Y-102204329D01*
X198809235Y-102227428D01*
X198815196Y-102251227D01*
X198818796Y-102275495D01*
X198820000Y-102299999D01*
X198820000Y-102950001D01*
X198818796Y-102974505D01*
X198815196Y-102998773D01*
X198809235Y-103022572D01*
X198800970Y-103045671D01*
X198790480Y-103067850D01*
X198777868Y-103088893D01*
X198763253Y-103108599D01*
X198746777Y-103126777D01*
X198728599Y-103143253D01*
X198708893Y-103157868D01*
X198687850Y-103170480D01*
X198665671Y-103180970D01*
X198642572Y-103189235D01*
X198618773Y-103195196D01*
X198594505Y-103198796D01*
X198570001Y-103200000D01*
X197669999Y-103200000D01*
X197645495Y-103198796D01*
X197621227Y-103195196D01*
X197597428Y-103189235D01*
X197574329Y-103180970D01*
X197552150Y-103170480D01*
X197531107Y-103157868D01*
X197511401Y-103143253D01*
X197493223Y-103126777D01*
X197476747Y-103108599D01*
X197462132Y-103088893D01*
X197449520Y-103067850D01*
X197439030Y-103045671D01*
X197430765Y-103022572D01*
X197424804Y-102998773D01*
X197421204Y-102974505D01*
X197420000Y-102950001D01*
X197420000Y-102299999D01*
X197421204Y-102275495D01*
X197424804Y-102251227D01*
X197430765Y-102227428D01*
X197439030Y-102204329D01*
X197449520Y-102182150D01*
X197462132Y-102161107D01*
X197476747Y-102141401D01*
X197493223Y-102123223D01*
X197511401Y-102106747D01*
X197531107Y-102092132D01*
X197552150Y-102079520D01*
X197574329Y-102069030D01*
X197597428Y-102060765D01*
X197621227Y-102054804D01*
X197645495Y-102051204D01*
X197669999Y-102050000D01*
X198570001Y-102050000D01*
X198594505Y-102051204D01*
G37*
G36*
X177214504Y-100801204D02*
G01*
X177238773Y-100804804D01*
X177262571Y-100810765D01*
X177285671Y-100819030D01*
X177307849Y-100829520D01*
X177328893Y-100842133D01*
X177348598Y-100856747D01*
X177366777Y-100873223D01*
X177383253Y-100891402D01*
X177397867Y-100911107D01*
X177410480Y-100932151D01*
X177420970Y-100954329D01*
X177429235Y-100977429D01*
X177435196Y-101001227D01*
X177438796Y-101025496D01*
X177440000Y-101050000D01*
X177440000Y-102150000D01*
X177438796Y-102174504D01*
X177435196Y-102198773D01*
X177429235Y-102222571D01*
X177420970Y-102245671D01*
X177410480Y-102267849D01*
X177397867Y-102288893D01*
X177383253Y-102308598D01*
X177366777Y-102326777D01*
X177348598Y-102343253D01*
X177328893Y-102357867D01*
X177307849Y-102370480D01*
X177285671Y-102380970D01*
X177262571Y-102389235D01*
X177238773Y-102395196D01*
X177214504Y-102398796D01*
X177190000Y-102400000D01*
X174690000Y-102400000D01*
X174665496Y-102398796D01*
X174641227Y-102395196D01*
X174617429Y-102389235D01*
X174594329Y-102380970D01*
X174572151Y-102370480D01*
X174551107Y-102357867D01*
X174531402Y-102343253D01*
X174513223Y-102326777D01*
X174496747Y-102308598D01*
X174482133Y-102288893D01*
X174469520Y-102267849D01*
X174459030Y-102245671D01*
X174450765Y-102222571D01*
X174444804Y-102198773D01*
X174441204Y-102174504D01*
X174440000Y-102150000D01*
X174440000Y-101050000D01*
X174441204Y-101025496D01*
X174444804Y-101001227D01*
X174450765Y-100977429D01*
X174459030Y-100954329D01*
X174469520Y-100932151D01*
X174482133Y-100911107D01*
X174496747Y-100891402D01*
X174513223Y-100873223D01*
X174531402Y-100856747D01*
X174551107Y-100842133D01*
X174572151Y-100829520D01*
X174594329Y-100819030D01*
X174617429Y-100810765D01*
X174641227Y-100804804D01*
X174665496Y-100801204D01*
X174690000Y-100800000D01*
X177190000Y-100800000D01*
X177214504Y-100801204D01*
G37*
G36*
X181614504Y-100801204D02*
G01*
X181638773Y-100804804D01*
X181662571Y-100810765D01*
X181685671Y-100819030D01*
X181707849Y-100829520D01*
X181728893Y-100842133D01*
X181748598Y-100856747D01*
X181766777Y-100873223D01*
X181783253Y-100891402D01*
X181797867Y-100911107D01*
X181810480Y-100932151D01*
X181820970Y-100954329D01*
X181829235Y-100977429D01*
X181835196Y-101001227D01*
X181838796Y-101025496D01*
X181840000Y-101050000D01*
X181840000Y-102150000D01*
X181838796Y-102174504D01*
X181835196Y-102198773D01*
X181829235Y-102222571D01*
X181820970Y-102245671D01*
X181810480Y-102267849D01*
X181797867Y-102288893D01*
X181783253Y-102308598D01*
X181766777Y-102326777D01*
X181748598Y-102343253D01*
X181728893Y-102357867D01*
X181707849Y-102370480D01*
X181685671Y-102380970D01*
X181662571Y-102389235D01*
X181638773Y-102395196D01*
X181614504Y-102398796D01*
X181590000Y-102400000D01*
X179090000Y-102400000D01*
X179065496Y-102398796D01*
X179041227Y-102395196D01*
X179017429Y-102389235D01*
X178994329Y-102380970D01*
X178972151Y-102370480D01*
X178951107Y-102357867D01*
X178931402Y-102343253D01*
X178913223Y-102326777D01*
X178896747Y-102308598D01*
X178882133Y-102288893D01*
X178869520Y-102267849D01*
X178859030Y-102245671D01*
X178850765Y-102222571D01*
X178844804Y-102198773D01*
X178841204Y-102174504D01*
X178840000Y-102150000D01*
X178840000Y-101050000D01*
X178841204Y-101025496D01*
X178844804Y-101001227D01*
X178850765Y-100977429D01*
X178859030Y-100954329D01*
X178869520Y-100932151D01*
X178882133Y-100911107D01*
X178896747Y-100891402D01*
X178913223Y-100873223D01*
X178931402Y-100856747D01*
X178951107Y-100842133D01*
X178972151Y-100829520D01*
X178994329Y-100819030D01*
X179017429Y-100810765D01*
X179041227Y-100804804D01*
X179065496Y-100801204D01*
X179090000Y-100800000D01*
X181590000Y-100800000D01*
X181614504Y-100801204D01*
G37*
G36*
X177904505Y-105981204D02*
G01*
X177928773Y-105984804D01*
X177952572Y-105990765D01*
X177975671Y-105999030D01*
X177997850Y-106009520D01*
X178018893Y-106022132D01*
X178038599Y-106036747D01*
X178056777Y-106053223D01*
X178073253Y-106071401D01*
X178087868Y-106091107D01*
X178100480Y-106112150D01*
X178110970Y-106134329D01*
X178119235Y-106157428D01*
X178125196Y-106181227D01*
X178128796Y-106205495D01*
X178130000Y-106229999D01*
X178130000Y-107130001D01*
X178128796Y-107154505D01*
X178125196Y-107178773D01*
X178119235Y-107202572D01*
X178110970Y-107225671D01*
X178100480Y-107247850D01*
X178087868Y-107268893D01*
X178073253Y-107288599D01*
X178056777Y-107306777D01*
X178038599Y-107323253D01*
X178018893Y-107337868D01*
X177997850Y-107350480D01*
X177975671Y-107360970D01*
X177952572Y-107369235D01*
X177928773Y-107375196D01*
X177904505Y-107378796D01*
X177880001Y-107380000D01*
X177229999Y-107380000D01*
X177205495Y-107378796D01*
X177181227Y-107375196D01*
X177157428Y-107369235D01*
X177134329Y-107360970D01*
X177112150Y-107350480D01*
X177091107Y-107337868D01*
X177071401Y-107323253D01*
X177053223Y-107306777D01*
X177036747Y-107288599D01*
X177022132Y-107268893D01*
X177009520Y-107247850D01*
X176999030Y-107225671D01*
X176990765Y-107202572D01*
X176984804Y-107178773D01*
X176981204Y-107154505D01*
X176980000Y-107130001D01*
X176980000Y-106229999D01*
X176981204Y-106205495D01*
X176984804Y-106181227D01*
X176990765Y-106157428D01*
X176999030Y-106134329D01*
X177009520Y-106112150D01*
X177022132Y-106091107D01*
X177036747Y-106071401D01*
X177053223Y-106053223D01*
X177071401Y-106036747D01*
X177091107Y-106022132D01*
X177112150Y-106009520D01*
X177134329Y-105999030D01*
X177157428Y-105990765D01*
X177181227Y-105984804D01*
X177205495Y-105981204D01*
X177229999Y-105980000D01*
X177880001Y-105980000D01*
X177904505Y-105981204D01*
G37*
G36*
X175854505Y-105981204D02*
G01*
X175878773Y-105984804D01*
X175902572Y-105990765D01*
X175925671Y-105999030D01*
X175947850Y-106009520D01*
X175968893Y-106022132D01*
X175988599Y-106036747D01*
X176006777Y-106053223D01*
X176023253Y-106071401D01*
X176037868Y-106091107D01*
X176050480Y-106112150D01*
X176060970Y-106134329D01*
X176069235Y-106157428D01*
X176075196Y-106181227D01*
X176078796Y-106205495D01*
X176080000Y-106229999D01*
X176080000Y-107130001D01*
X176078796Y-107154505D01*
X176075196Y-107178773D01*
X176069235Y-107202572D01*
X176060970Y-107225671D01*
X176050480Y-107247850D01*
X176037868Y-107268893D01*
X176023253Y-107288599D01*
X176006777Y-107306777D01*
X175988599Y-107323253D01*
X175968893Y-107337868D01*
X175947850Y-107350480D01*
X175925671Y-107360970D01*
X175902572Y-107369235D01*
X175878773Y-107375196D01*
X175854505Y-107378796D01*
X175830001Y-107380000D01*
X175179999Y-107380000D01*
X175155495Y-107378796D01*
X175131227Y-107375196D01*
X175107428Y-107369235D01*
X175084329Y-107360970D01*
X175062150Y-107350480D01*
X175041107Y-107337868D01*
X175021401Y-107323253D01*
X175003223Y-107306777D01*
X174986747Y-107288599D01*
X174972132Y-107268893D01*
X174959520Y-107247850D01*
X174949030Y-107225671D01*
X174940765Y-107202572D01*
X174934804Y-107178773D01*
X174931204Y-107154505D01*
X174930000Y-107130001D01*
X174930000Y-106229999D01*
X174931204Y-106205495D01*
X174934804Y-106181227D01*
X174940765Y-106157428D01*
X174949030Y-106134329D01*
X174959520Y-106112150D01*
X174972132Y-106091107D01*
X174986747Y-106071401D01*
X175003223Y-106053223D01*
X175021401Y-106036747D01*
X175041107Y-106022132D01*
X175062150Y-106009520D01*
X175084329Y-105999030D01*
X175107428Y-105990765D01*
X175131227Y-105984804D01*
X175155495Y-105981204D01*
X175179999Y-105980000D01*
X175830001Y-105980000D01*
X175854505Y-105981204D01*
G37*
G36*
X179174505Y-81851204D02*
G01*
X179198773Y-81854804D01*
X179222572Y-81860765D01*
X179245671Y-81869030D01*
X179267850Y-81879520D01*
X179288893Y-81892132D01*
X179308599Y-81906747D01*
X179326777Y-81923223D01*
X179343253Y-81941401D01*
X179357868Y-81961107D01*
X179370480Y-81982150D01*
X179380970Y-82004329D01*
X179389235Y-82027428D01*
X179395196Y-82051227D01*
X179398796Y-82075495D01*
X179400000Y-82099999D01*
X179400000Y-83000001D01*
X179398796Y-83024505D01*
X179395196Y-83048773D01*
X179389235Y-83072572D01*
X179380970Y-83095671D01*
X179370480Y-83117850D01*
X179357868Y-83138893D01*
X179343253Y-83158599D01*
X179326777Y-83176777D01*
X179308599Y-83193253D01*
X179288893Y-83207868D01*
X179267850Y-83220480D01*
X179245671Y-83230970D01*
X179222572Y-83239235D01*
X179198773Y-83245196D01*
X179174505Y-83248796D01*
X179150001Y-83250000D01*
X178499999Y-83250000D01*
X178475495Y-83248796D01*
X178451227Y-83245196D01*
X178427428Y-83239235D01*
X178404329Y-83230970D01*
X178382150Y-83220480D01*
X178361107Y-83207868D01*
X178341401Y-83193253D01*
X178323223Y-83176777D01*
X178306747Y-83158599D01*
X178292132Y-83138893D01*
X178279520Y-83117850D01*
X178269030Y-83095671D01*
X178260765Y-83072572D01*
X178254804Y-83048773D01*
X178251204Y-83024505D01*
X178250000Y-83000001D01*
X178250000Y-82099999D01*
X178251204Y-82075495D01*
X178254804Y-82051227D01*
X178260765Y-82027428D01*
X178269030Y-82004329D01*
X178279520Y-81982150D01*
X178292132Y-81961107D01*
X178306747Y-81941401D01*
X178323223Y-81923223D01*
X178341401Y-81906747D01*
X178361107Y-81892132D01*
X178382150Y-81879520D01*
X178404329Y-81869030D01*
X178427428Y-81860765D01*
X178451227Y-81854804D01*
X178475495Y-81851204D01*
X178499999Y-81850000D01*
X179150001Y-81850000D01*
X179174505Y-81851204D01*
G37*
G36*
X177124505Y-81851204D02*
G01*
X177148773Y-81854804D01*
X177172572Y-81860765D01*
X177195671Y-81869030D01*
X177217850Y-81879520D01*
X177238893Y-81892132D01*
X177258599Y-81906747D01*
X177276777Y-81923223D01*
X177293253Y-81941401D01*
X177307868Y-81961107D01*
X177320480Y-81982150D01*
X177330970Y-82004329D01*
X177339235Y-82027428D01*
X177345196Y-82051227D01*
X177348796Y-82075495D01*
X177350000Y-82099999D01*
X177350000Y-83000001D01*
X177348796Y-83024505D01*
X177345196Y-83048773D01*
X177339235Y-83072572D01*
X177330970Y-83095671D01*
X177320480Y-83117850D01*
X177307868Y-83138893D01*
X177293253Y-83158599D01*
X177276777Y-83176777D01*
X177258599Y-83193253D01*
X177238893Y-83207868D01*
X177217850Y-83220480D01*
X177195671Y-83230970D01*
X177172572Y-83239235D01*
X177148773Y-83245196D01*
X177124505Y-83248796D01*
X177100001Y-83250000D01*
X176449999Y-83250000D01*
X176425495Y-83248796D01*
X176401227Y-83245196D01*
X176377428Y-83239235D01*
X176354329Y-83230970D01*
X176332150Y-83220480D01*
X176311107Y-83207868D01*
X176291401Y-83193253D01*
X176273223Y-83176777D01*
X176256747Y-83158599D01*
X176242132Y-83138893D01*
X176229520Y-83117850D01*
X176219030Y-83095671D01*
X176210765Y-83072572D01*
X176204804Y-83048773D01*
X176201204Y-83024505D01*
X176200000Y-83000001D01*
X176200000Y-82099999D01*
X176201204Y-82075495D01*
X176204804Y-82051227D01*
X176210765Y-82027428D01*
X176219030Y-82004329D01*
X176229520Y-81982150D01*
X176242132Y-81961107D01*
X176256747Y-81941401D01*
X176273223Y-81923223D01*
X176291401Y-81906747D01*
X176311107Y-81892132D01*
X176332150Y-81879520D01*
X176354329Y-81869030D01*
X176377428Y-81860765D01*
X176401227Y-81854804D01*
X176425495Y-81851204D01*
X176449999Y-81850000D01*
X177100001Y-81850000D01*
X177124505Y-81851204D01*
G37*
G36*
X177124505Y-78041204D02*
G01*
X177148773Y-78044804D01*
X177172572Y-78050765D01*
X177195671Y-78059030D01*
X177217850Y-78069520D01*
X177238893Y-78082132D01*
X177258599Y-78096747D01*
X177276777Y-78113223D01*
X177293253Y-78131401D01*
X177307868Y-78151107D01*
X177320480Y-78172150D01*
X177330970Y-78194329D01*
X177339235Y-78217428D01*
X177345196Y-78241227D01*
X177348796Y-78265495D01*
X177350000Y-78289999D01*
X177350000Y-79190001D01*
X177348796Y-79214505D01*
X177345196Y-79238773D01*
X177339235Y-79262572D01*
X177330970Y-79285671D01*
X177320480Y-79307850D01*
X177307868Y-79328893D01*
X177293253Y-79348599D01*
X177276777Y-79366777D01*
X177258599Y-79383253D01*
X177238893Y-79397868D01*
X177217850Y-79410480D01*
X177195671Y-79420970D01*
X177172572Y-79429235D01*
X177148773Y-79435196D01*
X177124505Y-79438796D01*
X177100001Y-79440000D01*
X176449999Y-79440000D01*
X176425495Y-79438796D01*
X176401227Y-79435196D01*
X176377428Y-79429235D01*
X176354329Y-79420970D01*
X176332150Y-79410480D01*
X176311107Y-79397868D01*
X176291401Y-79383253D01*
X176273223Y-79366777D01*
X176256747Y-79348599D01*
X176242132Y-79328893D01*
X176229520Y-79307850D01*
X176219030Y-79285671D01*
X176210765Y-79262572D01*
X176204804Y-79238773D01*
X176201204Y-79214505D01*
X176200000Y-79190001D01*
X176200000Y-78289999D01*
X176201204Y-78265495D01*
X176204804Y-78241227D01*
X176210765Y-78217428D01*
X176219030Y-78194329D01*
X176229520Y-78172150D01*
X176242132Y-78151107D01*
X176256747Y-78131401D01*
X176273223Y-78113223D01*
X176291401Y-78096747D01*
X176311107Y-78082132D01*
X176332150Y-78069520D01*
X176354329Y-78059030D01*
X176377428Y-78050765D01*
X176401227Y-78044804D01*
X176425495Y-78041204D01*
X176449999Y-78040000D01*
X177100001Y-78040000D01*
X177124505Y-78041204D01*
G37*
G36*
X179174505Y-78041204D02*
G01*
X179198773Y-78044804D01*
X179222572Y-78050765D01*
X179245671Y-78059030D01*
X179267850Y-78069520D01*
X179288893Y-78082132D01*
X179308599Y-78096747D01*
X179326777Y-78113223D01*
X179343253Y-78131401D01*
X179357868Y-78151107D01*
X179370480Y-78172150D01*
X179380970Y-78194329D01*
X179389235Y-78217428D01*
X179395196Y-78241227D01*
X179398796Y-78265495D01*
X179400000Y-78289999D01*
X179400000Y-79190001D01*
X179398796Y-79214505D01*
X179395196Y-79238773D01*
X179389235Y-79262572D01*
X179380970Y-79285671D01*
X179370480Y-79307850D01*
X179357868Y-79328893D01*
X179343253Y-79348599D01*
X179326777Y-79366777D01*
X179308599Y-79383253D01*
X179288893Y-79397868D01*
X179267850Y-79410480D01*
X179245671Y-79420970D01*
X179222572Y-79429235D01*
X179198773Y-79435196D01*
X179174505Y-79438796D01*
X179150001Y-79440000D01*
X178499999Y-79440000D01*
X178475495Y-79438796D01*
X178451227Y-79435196D01*
X178427428Y-79429235D01*
X178404329Y-79420970D01*
X178382150Y-79410480D01*
X178361107Y-79397868D01*
X178341401Y-79383253D01*
X178323223Y-79366777D01*
X178306747Y-79348599D01*
X178292132Y-79328893D01*
X178279520Y-79307850D01*
X178269030Y-79285671D01*
X178260765Y-79262572D01*
X178254804Y-79238773D01*
X178251204Y-79214505D01*
X178250000Y-79190001D01*
X178250000Y-78289999D01*
X178251204Y-78265495D01*
X178254804Y-78241227D01*
X178260765Y-78217428D01*
X178269030Y-78194329D01*
X178279520Y-78172150D01*
X178292132Y-78151107D01*
X178306747Y-78131401D01*
X178323223Y-78113223D01*
X178341401Y-78096747D01*
X178361107Y-78082132D01*
X178382150Y-78069520D01*
X178404329Y-78059030D01*
X178427428Y-78050765D01*
X178451227Y-78044804D01*
X178475495Y-78041204D01*
X178499999Y-78040000D01*
X179150001Y-78040000D01*
X179174505Y-78041204D01*
G37*
G36*
X179174505Y-85661204D02*
G01*
X179198773Y-85664804D01*
X179222572Y-85670765D01*
X179245671Y-85679030D01*
X179267850Y-85689520D01*
X179288893Y-85702132D01*
X179308599Y-85716747D01*
X179326777Y-85733223D01*
X179343253Y-85751401D01*
X179357868Y-85771107D01*
X179370480Y-85792150D01*
X179380970Y-85814329D01*
X179389235Y-85837428D01*
X179395196Y-85861227D01*
X179398796Y-85885495D01*
X179400000Y-85909999D01*
X179400000Y-86810001D01*
X179398796Y-86834505D01*
X179395196Y-86858773D01*
X179389235Y-86882572D01*
X179380970Y-86905671D01*
X179370480Y-86927850D01*
X179357868Y-86948893D01*
X179343253Y-86968599D01*
X179326777Y-86986777D01*
X179308599Y-87003253D01*
X179288893Y-87017868D01*
X179267850Y-87030480D01*
X179245671Y-87040970D01*
X179222572Y-87049235D01*
X179198773Y-87055196D01*
X179174505Y-87058796D01*
X179150001Y-87060000D01*
X178499999Y-87060000D01*
X178475495Y-87058796D01*
X178451227Y-87055196D01*
X178427428Y-87049235D01*
X178404329Y-87040970D01*
X178382150Y-87030480D01*
X178361107Y-87017868D01*
X178341401Y-87003253D01*
X178323223Y-86986777D01*
X178306747Y-86968599D01*
X178292132Y-86948893D01*
X178279520Y-86927850D01*
X178269030Y-86905671D01*
X178260765Y-86882572D01*
X178254804Y-86858773D01*
X178251204Y-86834505D01*
X178250000Y-86810001D01*
X178250000Y-85909999D01*
X178251204Y-85885495D01*
X178254804Y-85861227D01*
X178260765Y-85837428D01*
X178269030Y-85814329D01*
X178279520Y-85792150D01*
X178292132Y-85771107D01*
X178306747Y-85751401D01*
X178323223Y-85733223D01*
X178341401Y-85716747D01*
X178361107Y-85702132D01*
X178382150Y-85689520D01*
X178404329Y-85679030D01*
X178427428Y-85670765D01*
X178451227Y-85664804D01*
X178475495Y-85661204D01*
X178499999Y-85660000D01*
X179150001Y-85660000D01*
X179174505Y-85661204D01*
G37*
G36*
X177124505Y-85661204D02*
G01*
X177148773Y-85664804D01*
X177172572Y-85670765D01*
X177195671Y-85679030D01*
X177217850Y-85689520D01*
X177238893Y-85702132D01*
X177258599Y-85716747D01*
X177276777Y-85733223D01*
X177293253Y-85751401D01*
X177307868Y-85771107D01*
X177320480Y-85792150D01*
X177330970Y-85814329D01*
X177339235Y-85837428D01*
X177345196Y-85861227D01*
X177348796Y-85885495D01*
X177350000Y-85909999D01*
X177350000Y-86810001D01*
X177348796Y-86834505D01*
X177345196Y-86858773D01*
X177339235Y-86882572D01*
X177330970Y-86905671D01*
X177320480Y-86927850D01*
X177307868Y-86948893D01*
X177293253Y-86968599D01*
X177276777Y-86986777D01*
X177258599Y-87003253D01*
X177238893Y-87017868D01*
X177217850Y-87030480D01*
X177195671Y-87040970D01*
X177172572Y-87049235D01*
X177148773Y-87055196D01*
X177124505Y-87058796D01*
X177100001Y-87060000D01*
X176449999Y-87060000D01*
X176425495Y-87058796D01*
X176401227Y-87055196D01*
X176377428Y-87049235D01*
X176354329Y-87040970D01*
X176332150Y-87030480D01*
X176311107Y-87017868D01*
X176291401Y-87003253D01*
X176273223Y-86986777D01*
X176256747Y-86968599D01*
X176242132Y-86948893D01*
X176229520Y-86927850D01*
X176219030Y-86905671D01*
X176210765Y-86882572D01*
X176204804Y-86858773D01*
X176201204Y-86834505D01*
X176200000Y-86810001D01*
X176200000Y-85909999D01*
X176201204Y-85885495D01*
X176204804Y-85861227D01*
X176210765Y-85837428D01*
X176219030Y-85814329D01*
X176229520Y-85792150D01*
X176242132Y-85771107D01*
X176256747Y-85751401D01*
X176273223Y-85733223D01*
X176291401Y-85716747D01*
X176311107Y-85702132D01*
X176332150Y-85689520D01*
X176354329Y-85679030D01*
X176377428Y-85670765D01*
X176401227Y-85664804D01*
X176425495Y-85661204D01*
X176449999Y-85660000D01*
X177100001Y-85660000D01*
X177124505Y-85661204D01*
G37*
G36*
X177124505Y-89471204D02*
G01*
X177148773Y-89474804D01*
X177172572Y-89480765D01*
X177195671Y-89489030D01*
X177217850Y-89499520D01*
X177238893Y-89512132D01*
X177258599Y-89526747D01*
X177276777Y-89543223D01*
X177293253Y-89561401D01*
X177307868Y-89581107D01*
X177320480Y-89602150D01*
X177330970Y-89624329D01*
X177339235Y-89647428D01*
X177345196Y-89671227D01*
X177348796Y-89695495D01*
X177350000Y-89719999D01*
X177350000Y-90620001D01*
X177348796Y-90644505D01*
X177345196Y-90668773D01*
X177339235Y-90692572D01*
X177330970Y-90715671D01*
X177320480Y-90737850D01*
X177307868Y-90758893D01*
X177293253Y-90778599D01*
X177276777Y-90796777D01*
X177258599Y-90813253D01*
X177238893Y-90827868D01*
X177217850Y-90840480D01*
X177195671Y-90850970D01*
X177172572Y-90859235D01*
X177148773Y-90865196D01*
X177124505Y-90868796D01*
X177100001Y-90870000D01*
X176449999Y-90870000D01*
X176425495Y-90868796D01*
X176401227Y-90865196D01*
X176377428Y-90859235D01*
X176354329Y-90850970D01*
X176332150Y-90840480D01*
X176311107Y-90827868D01*
X176291401Y-90813253D01*
X176273223Y-90796777D01*
X176256747Y-90778599D01*
X176242132Y-90758893D01*
X176229520Y-90737850D01*
X176219030Y-90715671D01*
X176210765Y-90692572D01*
X176204804Y-90668773D01*
X176201204Y-90644505D01*
X176200000Y-90620001D01*
X176200000Y-89719999D01*
X176201204Y-89695495D01*
X176204804Y-89671227D01*
X176210765Y-89647428D01*
X176219030Y-89624329D01*
X176229520Y-89602150D01*
X176242132Y-89581107D01*
X176256747Y-89561401D01*
X176273223Y-89543223D01*
X176291401Y-89526747D01*
X176311107Y-89512132D01*
X176332150Y-89499520D01*
X176354329Y-89489030D01*
X176377428Y-89480765D01*
X176401227Y-89474804D01*
X176425495Y-89471204D01*
X176449999Y-89470000D01*
X177100001Y-89470000D01*
X177124505Y-89471204D01*
G37*
G36*
X179174505Y-89471204D02*
G01*
X179198773Y-89474804D01*
X179222572Y-89480765D01*
X179245671Y-89489030D01*
X179267850Y-89499520D01*
X179288893Y-89512132D01*
X179308599Y-89526747D01*
X179326777Y-89543223D01*
X179343253Y-89561401D01*
X179357868Y-89581107D01*
X179370480Y-89602150D01*
X179380970Y-89624329D01*
X179389235Y-89647428D01*
X179395196Y-89671227D01*
X179398796Y-89695495D01*
X179400000Y-89719999D01*
X179400000Y-90620001D01*
X179398796Y-90644505D01*
X179395196Y-90668773D01*
X179389235Y-90692572D01*
X179380970Y-90715671D01*
X179370480Y-90737850D01*
X179357868Y-90758893D01*
X179343253Y-90778599D01*
X179326777Y-90796777D01*
X179308599Y-90813253D01*
X179288893Y-90827868D01*
X179267850Y-90840480D01*
X179245671Y-90850970D01*
X179222572Y-90859235D01*
X179198773Y-90865196D01*
X179174505Y-90868796D01*
X179150001Y-90870000D01*
X178499999Y-90870000D01*
X178475495Y-90868796D01*
X178451227Y-90865196D01*
X178427428Y-90859235D01*
X178404329Y-90850970D01*
X178382150Y-90840480D01*
X178361107Y-90827868D01*
X178341401Y-90813253D01*
X178323223Y-90796777D01*
X178306747Y-90778599D01*
X178292132Y-90758893D01*
X178279520Y-90737850D01*
X178269030Y-90715671D01*
X178260765Y-90692572D01*
X178254804Y-90668773D01*
X178251204Y-90644505D01*
X178250000Y-90620001D01*
X178250000Y-89719999D01*
X178251204Y-89695495D01*
X178254804Y-89671227D01*
X178260765Y-89647428D01*
X178269030Y-89624329D01*
X178279520Y-89602150D01*
X178292132Y-89581107D01*
X178306747Y-89561401D01*
X178323223Y-89543223D01*
X178341401Y-89526747D01*
X178361107Y-89512132D01*
X178382150Y-89499520D01*
X178404329Y-89489030D01*
X178427428Y-89480765D01*
X178451227Y-89474804D01*
X178475495Y-89471204D01*
X178499999Y-89470000D01*
X179150001Y-89470000D01*
X179174505Y-89471204D01*
G37*
G36*
X179174505Y-93281204D02*
G01*
X179198773Y-93284804D01*
X179222572Y-93290765D01*
X179245671Y-93299030D01*
X179267850Y-93309520D01*
X179288893Y-93322132D01*
X179308599Y-93336747D01*
X179326777Y-93353223D01*
X179343253Y-93371401D01*
X179357868Y-93391107D01*
X179370480Y-93412150D01*
X179380970Y-93434329D01*
X179389235Y-93457428D01*
X179395196Y-93481227D01*
X179398796Y-93505495D01*
X179400000Y-93529999D01*
X179400000Y-94430001D01*
X179398796Y-94454505D01*
X179395196Y-94478773D01*
X179389235Y-94502572D01*
X179380970Y-94525671D01*
X179370480Y-94547850D01*
X179357868Y-94568893D01*
X179343253Y-94588599D01*
X179326777Y-94606777D01*
X179308599Y-94623253D01*
X179288893Y-94637868D01*
X179267850Y-94650480D01*
X179245671Y-94660970D01*
X179222572Y-94669235D01*
X179198773Y-94675196D01*
X179174505Y-94678796D01*
X179150001Y-94680000D01*
X178499999Y-94680000D01*
X178475495Y-94678796D01*
X178451227Y-94675196D01*
X178427428Y-94669235D01*
X178404329Y-94660970D01*
X178382150Y-94650480D01*
X178361107Y-94637868D01*
X178341401Y-94623253D01*
X178323223Y-94606777D01*
X178306747Y-94588599D01*
X178292132Y-94568893D01*
X178279520Y-94547850D01*
X178269030Y-94525671D01*
X178260765Y-94502572D01*
X178254804Y-94478773D01*
X178251204Y-94454505D01*
X178250000Y-94430001D01*
X178250000Y-93529999D01*
X178251204Y-93505495D01*
X178254804Y-93481227D01*
X178260765Y-93457428D01*
X178269030Y-93434329D01*
X178279520Y-93412150D01*
X178292132Y-93391107D01*
X178306747Y-93371401D01*
X178323223Y-93353223D01*
X178341401Y-93336747D01*
X178361107Y-93322132D01*
X178382150Y-93309520D01*
X178404329Y-93299030D01*
X178427428Y-93290765D01*
X178451227Y-93284804D01*
X178475495Y-93281204D01*
X178499999Y-93280000D01*
X179150001Y-93280000D01*
X179174505Y-93281204D01*
G37*
G36*
X177124505Y-93281204D02*
G01*
X177148773Y-93284804D01*
X177172572Y-93290765D01*
X177195671Y-93299030D01*
X177217850Y-93309520D01*
X177238893Y-93322132D01*
X177258599Y-93336747D01*
X177276777Y-93353223D01*
X177293253Y-93371401D01*
X177307868Y-93391107D01*
X177320480Y-93412150D01*
X177330970Y-93434329D01*
X177339235Y-93457428D01*
X177345196Y-93481227D01*
X177348796Y-93505495D01*
X177350000Y-93529999D01*
X177350000Y-94430001D01*
X177348796Y-94454505D01*
X177345196Y-94478773D01*
X177339235Y-94502572D01*
X177330970Y-94525671D01*
X177320480Y-94547850D01*
X177307868Y-94568893D01*
X177293253Y-94588599D01*
X177276777Y-94606777D01*
X177258599Y-94623253D01*
X177238893Y-94637868D01*
X177217850Y-94650480D01*
X177195671Y-94660970D01*
X177172572Y-94669235D01*
X177148773Y-94675196D01*
X177124505Y-94678796D01*
X177100001Y-94680000D01*
X176449999Y-94680000D01*
X176425495Y-94678796D01*
X176401227Y-94675196D01*
X176377428Y-94669235D01*
X176354329Y-94660970D01*
X176332150Y-94650480D01*
X176311107Y-94637868D01*
X176291401Y-94623253D01*
X176273223Y-94606777D01*
X176256747Y-94588599D01*
X176242132Y-94568893D01*
X176229520Y-94547850D01*
X176219030Y-94525671D01*
X176210765Y-94502572D01*
X176204804Y-94478773D01*
X176201204Y-94454505D01*
X176200000Y-94430001D01*
X176200000Y-93529999D01*
X176201204Y-93505495D01*
X176204804Y-93481227D01*
X176210765Y-93457428D01*
X176219030Y-93434329D01*
X176229520Y-93412150D01*
X176242132Y-93391107D01*
X176256747Y-93371401D01*
X176273223Y-93353223D01*
X176291401Y-93336747D01*
X176311107Y-93322132D01*
X176332150Y-93309520D01*
X176354329Y-93299030D01*
X176377428Y-93290765D01*
X176401227Y-93284804D01*
X176425495Y-93281204D01*
X176449999Y-93280000D01*
X177100001Y-93280000D01*
X177124505Y-93281204D01*
G37*
G36*
X198594505Y-85541204D02*
G01*
X198618773Y-85544804D01*
X198642572Y-85550765D01*
X198665671Y-85559030D01*
X198687850Y-85569520D01*
X198708893Y-85582132D01*
X198728599Y-85596747D01*
X198746777Y-85613223D01*
X198763253Y-85631401D01*
X198777868Y-85651107D01*
X198790480Y-85672150D01*
X198800970Y-85694329D01*
X198809235Y-85717428D01*
X198815196Y-85741227D01*
X198818796Y-85765495D01*
X198820000Y-85789999D01*
X198820000Y-86440001D01*
X198818796Y-86464505D01*
X198815196Y-86488773D01*
X198809235Y-86512572D01*
X198800970Y-86535671D01*
X198790480Y-86557850D01*
X198777868Y-86578893D01*
X198763253Y-86598599D01*
X198746777Y-86616777D01*
X198728599Y-86633253D01*
X198708893Y-86647868D01*
X198687850Y-86660480D01*
X198665671Y-86670970D01*
X198642572Y-86679235D01*
X198618773Y-86685196D01*
X198594505Y-86688796D01*
X198570001Y-86690000D01*
X197669999Y-86690000D01*
X197645495Y-86688796D01*
X197621227Y-86685196D01*
X197597428Y-86679235D01*
X197574329Y-86670970D01*
X197552150Y-86660480D01*
X197531107Y-86647868D01*
X197511401Y-86633253D01*
X197493223Y-86616777D01*
X197476747Y-86598599D01*
X197462132Y-86578893D01*
X197449520Y-86557850D01*
X197439030Y-86535671D01*
X197430765Y-86512572D01*
X197424804Y-86488773D01*
X197421204Y-86464505D01*
X197420000Y-86440001D01*
X197420000Y-85789999D01*
X197421204Y-85765495D01*
X197424804Y-85741227D01*
X197430765Y-85717428D01*
X197439030Y-85694329D01*
X197449520Y-85672150D01*
X197462132Y-85651107D01*
X197476747Y-85631401D01*
X197493223Y-85613223D01*
X197511401Y-85596747D01*
X197531107Y-85582132D01*
X197552150Y-85569520D01*
X197574329Y-85559030D01*
X197597428Y-85550765D01*
X197621227Y-85544804D01*
X197645495Y-85541204D01*
X197669999Y-85540000D01*
X198570001Y-85540000D01*
X198594505Y-85541204D01*
G37*
G36*
X198594505Y-83491204D02*
G01*
X198618773Y-83494804D01*
X198642572Y-83500765D01*
X198665671Y-83509030D01*
X198687850Y-83519520D01*
X198708893Y-83532132D01*
X198728599Y-83546747D01*
X198746777Y-83563223D01*
X198763253Y-83581401D01*
X198777868Y-83601107D01*
X198790480Y-83622150D01*
X198800970Y-83644329D01*
X198809235Y-83667428D01*
X198815196Y-83691227D01*
X198818796Y-83715495D01*
X198820000Y-83739999D01*
X198820000Y-84390001D01*
X198818796Y-84414505D01*
X198815196Y-84438773D01*
X198809235Y-84462572D01*
X198800970Y-84485671D01*
X198790480Y-84507850D01*
X198777868Y-84528893D01*
X198763253Y-84548599D01*
X198746777Y-84566777D01*
X198728599Y-84583253D01*
X198708893Y-84597868D01*
X198687850Y-84610480D01*
X198665671Y-84620970D01*
X198642572Y-84629235D01*
X198618773Y-84635196D01*
X198594505Y-84638796D01*
X198570001Y-84640000D01*
X197669999Y-84640000D01*
X197645495Y-84638796D01*
X197621227Y-84635196D01*
X197597428Y-84629235D01*
X197574329Y-84620970D01*
X197552150Y-84610480D01*
X197531107Y-84597868D01*
X197511401Y-84583253D01*
X197493223Y-84566777D01*
X197476747Y-84548599D01*
X197462132Y-84528893D01*
X197449520Y-84507850D01*
X197439030Y-84485671D01*
X197430765Y-84462572D01*
X197424804Y-84438773D01*
X197421204Y-84414505D01*
X197420000Y-84390001D01*
X197420000Y-83739999D01*
X197421204Y-83715495D01*
X197424804Y-83691227D01*
X197430765Y-83667428D01*
X197439030Y-83644329D01*
X197449520Y-83622150D01*
X197462132Y-83601107D01*
X197476747Y-83581401D01*
X197493223Y-83563223D01*
X197511401Y-83546747D01*
X197531107Y-83532132D01*
X197552150Y-83519520D01*
X197574329Y-83509030D01*
X197597428Y-83500765D01*
X197621227Y-83494804D01*
X197645495Y-83491204D01*
X197669999Y-83490000D01*
X198570001Y-83490000D01*
X198594505Y-83491204D01*
G37*
G36*
X219814505Y-89598204D02*
G01*
X219838773Y-89601804D01*
X219862572Y-89607765D01*
X219885671Y-89616030D01*
X219907850Y-89626520D01*
X219928893Y-89639132D01*
X219948599Y-89653747D01*
X219966777Y-89670223D01*
X219983253Y-89688401D01*
X219997868Y-89708107D01*
X220010480Y-89729150D01*
X220020970Y-89751329D01*
X220029235Y-89774428D01*
X220035196Y-89798227D01*
X220038796Y-89822495D01*
X220040000Y-89846999D01*
X220040000Y-90747001D01*
X220038796Y-90771505D01*
X220035196Y-90795773D01*
X220029235Y-90819572D01*
X220020970Y-90842671D01*
X220010480Y-90864850D01*
X219997868Y-90885893D01*
X219983253Y-90905599D01*
X219966777Y-90923777D01*
X219948599Y-90940253D01*
X219928893Y-90954868D01*
X219907850Y-90967480D01*
X219885671Y-90977970D01*
X219862572Y-90986235D01*
X219838773Y-90992196D01*
X219814505Y-90995796D01*
X219790001Y-90997000D01*
X219139999Y-90997000D01*
X219115495Y-90995796D01*
X219091227Y-90992196D01*
X219067428Y-90986235D01*
X219044329Y-90977970D01*
X219022150Y-90967480D01*
X219001107Y-90954868D01*
X218981401Y-90940253D01*
X218963223Y-90923777D01*
X218946747Y-90905599D01*
X218932132Y-90885893D01*
X218919520Y-90864850D01*
X218909030Y-90842671D01*
X218900765Y-90819572D01*
X218894804Y-90795773D01*
X218891204Y-90771505D01*
X218890000Y-90747001D01*
X218890000Y-89846999D01*
X218891204Y-89822495D01*
X218894804Y-89798227D01*
X218900765Y-89774428D01*
X218909030Y-89751329D01*
X218919520Y-89729150D01*
X218932132Y-89708107D01*
X218946747Y-89688401D01*
X218963223Y-89670223D01*
X218981401Y-89653747D01*
X219001107Y-89639132D01*
X219022150Y-89626520D01*
X219044329Y-89616030D01*
X219067428Y-89607765D01*
X219091227Y-89601804D01*
X219115495Y-89598204D01*
X219139999Y-89597000D01*
X219790001Y-89597000D01*
X219814505Y-89598204D01*
G37*
G36*
X217764505Y-89598204D02*
G01*
X217788773Y-89601804D01*
X217812572Y-89607765D01*
X217835671Y-89616030D01*
X217857850Y-89626520D01*
X217878893Y-89639132D01*
X217898599Y-89653747D01*
X217916777Y-89670223D01*
X217933253Y-89688401D01*
X217947868Y-89708107D01*
X217960480Y-89729150D01*
X217970970Y-89751329D01*
X217979235Y-89774428D01*
X217985196Y-89798227D01*
X217988796Y-89822495D01*
X217990000Y-89846999D01*
X217990000Y-90747001D01*
X217988796Y-90771505D01*
X217985196Y-90795773D01*
X217979235Y-90819572D01*
X217970970Y-90842671D01*
X217960480Y-90864850D01*
X217947868Y-90885893D01*
X217933253Y-90905599D01*
X217916777Y-90923777D01*
X217898599Y-90940253D01*
X217878893Y-90954868D01*
X217857850Y-90967480D01*
X217835671Y-90977970D01*
X217812572Y-90986235D01*
X217788773Y-90992196D01*
X217764505Y-90995796D01*
X217740001Y-90997000D01*
X217089999Y-90997000D01*
X217065495Y-90995796D01*
X217041227Y-90992196D01*
X217017428Y-90986235D01*
X216994329Y-90977970D01*
X216972150Y-90967480D01*
X216951107Y-90954868D01*
X216931401Y-90940253D01*
X216913223Y-90923777D01*
X216896747Y-90905599D01*
X216882132Y-90885893D01*
X216869520Y-90864850D01*
X216859030Y-90842671D01*
X216850765Y-90819572D01*
X216844804Y-90795773D01*
X216841204Y-90771505D01*
X216840000Y-90747001D01*
X216840000Y-89846999D01*
X216841204Y-89822495D01*
X216844804Y-89798227D01*
X216850765Y-89774428D01*
X216859030Y-89751329D01*
X216869520Y-89729150D01*
X216882132Y-89708107D01*
X216896747Y-89688401D01*
X216913223Y-89670223D01*
X216931401Y-89653747D01*
X216951107Y-89639132D01*
X216972150Y-89626520D01*
X216994329Y-89616030D01*
X217017428Y-89607765D01*
X217041227Y-89601804D01*
X217065495Y-89598204D01*
X217089999Y-89597000D01*
X217740001Y-89597000D01*
X217764505Y-89598204D01*
G37*
G36*
X198959505Y-93281204D02*
G01*
X198983773Y-93284804D01*
X199007572Y-93290765D01*
X199030671Y-93299030D01*
X199052850Y-93309520D01*
X199073893Y-93322132D01*
X199093599Y-93336747D01*
X199111777Y-93353223D01*
X199128253Y-93371401D01*
X199142868Y-93391107D01*
X199155480Y-93412150D01*
X199165970Y-93434329D01*
X199174235Y-93457428D01*
X199180196Y-93481227D01*
X199183796Y-93505495D01*
X199185000Y-93529999D01*
X199185000Y-94430001D01*
X199183796Y-94454505D01*
X199180196Y-94478773D01*
X199174235Y-94502572D01*
X199165970Y-94525671D01*
X199155480Y-94547850D01*
X199142868Y-94568893D01*
X199128253Y-94588599D01*
X199111777Y-94606777D01*
X199093599Y-94623253D01*
X199073893Y-94637868D01*
X199052850Y-94650480D01*
X199030671Y-94660970D01*
X199007572Y-94669235D01*
X198983773Y-94675196D01*
X198959505Y-94678796D01*
X198935001Y-94680000D01*
X198284999Y-94680000D01*
X198260495Y-94678796D01*
X198236227Y-94675196D01*
X198212428Y-94669235D01*
X198189329Y-94660970D01*
X198167150Y-94650480D01*
X198146107Y-94637868D01*
X198126401Y-94623253D01*
X198108223Y-94606777D01*
X198091747Y-94588599D01*
X198077132Y-94568893D01*
X198064520Y-94547850D01*
X198054030Y-94525671D01*
X198045765Y-94502572D01*
X198039804Y-94478773D01*
X198036204Y-94454505D01*
X198035000Y-94430001D01*
X198035000Y-93529999D01*
X198036204Y-93505495D01*
X198039804Y-93481227D01*
X198045765Y-93457428D01*
X198054030Y-93434329D01*
X198064520Y-93412150D01*
X198077132Y-93391107D01*
X198091747Y-93371401D01*
X198108223Y-93353223D01*
X198126401Y-93336747D01*
X198146107Y-93322132D01*
X198167150Y-93309520D01*
X198189329Y-93299030D01*
X198212428Y-93290765D01*
X198236227Y-93284804D01*
X198260495Y-93281204D01*
X198284999Y-93280000D01*
X198935001Y-93280000D01*
X198959505Y-93281204D01*
G37*
G36*
X201009505Y-93281204D02*
G01*
X201033773Y-93284804D01*
X201057572Y-93290765D01*
X201080671Y-93299030D01*
X201102850Y-93309520D01*
X201123893Y-93322132D01*
X201143599Y-93336747D01*
X201161777Y-93353223D01*
X201178253Y-93371401D01*
X201192868Y-93391107D01*
X201205480Y-93412150D01*
X201215970Y-93434329D01*
X201224235Y-93457428D01*
X201230196Y-93481227D01*
X201233796Y-93505495D01*
X201235000Y-93529999D01*
X201235000Y-94430001D01*
X201233796Y-94454505D01*
X201230196Y-94478773D01*
X201224235Y-94502572D01*
X201215970Y-94525671D01*
X201205480Y-94547850D01*
X201192868Y-94568893D01*
X201178253Y-94588599D01*
X201161777Y-94606777D01*
X201143599Y-94623253D01*
X201123893Y-94637868D01*
X201102850Y-94650480D01*
X201080671Y-94660970D01*
X201057572Y-94669235D01*
X201033773Y-94675196D01*
X201009505Y-94678796D01*
X200985001Y-94680000D01*
X200334999Y-94680000D01*
X200310495Y-94678796D01*
X200286227Y-94675196D01*
X200262428Y-94669235D01*
X200239329Y-94660970D01*
X200217150Y-94650480D01*
X200196107Y-94637868D01*
X200176401Y-94623253D01*
X200158223Y-94606777D01*
X200141747Y-94588599D01*
X200127132Y-94568893D01*
X200114520Y-94547850D01*
X200104030Y-94525671D01*
X200095765Y-94502572D01*
X200089804Y-94478773D01*
X200086204Y-94454505D01*
X200085000Y-94430001D01*
X200085000Y-93529999D01*
X200086204Y-93505495D01*
X200089804Y-93481227D01*
X200095765Y-93457428D01*
X200104030Y-93434329D01*
X200114520Y-93412150D01*
X200127132Y-93391107D01*
X200141747Y-93371401D01*
X200158223Y-93353223D01*
X200176401Y-93336747D01*
X200196107Y-93322132D01*
X200217150Y-93309520D01*
X200239329Y-93299030D01*
X200262428Y-93290765D01*
X200286227Y-93284804D01*
X200310495Y-93281204D01*
X200334999Y-93280000D01*
X200985001Y-93280000D01*
X201009505Y-93281204D01*
G37*
G36*
X198594505Y-88571204D02*
G01*
X198618773Y-88574804D01*
X198642572Y-88580765D01*
X198665671Y-88589030D01*
X198687850Y-88599520D01*
X198708893Y-88612132D01*
X198728599Y-88626747D01*
X198746777Y-88643223D01*
X198763253Y-88661401D01*
X198777868Y-88681107D01*
X198790480Y-88702150D01*
X198800970Y-88724329D01*
X198809235Y-88747428D01*
X198815196Y-88771227D01*
X198818796Y-88795495D01*
X198820000Y-88819999D01*
X198820000Y-89470001D01*
X198818796Y-89494505D01*
X198815196Y-89518773D01*
X198809235Y-89542572D01*
X198800970Y-89565671D01*
X198790480Y-89587850D01*
X198777868Y-89608893D01*
X198763253Y-89628599D01*
X198746777Y-89646777D01*
X198728599Y-89663253D01*
X198708893Y-89677868D01*
X198687850Y-89690480D01*
X198665671Y-89700970D01*
X198642572Y-89709235D01*
X198618773Y-89715196D01*
X198594505Y-89718796D01*
X198570001Y-89720000D01*
X197669999Y-89720000D01*
X197645495Y-89718796D01*
X197621227Y-89715196D01*
X197597428Y-89709235D01*
X197574329Y-89700970D01*
X197552150Y-89690480D01*
X197531107Y-89677868D01*
X197511401Y-89663253D01*
X197493223Y-89646777D01*
X197476747Y-89628599D01*
X197462132Y-89608893D01*
X197449520Y-89587850D01*
X197439030Y-89565671D01*
X197430765Y-89542572D01*
X197424804Y-89518773D01*
X197421204Y-89494505D01*
X197420000Y-89470001D01*
X197420000Y-88819999D01*
X197421204Y-88795495D01*
X197424804Y-88771227D01*
X197430765Y-88747428D01*
X197439030Y-88724329D01*
X197449520Y-88702150D01*
X197462132Y-88681107D01*
X197476747Y-88661401D01*
X197493223Y-88643223D01*
X197511401Y-88626747D01*
X197531107Y-88612132D01*
X197552150Y-88599520D01*
X197574329Y-88589030D01*
X197597428Y-88580765D01*
X197621227Y-88574804D01*
X197645495Y-88571204D01*
X197669999Y-88570000D01*
X198570001Y-88570000D01*
X198594505Y-88571204D01*
G37*
G36*
X198594505Y-90621204D02*
G01*
X198618773Y-90624804D01*
X198642572Y-90630765D01*
X198665671Y-90639030D01*
X198687850Y-90649520D01*
X198708893Y-90662132D01*
X198728599Y-90676747D01*
X198746777Y-90693223D01*
X198763253Y-90711401D01*
X198777868Y-90731107D01*
X198790480Y-90752150D01*
X198800970Y-90774329D01*
X198809235Y-90797428D01*
X198815196Y-90821227D01*
X198818796Y-90845495D01*
X198820000Y-90869999D01*
X198820000Y-91520001D01*
X198818796Y-91544505D01*
X198815196Y-91568773D01*
X198809235Y-91592572D01*
X198800970Y-91615671D01*
X198790480Y-91637850D01*
X198777868Y-91658893D01*
X198763253Y-91678599D01*
X198746777Y-91696777D01*
X198728599Y-91713253D01*
X198708893Y-91727868D01*
X198687850Y-91740480D01*
X198665671Y-91750970D01*
X198642572Y-91759235D01*
X198618773Y-91765196D01*
X198594505Y-91768796D01*
X198570001Y-91770000D01*
X197669999Y-91770000D01*
X197645495Y-91768796D01*
X197621227Y-91765196D01*
X197597428Y-91759235D01*
X197574329Y-91750970D01*
X197552150Y-91740480D01*
X197531107Y-91727868D01*
X197511401Y-91713253D01*
X197493223Y-91696777D01*
X197476747Y-91678599D01*
X197462132Y-91658893D01*
X197449520Y-91637850D01*
X197439030Y-91615671D01*
X197430765Y-91592572D01*
X197424804Y-91568773D01*
X197421204Y-91544505D01*
X197420000Y-91520001D01*
X197420000Y-90869999D01*
X197421204Y-90845495D01*
X197424804Y-90821227D01*
X197430765Y-90797428D01*
X197439030Y-90774329D01*
X197449520Y-90752150D01*
X197462132Y-90731107D01*
X197476747Y-90711401D01*
X197493223Y-90693223D01*
X197511401Y-90676747D01*
X197531107Y-90662132D01*
X197552150Y-90649520D01*
X197574329Y-90639030D01*
X197597428Y-90630765D01*
X197621227Y-90624804D01*
X197645495Y-90621204D01*
X197669999Y-90620000D01*
X198570001Y-90620000D01*
X198594505Y-90621204D01*
G37*
G36*
X202404505Y-90621204D02*
G01*
X202428773Y-90624804D01*
X202452572Y-90630765D01*
X202475671Y-90639030D01*
X202497850Y-90649520D01*
X202518893Y-90662132D01*
X202538599Y-90676747D01*
X202556777Y-90693223D01*
X202573253Y-90711401D01*
X202587868Y-90731107D01*
X202600480Y-90752150D01*
X202610970Y-90774329D01*
X202619235Y-90797428D01*
X202625196Y-90821227D01*
X202628796Y-90845495D01*
X202630000Y-90869999D01*
X202630000Y-91520001D01*
X202628796Y-91544505D01*
X202625196Y-91568773D01*
X202619235Y-91592572D01*
X202610970Y-91615671D01*
X202600480Y-91637850D01*
X202587868Y-91658893D01*
X202573253Y-91678599D01*
X202556777Y-91696777D01*
X202538599Y-91713253D01*
X202518893Y-91727868D01*
X202497850Y-91740480D01*
X202475671Y-91750970D01*
X202452572Y-91759235D01*
X202428773Y-91765196D01*
X202404505Y-91768796D01*
X202380001Y-91770000D01*
X201479999Y-91770000D01*
X201455495Y-91768796D01*
X201431227Y-91765196D01*
X201407428Y-91759235D01*
X201384329Y-91750970D01*
X201362150Y-91740480D01*
X201341107Y-91727868D01*
X201321401Y-91713253D01*
X201303223Y-91696777D01*
X201286747Y-91678599D01*
X201272132Y-91658893D01*
X201259520Y-91637850D01*
X201249030Y-91615671D01*
X201240765Y-91592572D01*
X201234804Y-91568773D01*
X201231204Y-91544505D01*
X201230000Y-91520001D01*
X201230000Y-90869999D01*
X201231204Y-90845495D01*
X201234804Y-90821227D01*
X201240765Y-90797428D01*
X201249030Y-90774329D01*
X201259520Y-90752150D01*
X201272132Y-90731107D01*
X201286747Y-90711401D01*
X201303223Y-90693223D01*
X201321401Y-90676747D01*
X201341107Y-90662132D01*
X201362150Y-90649520D01*
X201384329Y-90639030D01*
X201407428Y-90630765D01*
X201431227Y-90624804D01*
X201455495Y-90621204D01*
X201479999Y-90620000D01*
X202380001Y-90620000D01*
X202404505Y-90621204D01*
G37*
G36*
X202404505Y-88571204D02*
G01*
X202428773Y-88574804D01*
X202452572Y-88580765D01*
X202475671Y-88589030D01*
X202497850Y-88599520D01*
X202518893Y-88612132D01*
X202538599Y-88626747D01*
X202556777Y-88643223D01*
X202573253Y-88661401D01*
X202587868Y-88681107D01*
X202600480Y-88702150D01*
X202610970Y-88724329D01*
X202619235Y-88747428D01*
X202625196Y-88771227D01*
X202628796Y-88795495D01*
X202630000Y-88819999D01*
X202630000Y-89470001D01*
X202628796Y-89494505D01*
X202625196Y-89518773D01*
X202619235Y-89542572D01*
X202610970Y-89565671D01*
X202600480Y-89587850D01*
X202587868Y-89608893D01*
X202573253Y-89628599D01*
X202556777Y-89646777D01*
X202538599Y-89663253D01*
X202518893Y-89677868D01*
X202497850Y-89690480D01*
X202475671Y-89700970D01*
X202452572Y-89709235D01*
X202428773Y-89715196D01*
X202404505Y-89718796D01*
X202380001Y-89720000D01*
X201479999Y-89720000D01*
X201455495Y-89718796D01*
X201431227Y-89715196D01*
X201407428Y-89709235D01*
X201384329Y-89700970D01*
X201362150Y-89690480D01*
X201341107Y-89677868D01*
X201321401Y-89663253D01*
X201303223Y-89646777D01*
X201286747Y-89628599D01*
X201272132Y-89608893D01*
X201259520Y-89587850D01*
X201249030Y-89565671D01*
X201240765Y-89542572D01*
X201234804Y-89518773D01*
X201231204Y-89494505D01*
X201230000Y-89470001D01*
X201230000Y-88819999D01*
X201231204Y-88795495D01*
X201234804Y-88771227D01*
X201240765Y-88747428D01*
X201249030Y-88724329D01*
X201259520Y-88702150D01*
X201272132Y-88681107D01*
X201286747Y-88661401D01*
X201303223Y-88643223D01*
X201321401Y-88626747D01*
X201341107Y-88612132D01*
X201362150Y-88599520D01*
X201384329Y-88589030D01*
X201407428Y-88580765D01*
X201431227Y-88574804D01*
X201455495Y-88571204D01*
X201479999Y-88570000D01*
X202380001Y-88570000D01*
X202404505Y-88571204D01*
G37*
D11*
X191440000Y-108750000D03*
X192240000Y-108750000D03*
X193040000Y-108750000D03*
X193840000Y-108750000D03*
X194640000Y-108750000D03*
D12*
X188590000Y-108850000D03*
X188590000Y-114300000D03*
X197490000Y-108850000D03*
X197490000Y-114300000D03*
D13*
X205535000Y-91440000D03*
X208485000Y-91440000D03*
D14*
X207010000Y-89940000D03*
X207010000Y-92940000D03*
D10*
G36*
X187928505Y-76263204D02*
G01*
X187952773Y-76266804D01*
X187976572Y-76272765D01*
X187999671Y-76281030D01*
X188021850Y-76291520D01*
X188042893Y-76304132D01*
X188062599Y-76318747D01*
X188080777Y-76335223D01*
X188097253Y-76353401D01*
X188111868Y-76373107D01*
X188124480Y-76394150D01*
X188134970Y-76416329D01*
X188143235Y-76439428D01*
X188149196Y-76463227D01*
X188152796Y-76487495D01*
X188154000Y-76511999D01*
X188154000Y-77412001D01*
X188152796Y-77436505D01*
X188149196Y-77460773D01*
X188143235Y-77484572D01*
X188134970Y-77507671D01*
X188124480Y-77529850D01*
X188111868Y-77550893D01*
X188097253Y-77570599D01*
X188080777Y-77588777D01*
X188062599Y-77605253D01*
X188042893Y-77619868D01*
X188021850Y-77632480D01*
X187999671Y-77642970D01*
X187976572Y-77651235D01*
X187952773Y-77657196D01*
X187928505Y-77660796D01*
X187904001Y-77662000D01*
X187253999Y-77662000D01*
X187229495Y-77660796D01*
X187205227Y-77657196D01*
X187181428Y-77651235D01*
X187158329Y-77642970D01*
X187136150Y-77632480D01*
X187115107Y-77619868D01*
X187095401Y-77605253D01*
X187077223Y-77588777D01*
X187060747Y-77570599D01*
X187046132Y-77550893D01*
X187033520Y-77529850D01*
X187023030Y-77507671D01*
X187014765Y-77484572D01*
X187008804Y-77460773D01*
X187005204Y-77436505D01*
X187004000Y-77412001D01*
X187004000Y-76511999D01*
X187005204Y-76487495D01*
X187008804Y-76463227D01*
X187014765Y-76439428D01*
X187023030Y-76416329D01*
X187033520Y-76394150D01*
X187046132Y-76373107D01*
X187060747Y-76353401D01*
X187077223Y-76335223D01*
X187095401Y-76318747D01*
X187115107Y-76304132D01*
X187136150Y-76291520D01*
X187158329Y-76281030D01*
X187181428Y-76272765D01*
X187205227Y-76266804D01*
X187229495Y-76263204D01*
X187253999Y-76262000D01*
X187904001Y-76262000D01*
X187928505Y-76263204D01*
G37*
G36*
X189978505Y-76263204D02*
G01*
X190002773Y-76266804D01*
X190026572Y-76272765D01*
X190049671Y-76281030D01*
X190071850Y-76291520D01*
X190092893Y-76304132D01*
X190112599Y-76318747D01*
X190130777Y-76335223D01*
X190147253Y-76353401D01*
X190161868Y-76373107D01*
X190174480Y-76394150D01*
X190184970Y-76416329D01*
X190193235Y-76439428D01*
X190199196Y-76463227D01*
X190202796Y-76487495D01*
X190204000Y-76511999D01*
X190204000Y-77412001D01*
X190202796Y-77436505D01*
X190199196Y-77460773D01*
X190193235Y-77484572D01*
X190184970Y-77507671D01*
X190174480Y-77529850D01*
X190161868Y-77550893D01*
X190147253Y-77570599D01*
X190130777Y-77588777D01*
X190112599Y-77605253D01*
X190092893Y-77619868D01*
X190071850Y-77632480D01*
X190049671Y-77642970D01*
X190026572Y-77651235D01*
X190002773Y-77657196D01*
X189978505Y-77660796D01*
X189954001Y-77662000D01*
X189303999Y-77662000D01*
X189279495Y-77660796D01*
X189255227Y-77657196D01*
X189231428Y-77651235D01*
X189208329Y-77642970D01*
X189186150Y-77632480D01*
X189165107Y-77619868D01*
X189145401Y-77605253D01*
X189127223Y-77588777D01*
X189110747Y-77570599D01*
X189096132Y-77550893D01*
X189083520Y-77529850D01*
X189073030Y-77507671D01*
X189064765Y-77484572D01*
X189058804Y-77460773D01*
X189055204Y-77436505D01*
X189054000Y-77412001D01*
X189054000Y-76511999D01*
X189055204Y-76487495D01*
X189058804Y-76463227D01*
X189064765Y-76439428D01*
X189073030Y-76416329D01*
X189083520Y-76394150D01*
X189096132Y-76373107D01*
X189110747Y-76353401D01*
X189127223Y-76335223D01*
X189145401Y-76318747D01*
X189165107Y-76304132D01*
X189186150Y-76291520D01*
X189208329Y-76281030D01*
X189231428Y-76272765D01*
X189255227Y-76266804D01*
X189279495Y-76263204D01*
X189303999Y-76262000D01*
X189954001Y-76262000D01*
X189978505Y-76263204D01*
G37*
D15*
X191560000Y-79890000D03*
D16*
X193610000Y-88690000D03*
X193610000Y-89490000D03*
D15*
X192360000Y-90290000D03*
X191560000Y-90290000D03*
X190760000Y-90290000D03*
X189960000Y-90290000D03*
X189160000Y-90290000D03*
X188360000Y-90290000D03*
X187560000Y-90290000D03*
X186760000Y-90290000D03*
X185960000Y-90290000D03*
X185160000Y-90290000D03*
X184360000Y-90290000D03*
X183560000Y-90290000D03*
D16*
X182310000Y-89490000D03*
D15*
X189160000Y-79890000D03*
X189960000Y-79890000D03*
X190760000Y-79890000D03*
X192360000Y-79890000D03*
D16*
X193610000Y-80690000D03*
X193610000Y-81490000D03*
X193610000Y-82290000D03*
X193610000Y-83090000D03*
X193610000Y-83890000D03*
X193610000Y-84690000D03*
X193610000Y-85490000D03*
X193610000Y-86290000D03*
X193610000Y-87090000D03*
X193610000Y-87890000D03*
X182310000Y-88690000D03*
X182310000Y-87890000D03*
X182310000Y-87090000D03*
X182310000Y-86290000D03*
X182310000Y-85490000D03*
X182310000Y-84690000D03*
X182310000Y-83890000D03*
X182310000Y-83090000D03*
X182310000Y-82290000D03*
X182310000Y-81490000D03*
X182310000Y-80690000D03*
D15*
X188360000Y-79890000D03*
X187560000Y-79890000D03*
X186760000Y-79890000D03*
X185960000Y-79890000D03*
X185160000Y-79890000D03*
X184360000Y-79890000D03*
X183560000Y-79890000D03*
D17*
X185460000Y-82590000D03*
X187960000Y-82590000D03*
X190460000Y-82590000D03*
X185460000Y-85090000D03*
X187960000Y-85090000D03*
X190460000Y-85090000D03*
X185460000Y-87590000D03*
X187960000Y-87590000D03*
X190460000Y-87590000D03*
D18*
X182640000Y-106730000D03*
D19*
X182640000Y-113030000D03*
X184940000Y-113030000D03*
X180340000Y-113030000D03*
D10*
G36*
X183480142Y-93281174D02*
G01*
X183503803Y-93284684D01*
X183527007Y-93290496D01*
X183549529Y-93298554D01*
X183571153Y-93308782D01*
X183591670Y-93321079D01*
X183610883Y-93335329D01*
X183628607Y-93351393D01*
X183644671Y-93369117D01*
X183658921Y-93388330D01*
X183671218Y-93408847D01*
X183681446Y-93430471D01*
X183689504Y-93452993D01*
X183695316Y-93476197D01*
X183698826Y-93499858D01*
X183700000Y-93523750D01*
X183700000Y-94436250D01*
X183698826Y-94460142D01*
X183695316Y-94483803D01*
X183689504Y-94507007D01*
X183681446Y-94529529D01*
X183671218Y-94551153D01*
X183658921Y-94571670D01*
X183644671Y-94590883D01*
X183628607Y-94608607D01*
X183610883Y-94624671D01*
X183591670Y-94638921D01*
X183571153Y-94651218D01*
X183549529Y-94661446D01*
X183527007Y-94669504D01*
X183503803Y-94675316D01*
X183480142Y-94678826D01*
X183456250Y-94680000D01*
X182968750Y-94680000D01*
X182944858Y-94678826D01*
X182921197Y-94675316D01*
X182897993Y-94669504D01*
X182875471Y-94661446D01*
X182853847Y-94651218D01*
X182833330Y-94638921D01*
X182814117Y-94624671D01*
X182796393Y-94608607D01*
X182780329Y-94590883D01*
X182766079Y-94571670D01*
X182753782Y-94551153D01*
X182743554Y-94529529D01*
X182735496Y-94507007D01*
X182729684Y-94483803D01*
X182726174Y-94460142D01*
X182725000Y-94436250D01*
X182725000Y-93523750D01*
X182726174Y-93499858D01*
X182729684Y-93476197D01*
X182735496Y-93452993D01*
X182743554Y-93430471D01*
X182753782Y-93408847D01*
X182766079Y-93388330D01*
X182780329Y-93369117D01*
X182796393Y-93351393D01*
X182814117Y-93335329D01*
X182833330Y-93321079D01*
X182853847Y-93308782D01*
X182875471Y-93298554D01*
X182897993Y-93290496D01*
X182921197Y-93284684D01*
X182944858Y-93281174D01*
X182968750Y-93280000D01*
X183456250Y-93280000D01*
X183480142Y-93281174D01*
G37*
G36*
X185355142Y-93281174D02*
G01*
X185378803Y-93284684D01*
X185402007Y-93290496D01*
X185424529Y-93298554D01*
X185446153Y-93308782D01*
X185466670Y-93321079D01*
X185485883Y-93335329D01*
X185503607Y-93351393D01*
X185519671Y-93369117D01*
X185533921Y-93388330D01*
X185546218Y-93408847D01*
X185556446Y-93430471D01*
X185564504Y-93452993D01*
X185570316Y-93476197D01*
X185573826Y-93499858D01*
X185575000Y-93523750D01*
X185575000Y-94436250D01*
X185573826Y-94460142D01*
X185570316Y-94483803D01*
X185564504Y-94507007D01*
X185556446Y-94529529D01*
X185546218Y-94551153D01*
X185533921Y-94571670D01*
X185519671Y-94590883D01*
X185503607Y-94608607D01*
X185485883Y-94624671D01*
X185466670Y-94638921D01*
X185446153Y-94651218D01*
X185424529Y-94661446D01*
X185402007Y-94669504D01*
X185378803Y-94675316D01*
X185355142Y-94678826D01*
X185331250Y-94680000D01*
X184843750Y-94680000D01*
X184819858Y-94678826D01*
X184796197Y-94675316D01*
X184772993Y-94669504D01*
X184750471Y-94661446D01*
X184728847Y-94651218D01*
X184708330Y-94638921D01*
X184689117Y-94624671D01*
X184671393Y-94608607D01*
X184655329Y-94590883D01*
X184641079Y-94571670D01*
X184628782Y-94551153D01*
X184618554Y-94529529D01*
X184610496Y-94507007D01*
X184604684Y-94483803D01*
X184601174Y-94460142D01*
X184600000Y-94436250D01*
X184600000Y-93523750D01*
X184601174Y-93499858D01*
X184604684Y-93476197D01*
X184610496Y-93452993D01*
X184618554Y-93430471D01*
X184628782Y-93408847D01*
X184641079Y-93388330D01*
X184655329Y-93369117D01*
X184671393Y-93351393D01*
X184689117Y-93335329D01*
X184708330Y-93321079D01*
X184728847Y-93308782D01*
X184750471Y-93298554D01*
X184772993Y-93290496D01*
X184796197Y-93284684D01*
X184819858Y-93281174D01*
X184843750Y-93280000D01*
X185331250Y-93280000D01*
X185355142Y-93281174D01*
G37*
G36*
X191705142Y-93281174D02*
G01*
X191728803Y-93284684D01*
X191752007Y-93290496D01*
X191774529Y-93298554D01*
X191796153Y-93308782D01*
X191816670Y-93321079D01*
X191835883Y-93335329D01*
X191853607Y-93351393D01*
X191869671Y-93369117D01*
X191883921Y-93388330D01*
X191896218Y-93408847D01*
X191906446Y-93430471D01*
X191914504Y-93452993D01*
X191920316Y-93476197D01*
X191923826Y-93499858D01*
X191925000Y-93523750D01*
X191925000Y-94436250D01*
X191923826Y-94460142D01*
X191920316Y-94483803D01*
X191914504Y-94507007D01*
X191906446Y-94529529D01*
X191896218Y-94551153D01*
X191883921Y-94571670D01*
X191869671Y-94590883D01*
X191853607Y-94608607D01*
X191835883Y-94624671D01*
X191816670Y-94638921D01*
X191796153Y-94651218D01*
X191774529Y-94661446D01*
X191752007Y-94669504D01*
X191728803Y-94675316D01*
X191705142Y-94678826D01*
X191681250Y-94680000D01*
X191193750Y-94680000D01*
X191169858Y-94678826D01*
X191146197Y-94675316D01*
X191122993Y-94669504D01*
X191100471Y-94661446D01*
X191078847Y-94651218D01*
X191058330Y-94638921D01*
X191039117Y-94624671D01*
X191021393Y-94608607D01*
X191005329Y-94590883D01*
X190991079Y-94571670D01*
X190978782Y-94551153D01*
X190968554Y-94529529D01*
X190960496Y-94507007D01*
X190954684Y-94483803D01*
X190951174Y-94460142D01*
X190950000Y-94436250D01*
X190950000Y-93523750D01*
X190951174Y-93499858D01*
X190954684Y-93476197D01*
X190960496Y-93452993D01*
X190968554Y-93430471D01*
X190978782Y-93408847D01*
X190991079Y-93388330D01*
X191005329Y-93369117D01*
X191021393Y-93351393D01*
X191039117Y-93335329D01*
X191058330Y-93321079D01*
X191078847Y-93308782D01*
X191100471Y-93298554D01*
X191122993Y-93290496D01*
X191146197Y-93284684D01*
X191169858Y-93281174D01*
X191193750Y-93280000D01*
X191681250Y-93280000D01*
X191705142Y-93281174D01*
G37*
G36*
X189830142Y-93281174D02*
G01*
X189853803Y-93284684D01*
X189877007Y-93290496D01*
X189899529Y-93298554D01*
X189921153Y-93308782D01*
X189941670Y-93321079D01*
X189960883Y-93335329D01*
X189978607Y-93351393D01*
X189994671Y-93369117D01*
X190008921Y-93388330D01*
X190021218Y-93408847D01*
X190031446Y-93430471D01*
X190039504Y-93452993D01*
X190045316Y-93476197D01*
X190048826Y-93499858D01*
X190050000Y-93523750D01*
X190050000Y-94436250D01*
X190048826Y-94460142D01*
X190045316Y-94483803D01*
X190039504Y-94507007D01*
X190031446Y-94529529D01*
X190021218Y-94551153D01*
X190008921Y-94571670D01*
X189994671Y-94590883D01*
X189978607Y-94608607D01*
X189960883Y-94624671D01*
X189941670Y-94638921D01*
X189921153Y-94651218D01*
X189899529Y-94661446D01*
X189877007Y-94669504D01*
X189853803Y-94675316D01*
X189830142Y-94678826D01*
X189806250Y-94680000D01*
X189318750Y-94680000D01*
X189294858Y-94678826D01*
X189271197Y-94675316D01*
X189247993Y-94669504D01*
X189225471Y-94661446D01*
X189203847Y-94651218D01*
X189183330Y-94638921D01*
X189164117Y-94624671D01*
X189146393Y-94608607D01*
X189130329Y-94590883D01*
X189116079Y-94571670D01*
X189103782Y-94551153D01*
X189093554Y-94529529D01*
X189085496Y-94507007D01*
X189079684Y-94483803D01*
X189076174Y-94460142D01*
X189075000Y-94436250D01*
X189075000Y-93523750D01*
X189076174Y-93499858D01*
X189079684Y-93476197D01*
X189085496Y-93452993D01*
X189093554Y-93430471D01*
X189103782Y-93408847D01*
X189116079Y-93388330D01*
X189130329Y-93369117D01*
X189146393Y-93351393D01*
X189164117Y-93335329D01*
X189183330Y-93321079D01*
X189203847Y-93308782D01*
X189225471Y-93298554D01*
X189247993Y-93290496D01*
X189271197Y-93284684D01*
X189294858Y-93281174D01*
X189318750Y-93280000D01*
X189806250Y-93280000D01*
X189830142Y-93281174D01*
G37*
D20*
X207220000Y-97910000D03*
D21*
X201720000Y-99060000D03*
D20*
X207220000Y-100210000D03*
D22*
X220305001Y-86661999D03*
X215805001Y-86661999D03*
X215805001Y-78701999D03*
X220305001Y-78701999D03*
D23*
X220980000Y-113390000D03*
X220980000Y-94890000D03*
M02*
