G04 #@! TF.GenerationSoftware,KiCad,Pcbnew,(5.1.5-0-10_14)*
G04 #@! TF.CreationDate,2020-02-12T14:03:56+01:00*
G04 #@! TF.ProjectId,EDS_ALARM,4544535f-414c-4415-924d-2e6b69636164,rev?*
G04 #@! TF.SameCoordinates,Original*
G04 #@! TF.FileFunction,Copper,L2,Bot*
G04 #@! TF.FilePolarity,Positive*
%FSLAX46Y46*%
G04 Gerber Fmt 4.6, Leading zero omitted, Abs format (unit mm)*
G04 Created by KiCad (PCBNEW (5.1.5-0-10_14)) date 2020-02-12 14:03:56*
%MOMM*%
%LPD*%
G04 APERTURE LIST*
%ADD10C,0.300000*%
%ADD11R,1.700000X1.700000*%
%ADD12O,1.700000X1.700000*%
%ADD13C,1.200000*%
%ADD14C,1.300000*%
%ADD15C,0.800000*%
%ADD16C,0.350000*%
%ADD17C,0.254000*%
G04 APERTURE END LIST*
D10*
X209501428Y-93158571D02*
X209501428Y-94230000D01*
X209572857Y-94444285D01*
X209715714Y-94587142D01*
X209930000Y-94658571D01*
X210072857Y-94658571D01*
X208215714Y-94587142D02*
X208358571Y-94658571D01*
X208644285Y-94658571D01*
X208787142Y-94587142D01*
X208858571Y-94444285D01*
X208858571Y-93872857D01*
X208787142Y-93730000D01*
X208644285Y-93658571D01*
X208358571Y-93658571D01*
X208215714Y-93730000D01*
X208144285Y-93872857D01*
X208144285Y-94015714D01*
X208858571Y-94158571D01*
X206858571Y-94658571D02*
X206858571Y-93872857D01*
X206930000Y-93730000D01*
X207072857Y-93658571D01*
X207358571Y-93658571D01*
X207501428Y-93730000D01*
X206858571Y-94587142D02*
X207001428Y-94658571D01*
X207358571Y-94658571D01*
X207501428Y-94587142D01*
X207572857Y-94444285D01*
X207572857Y-94301428D01*
X207501428Y-94158571D01*
X207358571Y-94087142D01*
X207001428Y-94087142D01*
X206858571Y-94015714D01*
X206144285Y-93658571D02*
X206144285Y-94658571D01*
X206144285Y-93801428D02*
X206072857Y-93730000D01*
X205930000Y-93658571D01*
X205715714Y-93658571D01*
X205572857Y-93730000D01*
X205501428Y-93872857D01*
X205501428Y-94658571D01*
X203644285Y-94658571D02*
X203644285Y-93158571D01*
X203287142Y-93158571D01*
X203072857Y-93230000D01*
X202930000Y-93372857D01*
X202858571Y-93515714D01*
X202787142Y-93801428D01*
X202787142Y-94015714D01*
X202858571Y-94301428D01*
X202930000Y-94444285D01*
X203072857Y-94587142D01*
X203287142Y-94658571D01*
X203644285Y-94658571D01*
X201501428Y-93658571D02*
X201501428Y-94658571D01*
X202144285Y-93658571D02*
X202144285Y-94444285D01*
X202072857Y-94587142D01*
X201930000Y-94658571D01*
X201715714Y-94658571D01*
X201572857Y-94587142D01*
X201501428Y-94515714D01*
X200787142Y-94658571D02*
X200787142Y-93658571D01*
X200787142Y-93801428D02*
X200715714Y-93730000D01*
X200572857Y-93658571D01*
X200358571Y-93658571D01*
X200215714Y-93730000D01*
X200144285Y-93872857D01*
X200144285Y-94658571D01*
X200144285Y-93872857D02*
X200072857Y-93730000D01*
X199930000Y-93658571D01*
X199715714Y-93658571D01*
X199572857Y-93730000D01*
X199501428Y-93872857D01*
X199501428Y-94658571D01*
X198572857Y-94658571D02*
X198715714Y-94587142D01*
X198787142Y-94515714D01*
X198858571Y-94372857D01*
X198858571Y-93944285D01*
X198787142Y-93801428D01*
X198715714Y-93730000D01*
X198572857Y-93658571D01*
X198358571Y-93658571D01*
X198215714Y-93730000D01*
X198144285Y-93801428D01*
X198072857Y-93944285D01*
X198072857Y-94372857D01*
X198144285Y-94515714D01*
X198215714Y-94587142D01*
X198358571Y-94658571D01*
X198572857Y-94658571D01*
X196787142Y-93658571D02*
X196787142Y-94658571D01*
X197430000Y-93658571D02*
X197430000Y-94444285D01*
X197358571Y-94587142D01*
X197215714Y-94658571D01*
X197001428Y-94658571D01*
X196858571Y-94587142D01*
X196787142Y-94515714D01*
X195858571Y-94658571D02*
X196001428Y-94587142D01*
X196072857Y-94444285D01*
X196072857Y-93158571D01*
X195287142Y-94658571D02*
X195287142Y-93658571D01*
X195287142Y-93158571D02*
X195358571Y-93230000D01*
X195287142Y-93301428D01*
X195215714Y-93230000D01*
X195287142Y-93158571D01*
X195287142Y-93301428D01*
X194572857Y-93658571D02*
X194572857Y-94658571D01*
X194572857Y-93801428D02*
X194501428Y-93730000D01*
X194358571Y-93658571D01*
X194144285Y-93658571D01*
X194001428Y-93730000D01*
X193930000Y-93872857D01*
X193930000Y-94658571D01*
X217287142Y-90420000D02*
X216572857Y-90420000D01*
X217430000Y-90848571D02*
X216930000Y-89348571D01*
X216430000Y-90848571D01*
X215715714Y-90848571D02*
X215858571Y-90777142D01*
X215930000Y-90634285D01*
X215930000Y-89348571D01*
X215358571Y-89848571D02*
X214787142Y-89848571D01*
X215144285Y-90848571D02*
X215144285Y-89562857D01*
X215072857Y-89420000D01*
X214930000Y-89348571D01*
X214787142Y-89348571D01*
X214287142Y-90848571D02*
X214287142Y-89848571D01*
X214287142Y-90134285D02*
X214215714Y-89991428D01*
X214144285Y-89920000D01*
X214001428Y-89848571D01*
X213858571Y-89848571D01*
X212787142Y-90777142D02*
X212930000Y-90848571D01*
X213215714Y-90848571D01*
X213358571Y-90777142D01*
X213430000Y-90634285D01*
X213430000Y-90062857D01*
X213358571Y-89920000D01*
X213215714Y-89848571D01*
X212930000Y-89848571D01*
X212787142Y-89920000D01*
X212715714Y-90062857D01*
X212715714Y-90205714D01*
X213430000Y-90348571D01*
X211430000Y-90848571D02*
X211430000Y-89348571D01*
X211430000Y-90777142D02*
X211572857Y-90848571D01*
X211858571Y-90848571D01*
X212001428Y-90777142D01*
X212072857Y-90705714D01*
X212144285Y-90562857D01*
X212144285Y-90134285D01*
X212072857Y-89991428D01*
X212001428Y-89920000D01*
X211858571Y-89848571D01*
X211572857Y-89848571D01*
X211430000Y-89920000D01*
X210501428Y-90848571D02*
X210644285Y-90777142D01*
X210715714Y-90705714D01*
X210787142Y-90562857D01*
X210787142Y-90134285D01*
X210715714Y-89991428D01*
X210644285Y-89920000D01*
X210501428Y-89848571D01*
X210287142Y-89848571D01*
X210144285Y-89920000D01*
X210072857Y-89991428D01*
X210001428Y-90134285D01*
X210001428Y-90562857D01*
X210072857Y-90705714D01*
X210144285Y-90777142D01*
X210287142Y-90848571D01*
X210501428Y-90848571D01*
X208215714Y-90848571D02*
X208215714Y-89348571D01*
X207715714Y-90420000D01*
X207215714Y-89348571D01*
X207215714Y-90848571D01*
X205858571Y-90848571D02*
X205858571Y-90062857D01*
X205930000Y-89920000D01*
X206072857Y-89848571D01*
X206358571Y-89848571D01*
X206501428Y-89920000D01*
X205858571Y-90777142D02*
X206001428Y-90848571D01*
X206358571Y-90848571D01*
X206501428Y-90777142D01*
X206572857Y-90634285D01*
X206572857Y-90491428D01*
X206501428Y-90348571D01*
X206358571Y-90277142D01*
X206001428Y-90277142D01*
X205858571Y-90205714D01*
X205144285Y-90848571D02*
X205144285Y-89848571D01*
X205144285Y-90134285D02*
X205072857Y-89991428D01*
X205001428Y-89920000D01*
X204858571Y-89848571D01*
X204715714Y-89848571D01*
X204430000Y-89848571D02*
X203858571Y-89848571D01*
X204215714Y-89348571D02*
X204215714Y-90634285D01*
X204144285Y-90777142D01*
X204001428Y-90848571D01*
X203858571Y-90848571D01*
X203358571Y-90848571D02*
X203358571Y-89848571D01*
X203358571Y-89348571D02*
X203430000Y-89420000D01*
X203358571Y-89491428D01*
X203287142Y-89420000D01*
X203358571Y-89348571D01*
X203358571Y-89491428D01*
X202644285Y-89848571D02*
X202644285Y-90848571D01*
X202644285Y-89991428D02*
X202572857Y-89920000D01*
X202430000Y-89848571D01*
X202215714Y-89848571D01*
X202072857Y-89920000D01*
X202001428Y-90062857D01*
X202001428Y-90848571D01*
X200715714Y-90777142D02*
X200858571Y-90848571D01*
X201144285Y-90848571D01*
X201287142Y-90777142D01*
X201358571Y-90634285D01*
X201358571Y-90062857D01*
X201287142Y-89920000D01*
X201144285Y-89848571D01*
X200858571Y-89848571D01*
X200715714Y-89920000D01*
X200644285Y-90062857D01*
X200644285Y-90205714D01*
X201358571Y-90348571D01*
X200144285Y-89848571D02*
X199358571Y-89848571D01*
X200144285Y-90848571D01*
X199358571Y-90848571D01*
X197644285Y-90848571D02*
X197644285Y-89348571D01*
X197644285Y-90062857D02*
X196787142Y-90062857D01*
X196787142Y-90848571D02*
X196787142Y-89348571D01*
X195501428Y-90777142D02*
X195644285Y-90848571D01*
X195930000Y-90848571D01*
X196072857Y-90777142D01*
X196144285Y-90634285D01*
X196144285Y-90062857D01*
X196072857Y-89920000D01*
X195930000Y-89848571D01*
X195644285Y-89848571D01*
X195501428Y-89920000D01*
X195430000Y-90062857D01*
X195430000Y-90205714D01*
X196144285Y-90348571D01*
X194787142Y-90848571D02*
X194787142Y-89848571D01*
X194787142Y-90134285D02*
X194715714Y-89991428D01*
X194644285Y-89920000D01*
X194501428Y-89848571D01*
X194358571Y-89848571D01*
X193858571Y-89848571D02*
X193858571Y-90848571D01*
X193858571Y-89991428D02*
X193787142Y-89920000D01*
X193644285Y-89848571D01*
X193430000Y-89848571D01*
X193287142Y-89920000D01*
X193215714Y-90062857D01*
X193215714Y-90848571D01*
X191858571Y-90848571D02*
X191858571Y-90062857D01*
X191930000Y-89920000D01*
X192072857Y-89848571D01*
X192358571Y-89848571D01*
X192501428Y-89920000D01*
X191858571Y-90777142D02*
X192001428Y-90848571D01*
X192358571Y-90848571D01*
X192501428Y-90777142D01*
X192572857Y-90634285D01*
X192572857Y-90491428D01*
X192501428Y-90348571D01*
X192358571Y-90277142D01*
X192001428Y-90277142D01*
X191858571Y-90205714D01*
X191144285Y-89848571D02*
X191144285Y-90848571D01*
X191144285Y-89991428D02*
X191072857Y-89920000D01*
X190930000Y-89848571D01*
X190715714Y-89848571D01*
X190572857Y-89920000D01*
X190501428Y-90062857D01*
X190501428Y-90848571D01*
X189144285Y-90848571D02*
X189144285Y-89348571D01*
X189144285Y-90777142D02*
X189287142Y-90848571D01*
X189572857Y-90848571D01*
X189715714Y-90777142D01*
X189787142Y-90705714D01*
X189858571Y-90562857D01*
X189858571Y-90134285D01*
X189787142Y-89991428D01*
X189715714Y-89920000D01*
X189572857Y-89848571D01*
X189287142Y-89848571D01*
X189144285Y-89920000D01*
X187858571Y-90777142D02*
X188001428Y-90848571D01*
X188287142Y-90848571D01*
X188430000Y-90777142D01*
X188501428Y-90634285D01*
X188501428Y-90062857D01*
X188430000Y-89920000D01*
X188287142Y-89848571D01*
X188001428Y-89848571D01*
X187858571Y-89920000D01*
X187787142Y-90062857D01*
X187787142Y-90205714D01*
X188501428Y-90348571D01*
X187287142Y-89848571D02*
X186501428Y-89848571D01*
X187287142Y-90848571D01*
X186501428Y-90848571D01*
D11*
X227330000Y-77470000D03*
D12*
X227330000Y-80010000D03*
X227330000Y-82550000D03*
X227330000Y-85090000D03*
X227330000Y-87630000D03*
X227330000Y-90170000D03*
D13*
X203200000Y-81280000D03*
X205740000Y-83820000D03*
X208280000Y-81280000D03*
D14*
X207010000Y-111760000D03*
X207010000Y-108160000D03*
X203410000Y-108160000D03*
X203410000Y-111760000D03*
D15*
X217297000Y-81280000D03*
X223012000Y-81280000D03*
D16*
X217297000Y-81280000D02*
X223012000Y-81280000D01*
D17*
G36*
X230455001Y-116155000D02*
G01*
X173405000Y-116155000D01*
X173405000Y-112645527D01*
X202704078Y-112645527D01*
X202757466Y-112874201D01*
X202987374Y-112980095D01*
X203233524Y-113039102D01*
X203486455Y-113048952D01*
X203736449Y-113009270D01*
X203973896Y-112921578D01*
X204062534Y-112874201D01*
X204115922Y-112645527D01*
X203410000Y-111939605D01*
X202704078Y-112645527D01*
X173405000Y-112645527D01*
X173405000Y-111338212D01*
X189705000Y-111338212D01*
X189705000Y-111561788D01*
X189748617Y-111781067D01*
X189834176Y-111987624D01*
X189958388Y-112173520D01*
X190116480Y-112331612D01*
X190302376Y-112455824D01*
X190508933Y-112541383D01*
X190728212Y-112585000D01*
X190951788Y-112585000D01*
X191171067Y-112541383D01*
X191377624Y-112455824D01*
X191563520Y-112331612D01*
X191721612Y-112173520D01*
X191845824Y-111987624D01*
X191931383Y-111781067D01*
X191975000Y-111561788D01*
X191975000Y-111338212D01*
X194105000Y-111338212D01*
X194105000Y-111561788D01*
X194148617Y-111781067D01*
X194234176Y-111987624D01*
X194358388Y-112173520D01*
X194516480Y-112331612D01*
X194702376Y-112455824D01*
X194908933Y-112541383D01*
X195128212Y-112585000D01*
X195351788Y-112585000D01*
X195571067Y-112541383D01*
X195777624Y-112455824D01*
X195963520Y-112331612D01*
X196121612Y-112173520D01*
X196245824Y-111987624D01*
X196308440Y-111836455D01*
X202121048Y-111836455D01*
X202160730Y-112086449D01*
X202248422Y-112323896D01*
X202295799Y-112412534D01*
X202524473Y-112465922D01*
X203230395Y-111760000D01*
X203589605Y-111760000D01*
X204295527Y-112465922D01*
X204524201Y-112412534D01*
X204630095Y-112182626D01*
X204689102Y-111936476D01*
X204698952Y-111683545D01*
X204690999Y-111633439D01*
X205725000Y-111633439D01*
X205725000Y-111886561D01*
X205774381Y-112134821D01*
X205871247Y-112368676D01*
X206011875Y-112579140D01*
X206190860Y-112758125D01*
X206401324Y-112898753D01*
X206635179Y-112995619D01*
X206883439Y-113045000D01*
X207136561Y-113045000D01*
X207384821Y-112995619D01*
X207618676Y-112898753D01*
X207829140Y-112758125D01*
X208008125Y-112579140D01*
X208148753Y-112368676D01*
X208245619Y-112134821D01*
X208295000Y-111886561D01*
X208295000Y-111633439D01*
X208245619Y-111385179D01*
X208148753Y-111151324D01*
X208008125Y-110940860D01*
X207829140Y-110761875D01*
X207618676Y-110621247D01*
X207384821Y-110524381D01*
X207136561Y-110475000D01*
X206883439Y-110475000D01*
X206635179Y-110524381D01*
X206401324Y-110621247D01*
X206190860Y-110761875D01*
X206011875Y-110940860D01*
X205871247Y-111151324D01*
X205774381Y-111385179D01*
X205725000Y-111633439D01*
X204690999Y-111633439D01*
X204659270Y-111433551D01*
X204571578Y-111196104D01*
X204524201Y-111107466D01*
X204295527Y-111054078D01*
X203589605Y-111760000D01*
X203230395Y-111760000D01*
X202524473Y-111054078D01*
X202295799Y-111107466D01*
X202189905Y-111337374D01*
X202130898Y-111583524D01*
X202121048Y-111836455D01*
X196308440Y-111836455D01*
X196331383Y-111781067D01*
X196375000Y-111561788D01*
X196375000Y-111338212D01*
X196331383Y-111118933D01*
X196245824Y-110912376D01*
X196220498Y-110874473D01*
X202704078Y-110874473D01*
X203410000Y-111580395D01*
X204115922Y-110874473D01*
X204062534Y-110645799D01*
X203832626Y-110539905D01*
X203586476Y-110480898D01*
X203333545Y-110471048D01*
X203083551Y-110510730D01*
X202846104Y-110598422D01*
X202757466Y-110645799D01*
X202704078Y-110874473D01*
X196220498Y-110874473D01*
X196121612Y-110726480D01*
X195963520Y-110568388D01*
X195777624Y-110444176D01*
X195571067Y-110358617D01*
X195351788Y-110315000D01*
X195128212Y-110315000D01*
X194908933Y-110358617D01*
X194702376Y-110444176D01*
X194516480Y-110568388D01*
X194358388Y-110726480D01*
X194234176Y-110912376D01*
X194148617Y-111118933D01*
X194105000Y-111338212D01*
X191975000Y-111338212D01*
X191931383Y-111118933D01*
X191845824Y-110912376D01*
X191721612Y-110726480D01*
X191563520Y-110568388D01*
X191377624Y-110444176D01*
X191171067Y-110358617D01*
X190951788Y-110315000D01*
X190728212Y-110315000D01*
X190508933Y-110358617D01*
X190302376Y-110444176D01*
X190116480Y-110568388D01*
X189958388Y-110726480D01*
X189834176Y-110912376D01*
X189748617Y-111118933D01*
X189705000Y-111338212D01*
X173405000Y-111338212D01*
X173405000Y-108033439D01*
X202125000Y-108033439D01*
X202125000Y-108286561D01*
X202174381Y-108534821D01*
X202271247Y-108768676D01*
X202411875Y-108979140D01*
X202590860Y-109158125D01*
X202801324Y-109298753D01*
X203035179Y-109395619D01*
X203283439Y-109445000D01*
X203536561Y-109445000D01*
X203784821Y-109395619D01*
X204018676Y-109298753D01*
X204229140Y-109158125D01*
X204408125Y-108979140D01*
X204548753Y-108768676D01*
X204645619Y-108534821D01*
X204695000Y-108286561D01*
X204695000Y-108033439D01*
X205725000Y-108033439D01*
X205725000Y-108286561D01*
X205774381Y-108534821D01*
X205871247Y-108768676D01*
X206011875Y-108979140D01*
X206190860Y-109158125D01*
X206401324Y-109298753D01*
X206635179Y-109395619D01*
X206883439Y-109445000D01*
X207136561Y-109445000D01*
X207384821Y-109395619D01*
X207618676Y-109298753D01*
X207829140Y-109158125D01*
X208008125Y-108979140D01*
X208148753Y-108768676D01*
X208245619Y-108534821D01*
X208295000Y-108286561D01*
X208295000Y-108033439D01*
X208245619Y-107785179D01*
X208148753Y-107551324D01*
X208008125Y-107340860D01*
X207829140Y-107161875D01*
X207618676Y-107021247D01*
X207384821Y-106924381D01*
X207136561Y-106875000D01*
X206883439Y-106875000D01*
X206635179Y-106924381D01*
X206401324Y-107021247D01*
X206190860Y-107161875D01*
X206011875Y-107340860D01*
X205871247Y-107551324D01*
X205774381Y-107785179D01*
X205725000Y-108033439D01*
X204695000Y-108033439D01*
X204645619Y-107785179D01*
X204548753Y-107551324D01*
X204408125Y-107340860D01*
X204229140Y-107161875D01*
X204018676Y-107021247D01*
X203784821Y-106924381D01*
X203536561Y-106875000D01*
X203283439Y-106875000D01*
X203035179Y-106924381D01*
X202801324Y-107021247D01*
X202590860Y-107161875D01*
X202411875Y-107340860D01*
X202271247Y-107551324D01*
X202174381Y-107785179D01*
X202125000Y-108033439D01*
X173405000Y-108033439D01*
X173405000Y-88380000D01*
X185502143Y-88380000D01*
X185502143Y-92200000D01*
X192787857Y-92200000D01*
X192787857Y-96010000D01*
X211072143Y-96010000D01*
X211072143Y-92200000D01*
X218357857Y-92200000D01*
X218357857Y-88380000D01*
X185502143Y-88380000D01*
X173405000Y-88380000D01*
X173405000Y-83698363D01*
X204505000Y-83698363D01*
X204505000Y-83941637D01*
X204552460Y-84180236D01*
X204645557Y-84404992D01*
X204780713Y-84607267D01*
X204952733Y-84779287D01*
X205155008Y-84914443D01*
X205379764Y-85007540D01*
X205618363Y-85055000D01*
X205861637Y-85055000D01*
X206100236Y-85007540D01*
X206254262Y-84943740D01*
X225845000Y-84943740D01*
X225845000Y-85236260D01*
X225902068Y-85523158D01*
X226014010Y-85793411D01*
X226176525Y-86036632D01*
X226383368Y-86243475D01*
X226557760Y-86360000D01*
X226383368Y-86476525D01*
X226176525Y-86683368D01*
X226014010Y-86926589D01*
X225902068Y-87196842D01*
X225845000Y-87483740D01*
X225845000Y-87776260D01*
X225902068Y-88063158D01*
X226014010Y-88333411D01*
X226176525Y-88576632D01*
X226383368Y-88783475D01*
X226557760Y-88900000D01*
X226383368Y-89016525D01*
X226176525Y-89223368D01*
X226014010Y-89466589D01*
X225902068Y-89736842D01*
X225845000Y-90023740D01*
X225845000Y-90316260D01*
X225902068Y-90603158D01*
X226014010Y-90873411D01*
X226176525Y-91116632D01*
X226383368Y-91323475D01*
X226626589Y-91485990D01*
X226896842Y-91597932D01*
X227183740Y-91655000D01*
X227476260Y-91655000D01*
X227763158Y-91597932D01*
X228033411Y-91485990D01*
X228276632Y-91323475D01*
X228483475Y-91116632D01*
X228645990Y-90873411D01*
X228757932Y-90603158D01*
X228815000Y-90316260D01*
X228815000Y-90023740D01*
X228757932Y-89736842D01*
X228645990Y-89466589D01*
X228483475Y-89223368D01*
X228276632Y-89016525D01*
X228102240Y-88900000D01*
X228276632Y-88783475D01*
X228483475Y-88576632D01*
X228645990Y-88333411D01*
X228757932Y-88063158D01*
X228815000Y-87776260D01*
X228815000Y-87483740D01*
X228757932Y-87196842D01*
X228645990Y-86926589D01*
X228483475Y-86683368D01*
X228276632Y-86476525D01*
X228102240Y-86360000D01*
X228276632Y-86243475D01*
X228483475Y-86036632D01*
X228645990Y-85793411D01*
X228757932Y-85523158D01*
X228815000Y-85236260D01*
X228815000Y-84943740D01*
X228757932Y-84656842D01*
X228645990Y-84386589D01*
X228483475Y-84143368D01*
X228276632Y-83936525D01*
X228094466Y-83814805D01*
X228211355Y-83745178D01*
X228427588Y-83550269D01*
X228601641Y-83316920D01*
X228726825Y-83054099D01*
X228771476Y-82906890D01*
X228650155Y-82677000D01*
X227457000Y-82677000D01*
X227457000Y-82697000D01*
X227203000Y-82697000D01*
X227203000Y-82677000D01*
X226009845Y-82677000D01*
X225888524Y-82906890D01*
X225933175Y-83054099D01*
X226058359Y-83316920D01*
X226232412Y-83550269D01*
X226448645Y-83745178D01*
X226565534Y-83814805D01*
X226383368Y-83936525D01*
X226176525Y-84143368D01*
X226014010Y-84386589D01*
X225902068Y-84656842D01*
X225845000Y-84943740D01*
X206254262Y-84943740D01*
X206324992Y-84914443D01*
X206527267Y-84779287D01*
X206699287Y-84607267D01*
X206834443Y-84404992D01*
X206927540Y-84180236D01*
X206975000Y-83941637D01*
X206975000Y-83698363D01*
X206927540Y-83459764D01*
X206834443Y-83235008D01*
X206699287Y-83032733D01*
X206527267Y-82860713D01*
X206324992Y-82725557D01*
X206100236Y-82632460D01*
X205861637Y-82585000D01*
X205618363Y-82585000D01*
X205379764Y-82632460D01*
X205155008Y-82725557D01*
X204952733Y-82860713D01*
X204780713Y-83032733D01*
X204645557Y-83235008D01*
X204552460Y-83459764D01*
X204505000Y-83698363D01*
X173405000Y-83698363D01*
X173405000Y-82129764D01*
X202529841Y-82129764D01*
X202577148Y-82353348D01*
X202798516Y-82454237D01*
X203035313Y-82510000D01*
X203278438Y-82518495D01*
X203518549Y-82479395D01*
X203746418Y-82394202D01*
X203822852Y-82353348D01*
X203870159Y-82129764D01*
X203200000Y-81459605D01*
X202529841Y-82129764D01*
X173405000Y-82129764D01*
X173405000Y-81358438D01*
X201961505Y-81358438D01*
X202000605Y-81598549D01*
X202085798Y-81826418D01*
X202126652Y-81902852D01*
X202350236Y-81950159D01*
X203020395Y-81280000D01*
X203379605Y-81280000D01*
X204049764Y-81950159D01*
X204273348Y-81902852D01*
X204374237Y-81681484D01*
X204430000Y-81444687D01*
X204438495Y-81201562D01*
X204431461Y-81158363D01*
X207045000Y-81158363D01*
X207045000Y-81401637D01*
X207092460Y-81640236D01*
X207185557Y-81864992D01*
X207320713Y-82067267D01*
X207492733Y-82239287D01*
X207695008Y-82374443D01*
X207919764Y-82467540D01*
X208158363Y-82515000D01*
X208401637Y-82515000D01*
X208640236Y-82467540D01*
X208864992Y-82374443D01*
X209067267Y-82239287D01*
X209239287Y-82067267D01*
X209374443Y-81864992D01*
X209467540Y-81640236D01*
X209515000Y-81401637D01*
X209515000Y-81178061D01*
X216262000Y-81178061D01*
X216262000Y-81381939D01*
X216301774Y-81581898D01*
X216379795Y-81770256D01*
X216493063Y-81939774D01*
X216637226Y-82083937D01*
X216806744Y-82197205D01*
X216995102Y-82275226D01*
X217195061Y-82315000D01*
X217398939Y-82315000D01*
X217598898Y-82275226D01*
X217787256Y-82197205D01*
X217947700Y-82090000D01*
X222361300Y-82090000D01*
X222521744Y-82197205D01*
X222710102Y-82275226D01*
X222910061Y-82315000D01*
X223113939Y-82315000D01*
X223313898Y-82275226D01*
X223502256Y-82197205D01*
X223671774Y-82083937D01*
X223815937Y-81939774D01*
X223929205Y-81770256D01*
X224007226Y-81581898D01*
X224047000Y-81381939D01*
X224047000Y-81178061D01*
X224007226Y-80978102D01*
X223929205Y-80789744D01*
X223815937Y-80620226D01*
X223671774Y-80476063D01*
X223502256Y-80362795D01*
X223313898Y-80284774D01*
X223113939Y-80245000D01*
X222910061Y-80245000D01*
X222710102Y-80284774D01*
X222521744Y-80362795D01*
X222361300Y-80470000D01*
X217947700Y-80470000D01*
X217787256Y-80362795D01*
X217598898Y-80284774D01*
X217398939Y-80245000D01*
X217195061Y-80245000D01*
X216995102Y-80284774D01*
X216806744Y-80362795D01*
X216637226Y-80476063D01*
X216493063Y-80620226D01*
X216379795Y-80789744D01*
X216301774Y-80978102D01*
X216262000Y-81178061D01*
X209515000Y-81178061D01*
X209515000Y-81158363D01*
X209467540Y-80919764D01*
X209374443Y-80695008D01*
X209239287Y-80492733D01*
X209067267Y-80320713D01*
X208864992Y-80185557D01*
X208640236Y-80092460D01*
X208401637Y-80045000D01*
X208158363Y-80045000D01*
X207919764Y-80092460D01*
X207695008Y-80185557D01*
X207492733Y-80320713D01*
X207320713Y-80492733D01*
X207185557Y-80695008D01*
X207092460Y-80919764D01*
X207045000Y-81158363D01*
X204431461Y-81158363D01*
X204399395Y-80961451D01*
X204314202Y-80733582D01*
X204273348Y-80657148D01*
X204049764Y-80609841D01*
X203379605Y-81280000D01*
X203020395Y-81280000D01*
X202350236Y-80609841D01*
X202126652Y-80657148D01*
X202025763Y-80878516D01*
X201970000Y-81115313D01*
X201961505Y-81358438D01*
X173405000Y-81358438D01*
X173405000Y-80430236D01*
X202529841Y-80430236D01*
X203200000Y-81100395D01*
X203870159Y-80430236D01*
X203822852Y-80206652D01*
X203601484Y-80105763D01*
X203364687Y-80050000D01*
X203121562Y-80041505D01*
X202881451Y-80080605D01*
X202653582Y-80165798D01*
X202577148Y-80206652D01*
X202529841Y-80430236D01*
X173405000Y-80430236D01*
X173405000Y-76620000D01*
X225841928Y-76620000D01*
X225841928Y-78320000D01*
X225854188Y-78444482D01*
X225890498Y-78564180D01*
X225949463Y-78674494D01*
X226028815Y-78771185D01*
X226125506Y-78850537D01*
X226235820Y-78909502D01*
X226308380Y-78931513D01*
X226176525Y-79063368D01*
X226014010Y-79306589D01*
X225902068Y-79576842D01*
X225845000Y-79863740D01*
X225845000Y-80156260D01*
X225902068Y-80443158D01*
X226014010Y-80713411D01*
X226176525Y-80956632D01*
X226383368Y-81163475D01*
X226565534Y-81285195D01*
X226448645Y-81354822D01*
X226232412Y-81549731D01*
X226058359Y-81783080D01*
X225933175Y-82045901D01*
X225888524Y-82193110D01*
X226009845Y-82423000D01*
X227203000Y-82423000D01*
X227203000Y-82403000D01*
X227457000Y-82403000D01*
X227457000Y-82423000D01*
X228650155Y-82423000D01*
X228771476Y-82193110D01*
X228726825Y-82045901D01*
X228601641Y-81783080D01*
X228427588Y-81549731D01*
X228211355Y-81354822D01*
X228094466Y-81285195D01*
X228276632Y-81163475D01*
X228483475Y-80956632D01*
X228645990Y-80713411D01*
X228757932Y-80443158D01*
X228815000Y-80156260D01*
X228815000Y-79863740D01*
X228757932Y-79576842D01*
X228645990Y-79306589D01*
X228483475Y-79063368D01*
X228351620Y-78931513D01*
X228424180Y-78909502D01*
X228534494Y-78850537D01*
X228631185Y-78771185D01*
X228710537Y-78674494D01*
X228769502Y-78564180D01*
X228805812Y-78444482D01*
X228818072Y-78320000D01*
X228818072Y-76620000D01*
X228805812Y-76495518D01*
X228769502Y-76375820D01*
X228710537Y-76265506D01*
X228631185Y-76168815D01*
X228534494Y-76089463D01*
X228424180Y-76030498D01*
X228304482Y-75994188D01*
X228180000Y-75981928D01*
X226480000Y-75981928D01*
X226355518Y-75994188D01*
X226235820Y-76030498D01*
X226125506Y-76089463D01*
X226028815Y-76168815D01*
X225949463Y-76265506D01*
X225890498Y-76375820D01*
X225854188Y-76495518D01*
X225841928Y-76620000D01*
X173405000Y-76620000D01*
X173405000Y-75615000D01*
X230455000Y-75615000D01*
X230455001Y-116155000D01*
G37*
X230455001Y-116155000D02*
X173405000Y-116155000D01*
X173405000Y-112645527D01*
X202704078Y-112645527D01*
X202757466Y-112874201D01*
X202987374Y-112980095D01*
X203233524Y-113039102D01*
X203486455Y-113048952D01*
X203736449Y-113009270D01*
X203973896Y-112921578D01*
X204062534Y-112874201D01*
X204115922Y-112645527D01*
X203410000Y-111939605D01*
X202704078Y-112645527D01*
X173405000Y-112645527D01*
X173405000Y-111338212D01*
X189705000Y-111338212D01*
X189705000Y-111561788D01*
X189748617Y-111781067D01*
X189834176Y-111987624D01*
X189958388Y-112173520D01*
X190116480Y-112331612D01*
X190302376Y-112455824D01*
X190508933Y-112541383D01*
X190728212Y-112585000D01*
X190951788Y-112585000D01*
X191171067Y-112541383D01*
X191377624Y-112455824D01*
X191563520Y-112331612D01*
X191721612Y-112173520D01*
X191845824Y-111987624D01*
X191931383Y-111781067D01*
X191975000Y-111561788D01*
X191975000Y-111338212D01*
X194105000Y-111338212D01*
X194105000Y-111561788D01*
X194148617Y-111781067D01*
X194234176Y-111987624D01*
X194358388Y-112173520D01*
X194516480Y-112331612D01*
X194702376Y-112455824D01*
X194908933Y-112541383D01*
X195128212Y-112585000D01*
X195351788Y-112585000D01*
X195571067Y-112541383D01*
X195777624Y-112455824D01*
X195963520Y-112331612D01*
X196121612Y-112173520D01*
X196245824Y-111987624D01*
X196308440Y-111836455D01*
X202121048Y-111836455D01*
X202160730Y-112086449D01*
X202248422Y-112323896D01*
X202295799Y-112412534D01*
X202524473Y-112465922D01*
X203230395Y-111760000D01*
X203589605Y-111760000D01*
X204295527Y-112465922D01*
X204524201Y-112412534D01*
X204630095Y-112182626D01*
X204689102Y-111936476D01*
X204698952Y-111683545D01*
X204690999Y-111633439D01*
X205725000Y-111633439D01*
X205725000Y-111886561D01*
X205774381Y-112134821D01*
X205871247Y-112368676D01*
X206011875Y-112579140D01*
X206190860Y-112758125D01*
X206401324Y-112898753D01*
X206635179Y-112995619D01*
X206883439Y-113045000D01*
X207136561Y-113045000D01*
X207384821Y-112995619D01*
X207618676Y-112898753D01*
X207829140Y-112758125D01*
X208008125Y-112579140D01*
X208148753Y-112368676D01*
X208245619Y-112134821D01*
X208295000Y-111886561D01*
X208295000Y-111633439D01*
X208245619Y-111385179D01*
X208148753Y-111151324D01*
X208008125Y-110940860D01*
X207829140Y-110761875D01*
X207618676Y-110621247D01*
X207384821Y-110524381D01*
X207136561Y-110475000D01*
X206883439Y-110475000D01*
X206635179Y-110524381D01*
X206401324Y-110621247D01*
X206190860Y-110761875D01*
X206011875Y-110940860D01*
X205871247Y-111151324D01*
X205774381Y-111385179D01*
X205725000Y-111633439D01*
X204690999Y-111633439D01*
X204659270Y-111433551D01*
X204571578Y-111196104D01*
X204524201Y-111107466D01*
X204295527Y-111054078D01*
X203589605Y-111760000D01*
X203230395Y-111760000D01*
X202524473Y-111054078D01*
X202295799Y-111107466D01*
X202189905Y-111337374D01*
X202130898Y-111583524D01*
X202121048Y-111836455D01*
X196308440Y-111836455D01*
X196331383Y-111781067D01*
X196375000Y-111561788D01*
X196375000Y-111338212D01*
X196331383Y-111118933D01*
X196245824Y-110912376D01*
X196220498Y-110874473D01*
X202704078Y-110874473D01*
X203410000Y-111580395D01*
X204115922Y-110874473D01*
X204062534Y-110645799D01*
X203832626Y-110539905D01*
X203586476Y-110480898D01*
X203333545Y-110471048D01*
X203083551Y-110510730D01*
X202846104Y-110598422D01*
X202757466Y-110645799D01*
X202704078Y-110874473D01*
X196220498Y-110874473D01*
X196121612Y-110726480D01*
X195963520Y-110568388D01*
X195777624Y-110444176D01*
X195571067Y-110358617D01*
X195351788Y-110315000D01*
X195128212Y-110315000D01*
X194908933Y-110358617D01*
X194702376Y-110444176D01*
X194516480Y-110568388D01*
X194358388Y-110726480D01*
X194234176Y-110912376D01*
X194148617Y-111118933D01*
X194105000Y-111338212D01*
X191975000Y-111338212D01*
X191931383Y-111118933D01*
X191845824Y-110912376D01*
X191721612Y-110726480D01*
X191563520Y-110568388D01*
X191377624Y-110444176D01*
X191171067Y-110358617D01*
X190951788Y-110315000D01*
X190728212Y-110315000D01*
X190508933Y-110358617D01*
X190302376Y-110444176D01*
X190116480Y-110568388D01*
X189958388Y-110726480D01*
X189834176Y-110912376D01*
X189748617Y-111118933D01*
X189705000Y-111338212D01*
X173405000Y-111338212D01*
X173405000Y-108033439D01*
X202125000Y-108033439D01*
X202125000Y-108286561D01*
X202174381Y-108534821D01*
X202271247Y-108768676D01*
X202411875Y-108979140D01*
X202590860Y-109158125D01*
X202801324Y-109298753D01*
X203035179Y-109395619D01*
X203283439Y-109445000D01*
X203536561Y-109445000D01*
X203784821Y-109395619D01*
X204018676Y-109298753D01*
X204229140Y-109158125D01*
X204408125Y-108979140D01*
X204548753Y-108768676D01*
X204645619Y-108534821D01*
X204695000Y-108286561D01*
X204695000Y-108033439D01*
X205725000Y-108033439D01*
X205725000Y-108286561D01*
X205774381Y-108534821D01*
X205871247Y-108768676D01*
X206011875Y-108979140D01*
X206190860Y-109158125D01*
X206401324Y-109298753D01*
X206635179Y-109395619D01*
X206883439Y-109445000D01*
X207136561Y-109445000D01*
X207384821Y-109395619D01*
X207618676Y-109298753D01*
X207829140Y-109158125D01*
X208008125Y-108979140D01*
X208148753Y-108768676D01*
X208245619Y-108534821D01*
X208295000Y-108286561D01*
X208295000Y-108033439D01*
X208245619Y-107785179D01*
X208148753Y-107551324D01*
X208008125Y-107340860D01*
X207829140Y-107161875D01*
X207618676Y-107021247D01*
X207384821Y-106924381D01*
X207136561Y-106875000D01*
X206883439Y-106875000D01*
X206635179Y-106924381D01*
X206401324Y-107021247D01*
X206190860Y-107161875D01*
X206011875Y-107340860D01*
X205871247Y-107551324D01*
X205774381Y-107785179D01*
X205725000Y-108033439D01*
X204695000Y-108033439D01*
X204645619Y-107785179D01*
X204548753Y-107551324D01*
X204408125Y-107340860D01*
X204229140Y-107161875D01*
X204018676Y-107021247D01*
X203784821Y-106924381D01*
X203536561Y-106875000D01*
X203283439Y-106875000D01*
X203035179Y-106924381D01*
X202801324Y-107021247D01*
X202590860Y-107161875D01*
X202411875Y-107340860D01*
X202271247Y-107551324D01*
X202174381Y-107785179D01*
X202125000Y-108033439D01*
X173405000Y-108033439D01*
X173405000Y-88380000D01*
X185502143Y-88380000D01*
X185502143Y-92200000D01*
X192787857Y-92200000D01*
X192787857Y-96010000D01*
X211072143Y-96010000D01*
X211072143Y-92200000D01*
X218357857Y-92200000D01*
X218357857Y-88380000D01*
X185502143Y-88380000D01*
X173405000Y-88380000D01*
X173405000Y-83698363D01*
X204505000Y-83698363D01*
X204505000Y-83941637D01*
X204552460Y-84180236D01*
X204645557Y-84404992D01*
X204780713Y-84607267D01*
X204952733Y-84779287D01*
X205155008Y-84914443D01*
X205379764Y-85007540D01*
X205618363Y-85055000D01*
X205861637Y-85055000D01*
X206100236Y-85007540D01*
X206254262Y-84943740D01*
X225845000Y-84943740D01*
X225845000Y-85236260D01*
X225902068Y-85523158D01*
X226014010Y-85793411D01*
X226176525Y-86036632D01*
X226383368Y-86243475D01*
X226557760Y-86360000D01*
X226383368Y-86476525D01*
X226176525Y-86683368D01*
X226014010Y-86926589D01*
X225902068Y-87196842D01*
X225845000Y-87483740D01*
X225845000Y-87776260D01*
X225902068Y-88063158D01*
X226014010Y-88333411D01*
X226176525Y-88576632D01*
X226383368Y-88783475D01*
X226557760Y-88900000D01*
X226383368Y-89016525D01*
X226176525Y-89223368D01*
X226014010Y-89466589D01*
X225902068Y-89736842D01*
X225845000Y-90023740D01*
X225845000Y-90316260D01*
X225902068Y-90603158D01*
X226014010Y-90873411D01*
X226176525Y-91116632D01*
X226383368Y-91323475D01*
X226626589Y-91485990D01*
X226896842Y-91597932D01*
X227183740Y-91655000D01*
X227476260Y-91655000D01*
X227763158Y-91597932D01*
X228033411Y-91485990D01*
X228276632Y-91323475D01*
X228483475Y-91116632D01*
X228645990Y-90873411D01*
X228757932Y-90603158D01*
X228815000Y-90316260D01*
X228815000Y-90023740D01*
X228757932Y-89736842D01*
X228645990Y-89466589D01*
X228483475Y-89223368D01*
X228276632Y-89016525D01*
X228102240Y-88900000D01*
X228276632Y-88783475D01*
X228483475Y-88576632D01*
X228645990Y-88333411D01*
X228757932Y-88063158D01*
X228815000Y-87776260D01*
X228815000Y-87483740D01*
X228757932Y-87196842D01*
X228645990Y-86926589D01*
X228483475Y-86683368D01*
X228276632Y-86476525D01*
X228102240Y-86360000D01*
X228276632Y-86243475D01*
X228483475Y-86036632D01*
X228645990Y-85793411D01*
X228757932Y-85523158D01*
X228815000Y-85236260D01*
X228815000Y-84943740D01*
X228757932Y-84656842D01*
X228645990Y-84386589D01*
X228483475Y-84143368D01*
X228276632Y-83936525D01*
X228094466Y-83814805D01*
X228211355Y-83745178D01*
X228427588Y-83550269D01*
X228601641Y-83316920D01*
X228726825Y-83054099D01*
X228771476Y-82906890D01*
X228650155Y-82677000D01*
X227457000Y-82677000D01*
X227457000Y-82697000D01*
X227203000Y-82697000D01*
X227203000Y-82677000D01*
X226009845Y-82677000D01*
X225888524Y-82906890D01*
X225933175Y-83054099D01*
X226058359Y-83316920D01*
X226232412Y-83550269D01*
X226448645Y-83745178D01*
X226565534Y-83814805D01*
X226383368Y-83936525D01*
X226176525Y-84143368D01*
X226014010Y-84386589D01*
X225902068Y-84656842D01*
X225845000Y-84943740D01*
X206254262Y-84943740D01*
X206324992Y-84914443D01*
X206527267Y-84779287D01*
X206699287Y-84607267D01*
X206834443Y-84404992D01*
X206927540Y-84180236D01*
X206975000Y-83941637D01*
X206975000Y-83698363D01*
X206927540Y-83459764D01*
X206834443Y-83235008D01*
X206699287Y-83032733D01*
X206527267Y-82860713D01*
X206324992Y-82725557D01*
X206100236Y-82632460D01*
X205861637Y-82585000D01*
X205618363Y-82585000D01*
X205379764Y-82632460D01*
X205155008Y-82725557D01*
X204952733Y-82860713D01*
X204780713Y-83032733D01*
X204645557Y-83235008D01*
X204552460Y-83459764D01*
X204505000Y-83698363D01*
X173405000Y-83698363D01*
X173405000Y-82129764D01*
X202529841Y-82129764D01*
X202577148Y-82353348D01*
X202798516Y-82454237D01*
X203035313Y-82510000D01*
X203278438Y-82518495D01*
X203518549Y-82479395D01*
X203746418Y-82394202D01*
X203822852Y-82353348D01*
X203870159Y-82129764D01*
X203200000Y-81459605D01*
X202529841Y-82129764D01*
X173405000Y-82129764D01*
X173405000Y-81358438D01*
X201961505Y-81358438D01*
X202000605Y-81598549D01*
X202085798Y-81826418D01*
X202126652Y-81902852D01*
X202350236Y-81950159D01*
X203020395Y-81280000D01*
X203379605Y-81280000D01*
X204049764Y-81950159D01*
X204273348Y-81902852D01*
X204374237Y-81681484D01*
X204430000Y-81444687D01*
X204438495Y-81201562D01*
X204431461Y-81158363D01*
X207045000Y-81158363D01*
X207045000Y-81401637D01*
X207092460Y-81640236D01*
X207185557Y-81864992D01*
X207320713Y-82067267D01*
X207492733Y-82239287D01*
X207695008Y-82374443D01*
X207919764Y-82467540D01*
X208158363Y-82515000D01*
X208401637Y-82515000D01*
X208640236Y-82467540D01*
X208864992Y-82374443D01*
X209067267Y-82239287D01*
X209239287Y-82067267D01*
X209374443Y-81864992D01*
X209467540Y-81640236D01*
X209515000Y-81401637D01*
X209515000Y-81178061D01*
X216262000Y-81178061D01*
X216262000Y-81381939D01*
X216301774Y-81581898D01*
X216379795Y-81770256D01*
X216493063Y-81939774D01*
X216637226Y-82083937D01*
X216806744Y-82197205D01*
X216995102Y-82275226D01*
X217195061Y-82315000D01*
X217398939Y-82315000D01*
X217598898Y-82275226D01*
X217787256Y-82197205D01*
X217947700Y-82090000D01*
X222361300Y-82090000D01*
X222521744Y-82197205D01*
X222710102Y-82275226D01*
X222910061Y-82315000D01*
X223113939Y-82315000D01*
X223313898Y-82275226D01*
X223502256Y-82197205D01*
X223671774Y-82083937D01*
X223815937Y-81939774D01*
X223929205Y-81770256D01*
X224007226Y-81581898D01*
X224047000Y-81381939D01*
X224047000Y-81178061D01*
X224007226Y-80978102D01*
X223929205Y-80789744D01*
X223815937Y-80620226D01*
X223671774Y-80476063D01*
X223502256Y-80362795D01*
X223313898Y-80284774D01*
X223113939Y-80245000D01*
X222910061Y-80245000D01*
X222710102Y-80284774D01*
X222521744Y-80362795D01*
X222361300Y-80470000D01*
X217947700Y-80470000D01*
X217787256Y-80362795D01*
X217598898Y-80284774D01*
X217398939Y-80245000D01*
X217195061Y-80245000D01*
X216995102Y-80284774D01*
X216806744Y-80362795D01*
X216637226Y-80476063D01*
X216493063Y-80620226D01*
X216379795Y-80789744D01*
X216301774Y-80978102D01*
X216262000Y-81178061D01*
X209515000Y-81178061D01*
X209515000Y-81158363D01*
X209467540Y-80919764D01*
X209374443Y-80695008D01*
X209239287Y-80492733D01*
X209067267Y-80320713D01*
X208864992Y-80185557D01*
X208640236Y-80092460D01*
X208401637Y-80045000D01*
X208158363Y-80045000D01*
X207919764Y-80092460D01*
X207695008Y-80185557D01*
X207492733Y-80320713D01*
X207320713Y-80492733D01*
X207185557Y-80695008D01*
X207092460Y-80919764D01*
X207045000Y-81158363D01*
X204431461Y-81158363D01*
X204399395Y-80961451D01*
X204314202Y-80733582D01*
X204273348Y-80657148D01*
X204049764Y-80609841D01*
X203379605Y-81280000D01*
X203020395Y-81280000D01*
X202350236Y-80609841D01*
X202126652Y-80657148D01*
X202025763Y-80878516D01*
X201970000Y-81115313D01*
X201961505Y-81358438D01*
X173405000Y-81358438D01*
X173405000Y-80430236D01*
X202529841Y-80430236D01*
X203200000Y-81100395D01*
X203870159Y-80430236D01*
X203822852Y-80206652D01*
X203601484Y-80105763D01*
X203364687Y-80050000D01*
X203121562Y-80041505D01*
X202881451Y-80080605D01*
X202653582Y-80165798D01*
X202577148Y-80206652D01*
X202529841Y-80430236D01*
X173405000Y-80430236D01*
X173405000Y-76620000D01*
X225841928Y-76620000D01*
X225841928Y-78320000D01*
X225854188Y-78444482D01*
X225890498Y-78564180D01*
X225949463Y-78674494D01*
X226028815Y-78771185D01*
X226125506Y-78850537D01*
X226235820Y-78909502D01*
X226308380Y-78931513D01*
X226176525Y-79063368D01*
X226014010Y-79306589D01*
X225902068Y-79576842D01*
X225845000Y-79863740D01*
X225845000Y-80156260D01*
X225902068Y-80443158D01*
X226014010Y-80713411D01*
X226176525Y-80956632D01*
X226383368Y-81163475D01*
X226565534Y-81285195D01*
X226448645Y-81354822D01*
X226232412Y-81549731D01*
X226058359Y-81783080D01*
X225933175Y-82045901D01*
X225888524Y-82193110D01*
X226009845Y-82423000D01*
X227203000Y-82423000D01*
X227203000Y-82403000D01*
X227457000Y-82403000D01*
X227457000Y-82423000D01*
X228650155Y-82423000D01*
X228771476Y-82193110D01*
X228726825Y-82045901D01*
X228601641Y-81783080D01*
X228427588Y-81549731D01*
X228211355Y-81354822D01*
X228094466Y-81285195D01*
X228276632Y-81163475D01*
X228483475Y-80956632D01*
X228645990Y-80713411D01*
X228757932Y-80443158D01*
X228815000Y-80156260D01*
X228815000Y-79863740D01*
X228757932Y-79576842D01*
X228645990Y-79306589D01*
X228483475Y-79063368D01*
X228351620Y-78931513D01*
X228424180Y-78909502D01*
X228534494Y-78850537D01*
X228631185Y-78771185D01*
X228710537Y-78674494D01*
X228769502Y-78564180D01*
X228805812Y-78444482D01*
X228818072Y-78320000D01*
X228818072Y-76620000D01*
X228805812Y-76495518D01*
X228769502Y-76375820D01*
X228710537Y-76265506D01*
X228631185Y-76168815D01*
X228534494Y-76089463D01*
X228424180Y-76030498D01*
X228304482Y-75994188D01*
X228180000Y-75981928D01*
X226480000Y-75981928D01*
X226355518Y-75994188D01*
X226235820Y-76030498D01*
X226125506Y-76089463D01*
X226028815Y-76168815D01*
X225949463Y-76265506D01*
X225890498Y-76375820D01*
X225854188Y-76495518D01*
X225841928Y-76620000D01*
X173405000Y-76620000D01*
X173405000Y-75615000D01*
X230455000Y-75615000D01*
X230455001Y-116155000D01*
M02*
